<svg width="330" height="230" viewBox="0 0 330 230" fill="none" xmlns="http://www.w3.org/2000/svg">
<path opacity="0.2" d="M98.6902 29.9592L98.4556 29.8999L23.9863 186.164L286.506 206.476L286.802 206.499L296.421 79.6474L296.44 79.398L98.6902 29.9592ZM174.104 130.451L25.0195 185.372L98.676 30.8139L174.104 130.451ZM174.541 130.922L285.434 205.797L25.816 185.711L174.541 130.922ZM174.678 130.229L99.3621 30.7374L295.188 79.6948L174.678 130.229ZM286.272 205.648L175.202 130.653L295.793 80.0842L286.272 205.648Z" fill="#367CFF"/>
<path d="M329.97 82.2891C329.733 88.3048 328.046 94.1736 325.054 99.3938C322.061 104.614 317.852 109.03 312.787 112.266C307.721 115.501 301.949 117.459 295.964 117.972C289.979 118.485 283.96 117.539 278.419 115.213C275.821 114.121 273.356 112.734 271.074 111.077C266.713 107.921 263.083 103.859 260.433 99.1669V99.1628C257.607 94.1447 255.981 88.5382 255.681 82.7837C255.382 77.0293 256.418 71.2837 258.708 65.9984C260.998 60.713 264.48 56.0319 268.88 52.3228C273.279 48.6136 278.477 45.9776 284.065 44.6217C289.652 43.2658 295.478 43.227 301.083 44.5083C306.688 45.7896 311.92 48.3562 316.369 52.0064C320.817 55.6565 324.361 60.2908 326.721 65.5452C329.081 70.7996 330.193 76.5309 329.97 82.2888L329.97 82.2891Z" fill="white"/>
<path opacity="0.09" d="M329.97 82.2891C329.733 88.3048 328.046 94.1736 325.054 99.3938C322.061 104.614 317.852 109.03 312.787 112.266C307.721 115.501 301.949 117.459 295.964 117.972C289.979 118.485 283.96 117.539 278.419 115.213C275.821 114.121 273.356 112.734 271.074 111.077C266.713 107.921 263.083 103.859 260.433 99.1669V99.1628C257.607 94.1447 255.981 88.5382 255.681 82.7837C255.382 77.0293 256.418 71.2837 258.708 65.9984C260.998 60.713 264.48 56.0319 268.88 52.3228C273.279 48.6136 278.477 45.9776 284.065 44.6217C289.652 43.2658 295.478 43.227 301.083 44.5083C306.688 45.7896 311.92 48.3562 316.369 52.0064C320.817 55.6565 324.361 60.2908 326.721 65.5452C329.081 70.7996 330.193 76.5309 329.97 82.2888L329.97 82.2891Z" fill="#367CFF"/>
<path d="M301.604 52.4619C301.604 52.4619 310.493 52.571 307.428 64.8499L306.594 64.8909L304.899 64.9736" fill="#0C0C0C"/>
<path d="M291.678 77.7325C291.719 77.7286 291.883 85.3875 300.765 85.0657C306.914 84.8439 309.353 78.4089 309.493 78.4143C308.838 78.2479 307.732 77.9991 307.445 77.8312C306.5 77.274 305.326 76.6865 305.088 74.7951C304.95 73.705 305.469 68.176 305.418 67.0767L295.925 68.816C295.967 71.1356 296.68 76.5365 293.417 77.3606C292.874 77.497 292.29 77.6189 291.678 77.7325Z" fill="#E98862"/>
<path opacity="0.52" d="M295.543 75.2478C295.709 74.7774 295.823 74.2901 295.883 73.7947C296.03 72.6648 296.054 71.5221 295.953 70.387C297.876 70.2026 299.709 69.4814 301.243 68.3052C301.393 68.9576 302.245 71.8229 301.953 72.4273C301.406 73.5702 298.969 75.3813 295.543 75.2478Z" fill="#0C0C0C"/>
<path d="M297.698 73.8944C301.419 73.6275 305.908 71.3568 306.064 66.3026L306.205 61.743C306.361 56.6897 303.838 52.511 299.093 52.3639C294.345 52.2156 290.671 56.2031 290.515 61.2564L290.453 63.275C290.443 63.9688 290.481 64.6623 290.566 65.3509C290.776 67.1718 291.104 69.9404 292.3 71.831C293.429 73.6156 295.321 74.0643 297.698 73.8944Z" fill="#E98862"/>
<path d="M305.721 67.8339C307.163 67.8784 308.381 66.3678 308.425 64.9221C308.47 63.4763 307.325 62.6424 305.883 62.5977L305.109 63.5434L304.48 67.7954L305.721 67.8339Z" fill="#E98862"/>
<path d="M290.758 66.8768C291.019 67.1865 291.353 67.426 291.729 67.5734C292.106 67.7208 292.513 67.7715 292.914 67.7208C293.772 67.6125 294.341 67.9654 295.057 67.8946C295.659 67.8353 295.763 67.5568 296.789 67.496C300.75 67.2608 303.722 67.0105 303.915 62.0287L306.436 59.7847C306.436 59.7847 307.562 73.5899 300.112 75.425C295.534 76.5519 291.241 76.14 290.689 71.8308C290.24 68.3293 290.758 66.8768 290.758 66.8768Z" fill="#0C0C0C"/>
<path d="M292.636 63.9939C292.959 63.9939 293.221 63.7314 293.221 63.4076C293.221 63.0838 292.959 62.8213 292.636 62.8213C292.313 62.8213 292.051 63.0838 292.051 63.4076C292.051 63.7314 292.313 63.9939 292.636 63.9939Z" fill="#0C0C0C"/>
<path d="M297.862 63.885C298.185 63.885 298.447 63.6225 298.447 63.2987C298.447 62.9749 298.185 62.7124 297.862 62.7124C297.539 62.7124 297.277 62.9749 297.277 63.2987C297.277 63.6225 297.539 63.885 297.862 63.885Z" fill="#0C0C0C"/>
<path d="M304.33 65.4835C304.33 65.4835 303.973 58.3228 301.817 57.8415C300.381 57.521 296.85 59.5061 293.624 58.8282C292.213 58.5316 290.862 58.8578 290.713 59.5263C290.654 59.7908 289.537 57.4447 291.808 54.5901C293.615 52.3173 299.493 51.6779 302.108 52.4816C309.349 54.7075 306.177 62.9183 306.177 62.9183L305.808 65.3779L304.33 65.4835Z" fill="#0C0C0C"/>
<path d="M307.621 59.7095C309.752 59.7095 311.479 57.9779 311.479 55.8418C311.479 53.7057 309.752 51.9741 307.621 51.9741C305.489 51.9741 303.762 53.7057 303.762 55.8418C303.762 57.9779 305.489 59.7095 307.621 59.7095Z" fill="#0C0C0C"/>
<g opacity="0.52">
<path d="M295.13 67.6645H295.121C294.656 67.6512 293.878 67.577 293.887 67.2286C293.895 66.9397 294.772 63.8443 294.872 63.492C294.881 63.4617 294.901 63.4361 294.928 63.4208C294.956 63.4054 294.988 63.4017 295.018 63.4103C295.049 63.4189 295.074 63.4392 295.089 63.4667C295.105 63.4942 295.108 63.5267 295.1 63.5569C294.711 64.9279 294.129 67.0388 294.123 67.2342C294.167 67.3179 294.646 67.4122 295.127 67.4261C295.159 67.4257 295.189 67.4379 295.211 67.4599C295.234 67.4819 295.246 67.5119 295.247 67.5434C295.247 67.5748 295.235 67.6052 295.213 67.6277C295.191 67.6501 295.161 67.663 295.13 67.6633V67.6645Z" fill="#0C0C0C"/>
</g>
<path d="M293.716 61.4153C293.236 61.2728 292.726 61.2625 292.241 61.3857C292.002 61.4445 291.773 61.5391 291.562 61.6662C291.353 61.7908 291.161 61.9414 290.989 62.1143C290.96 62.141 290.942 62.1784 290.94 62.2183C290.937 62.2582 290.951 62.2973 290.978 62.3271C291.004 62.3568 291.042 62.3748 291.082 62.377C291.121 62.3792 291.16 62.3655 291.19 62.3388L291.199 62.3311C291.359 62.1867 291.536 62.0631 291.727 61.9631C291.914 61.8635 292.115 61.7929 292.324 61.7537C292.735 61.673 293.161 61.7028 293.557 61.84L293.572 61.8456C293.6 61.8565 293.63 61.8617 293.66 61.8608C293.69 61.86 293.72 61.8532 293.747 61.8408C293.775 61.8284 293.799 61.8107 293.82 61.7886C293.84 61.7666 293.856 61.7407 293.866 61.7125C293.877 61.6843 293.881 61.6542 293.88 61.6242C293.879 61.5941 293.871 61.5646 293.858 61.5375C293.846 61.5103 293.828 61.4859 293.805 61.4658C293.783 61.4457 293.757 61.4302 293.728 61.4204L293.716 61.4153Z" fill="#0C0C0C"/>
<path d="M297.161 61.8409C297.542 61.6655 297.963 61.5943 298.38 61.6348C298.592 61.6533 298.799 61.704 298.995 61.7851C299.194 61.8661 299.383 61.9718 299.555 62.0998L299.565 62.1063C299.597 62.1274 299.636 62.1352 299.674 62.1283C299.712 62.1214 299.745 62.1003 299.768 62.0692C299.791 62.0382 299.801 61.9996 299.796 61.9613C299.791 61.9231 299.772 61.8882 299.742 61.8637C299.555 61.7083 299.349 61.5772 299.129 61.4735C298.907 61.3676 298.67 61.2957 298.426 61.2602C297.931 61.1854 297.425 61.2456 296.961 61.4343C296.906 61.4579 296.863 61.5021 296.841 61.5573C296.818 61.6125 296.819 61.6742 296.842 61.7292C296.864 61.7842 296.908 61.828 296.962 61.8511C297.017 61.8742 297.079 61.8748 297.134 61.8528L297.145 61.848L297.161 61.8409Z" fill="#0C0C0C"/>
<path d="M320.86 96.8565C320.529 99.3603 320.206 102.799 319.918 106.355C318.791 107.557 317.586 108.683 316.311 109.726C315.5 110.386 314.664 111.013 313.801 111.608C309.137 114.799 303.81 116.886 298.223 117.71C292.636 118.534 286.936 118.075 281.552 116.367C281.479 113.064 281.379 108.608 281.279 104.526C281.165 99.8179 281.05 95.6021 280.988 94.2168C280.733 88.7193 279.279 85.0512 280.378 82.0518C280.707 81.164 281.236 80.364 281.923 79.7141C284.484 77.202 290.845 77.2592 293.396 77.3586C293.44 77.3603 292.652 83.2621 301.046 83.1909C307.216 83.1402 307.679 77.914 307.679 77.914C307.679 77.914 310.72 78.231 312.739 78.5824C316.041 79.1622 318.188 80.3763 319.859 82.1894C321.418 83.8801 322.338 85.6749 320.86 96.8565Z" fill="#B9FF66"/>
<path d="M271.508 77.9399L271.762 71.6425C271.768 71.504 271.745 71.3659 271.694 71.2368C271.644 71.1077 271.567 70.9906 271.469 70.893C271.371 70.7953 271.253 70.7192 271.124 70.6696C270.995 70.6199 270.857 70.5978 270.719 70.6046C270.464 70.6252 270.227 70.7397 270.052 70.926C269.877 71.1123 269.777 71.3571 269.772 71.6129L269.718 72.9634L267.943 68.6387C267.754 68.1544 267.214 67.6811 266.685 67.9293C266.476 68.0115 266.301 68.1624 266.188 68.3574C266.075 68.5523 266.031 68.7799 266.064 69.0029C266.059 69.0035 266.054 69.0046 266.049 69.0061C266.046 69.008 266.043 69.0102 266.04 69.0127L265.749 68.2659C265.695 68.1276 265.611 68.0031 265.502 67.9015C265.394 67.7999 265.265 67.7237 265.124 67.6786C264.983 67.6334 264.833 67.6204 264.686 67.6405C264.54 67.6606 264.399 67.7133 264.275 67.7947C264.083 67.9268 263.941 68.1213 263.874 68.3454C263.808 68.5696 263.82 68.81 263.909 69.0263L264.033 69.3439C264.025 69.3518 264.019 69.3609 264.015 69.3709C263.881 69.1759 263.683 69.0347 263.455 68.9726C263.228 68.9106 262.985 68.9316 262.772 69.0319C262.541 69.149 262.363 69.3488 262.273 69.5916C262.183 69.8344 262.188 70.1023 262.286 70.3418L262.594 71.1313C262.582 71.1232 262.568 71.1181 262.553 71.1164C262.539 71.1148 262.524 71.1166 262.51 71.1218C262.494 71.1289 262.481 71.1404 262.471 71.155C262.304 71.0142 262.096 70.9322 261.878 70.9218C261.66 70.9113 261.444 70.973 261.265 71.0972C261.079 71.2315 260.943 71.4249 260.881 71.6459C260.818 71.867 260.831 72.1027 260.919 72.3151L263.516 78.9754C263.879 79.9072 264.512 80.709 265.333 81.278C266.154 81.8471 267.125 82.1575 268.123 82.1694C268.984 82.1796 269.815 81.8531 270.439 81.2592C271.063 80.6654 271.432 79.851 271.467 78.9891L271.508 77.9399Z" fill="#E98862"/>
<g opacity="0.2">
<path d="M267.799 73.2929C267.776 73.3016 267.751 73.3012 267.729 73.2916C267.707 73.2821 267.69 73.2642 267.68 73.2419L265.999 69.1266C265.994 69.1153 265.991 69.103 265.99 69.0905C265.99 69.078 265.992 69.0655 265.997 69.0539C266.001 69.0422 266.008 69.0316 266.017 69.0227C266.025 69.0138 266.036 69.0067 266.047 69.002C266.059 68.9972 266.071 68.9949 266.084 68.9951C266.096 68.9954 266.109 68.9981 266.12 69.0033C266.131 69.0084 266.142 69.0158 266.15 69.025C266.159 69.0343 266.165 69.0451 266.169 69.0569L267.851 73.1722C267.855 73.1834 267.858 73.1954 267.857 73.2075C267.857 73.2196 267.855 73.2316 267.85 73.2427C267.846 73.2539 267.839 73.264 267.83 73.2725C267.822 73.281 267.811 73.2878 267.8 73.2923L267.799 73.2929Z" fill="#0C0C0C"/>
</g>
<g opacity="0.2">
<path d="M266.007 74.0861C265.985 74.0949 265.96 74.0944 265.937 74.0848C265.915 74.0752 265.898 74.0572 265.889 74.0348L264.012 69.442C264.003 69.4196 264.004 69.3946 264.013 69.3724C264.023 69.3502 264.04 69.3326 264.063 69.3234C264.085 69.3154 264.11 69.3161 264.131 69.3254C264.153 69.3347 264.171 69.3518 264.181 69.3735L266.057 73.9663C266.067 73.9889 266.066 74.0143 266.057 74.0368C266.048 74.0593 266.03 74.0771 266.007 74.0864V74.0861Z" fill="#0C0C0C"/>
</g>
<g opacity="0.2">
<path d="M264.073 74.9567C264.051 74.9655 264.026 74.965 264.004 74.9554C263.981 74.9458 263.964 74.9278 263.955 74.9054L262.458 71.2421C262.449 71.2195 262.449 71.1942 262.458 71.1717C262.468 71.1492 262.486 71.1313 262.508 71.1221C262.531 71.1128 262.556 71.113 262.578 71.1224C262.601 71.1318 262.619 71.1498 262.628 71.1724L264.126 74.8348C264.135 74.8574 264.135 74.8828 264.125 74.9053C264.116 74.9278 264.098 74.9457 264.075 74.9549L264.073 74.9567Z" fill="#0C0C0C"/>
</g>
<path d="M292.307 87.8138L277.016 111.377C276.459 112.233 275.714 112.951 274.838 113.474C273.535 112.753 272.278 111.953 271.073 111.078C268.504 109.22 266.184 107.042 264.167 104.594L260.955 79.6351L273.809 77.5708L275.274 89.5849L281.147 80.5361L292.307 87.8138Z" fill="#B9FF66"/>
<path d="M294.1 68.9499C295.503 69.0433 296.897 68.6654 298.061 67.8761C298.101 67.8489 298.149 67.8338 298.197 67.8326C298.246 67.8314 298.294 67.8441 298.336 67.8692C298.377 67.8943 298.411 67.9307 298.433 67.9744C298.455 68.018 298.464 68.0669 298.459 68.1154C298.365 68.9457 297.956 70.473 296.217 70.6675C295.095 70.793 294.282 69.9291 293.872 69.3547C293.844 69.3149 293.827 69.2679 293.825 69.2191C293.822 69.1704 293.833 69.1219 293.857 69.0793C293.881 69.0368 293.917 69.002 293.96 68.9791C294.003 68.9562 294.052 68.946 294.1 68.9499Z" fill="white"/>
<path d="M325.005 99.5049C322.746 103.41 319.8 106.873 316.31 109.726C315.5 110.386 314.663 111.014 313.8 111.608L307.828 88.8355L321.278 85.2896L325.005 99.5049Z" fill="#B9FF66"/>
<path d="M313.931 111.519C313.889 111.547 313.843 111.578 313.801 111.608C313.759 111.638 313.715 111.667 313.673 111.695L309.121 94.3465L309.408 94.2715L313.931 111.519Z" fill="#F3F3F3"/>
<path d="M281.314 105.599C281.277 105.597 281.242 105.582 281.216 105.556C281.19 105.53 281.174 105.494 281.173 105.457L280.879 98.9925C280.877 98.9532 280.891 98.9148 280.918 98.8857C280.944 98.8566 280.981 98.8393 281.02 98.8376C281.06 98.8358 281.098 98.8497 281.127 98.8763C281.156 98.9028 281.173 98.9398 281.175 98.9792L281.468 105.444C281.47 105.483 281.456 105.522 281.43 105.551C281.403 105.58 281.366 105.597 281.327 105.599H281.314Z" fill="#F3F3F3"/>
<path d="M170.697 165.423C191.633 165.423 208.604 148.413 208.604 127.43C208.604 106.447 191.633 89.437 170.697 89.437C149.762 89.437 132.791 106.447 132.791 127.43C132.791 148.413 149.762 165.423 170.697 165.423Z" fill="white"/>
<path opacity="0.09" d="M208.605 127.429C208.605 134.943 206.381 142.289 202.216 148.536C198.051 154.784 192.131 159.654 185.205 162.53C178.278 165.405 170.657 166.157 163.304 164.692C155.951 163.226 149.197 159.607 143.895 154.294C138.594 148.98 134.984 142.211 133.521 134.841C132.059 127.471 132.809 119.832 135.678 112.89C138.547 105.948 143.406 100.014 149.639 95.8392C155.873 91.6645 163.202 89.4363 170.699 89.4363C175.682 89.4178 180.619 90.3879 185.227 92.2907C189.834 94.1935 194.02 96.9913 197.543 100.523C201.067 104.055 203.858 108.25 205.757 112.868C207.655 117.486 208.623 122.434 208.605 127.429Z" fill="#367CFF"/>
<path d="M153.919 105.021C153.919 105.021 153.538 110.756 152.25 112.837C148.544 118.828 147.47 125.567 151.182 129.088C154.893 132.61 178.567 132.658 180.36 124.56C181.869 117.742 178.63 117.009 177.841 111.385C177.485 108.84 176.503 103.504 176.503 103.504" fill="#0A0A0A"/>
<path d="M174.232 123.372C174.191 123.366 173.737 130.908 164.996 130.252C158.945 129.797 156.787 123.362 156.648 123.362C157.301 123.223 158.399 123.021 158.69 122.866C159.643 122.353 160.822 121.819 161.129 119.964C161.306 118.897 161.006 113.426 161.099 112.345L170.388 114.423C170.259 116.706 169.35 122.003 172.534 122.94C173.062 123.094 173.633 123.236 174.232 123.372Z" fill="#E98862"/>
<path opacity="0.5" d="M170.518 120.775C170.373 120.305 170.279 119.82 170.239 119.33C170.137 118.21 170.157 117.083 170.299 115.969C168.411 115.713 166.633 114.933 165.166 113.715C164.993 114.353 164.044 117.143 164.308 117.75C164.805 118.896 167.136 120.775 170.518 120.775Z" fill="#0C0C0C"/>
<path d="M169.316 118.425C165.653 118.781 160.915 117.312 159.934 112.424L159.048 108.013C158.066 103.125 159.832 98.6457 164.424 97.7196C169.016 96.7931 173.244 100.062 174.225 104.952L174.618 106.904C174.994 108.78 175.85 117.792 169.316 118.425Z" fill="#E98862"/>
<path opacity="0.1" d="M166.989 112.021C167.592 111.949 168.038 111.531 167.985 111.088C167.932 110.645 167.401 110.344 166.798 110.416C166.196 110.488 165.75 110.906 165.803 111.349C165.855 111.792 166.387 112.093 166.989 112.021Z" fill="#0C0C0C"/>
<path opacity="0.1" d="M173.356 110.248C173.41 110.69 173.941 110.989 174.544 110.919C174.648 110.907 174.75 110.884 174.85 110.85C174.878 110.322 174.879 109.815 174.864 109.345C174.697 109.303 174.523 109.293 174.352 109.315C173.749 109.386 173.304 109.804 173.356 110.248Z" fill="#0C0C0C"/>
<path opacity="0.5" d="M170.693 111.616H170.702C170.888 111.576 171.072 111.527 171.252 111.467C171.522 111.378 171.873 111.229 171.826 110.984C171.77 110.706 170.405 107.854 170.249 107.53C170.235 107.503 170.211 107.483 170.182 107.474C170.153 107.465 170.122 107.467 170.094 107.48C170.067 107.493 170.046 107.516 170.035 107.545C170.024 107.573 170.025 107.604 170.036 107.632C170.618 108.848 171.556 110.843 171.594 111.031C171.564 111.118 171.117 111.289 170.655 111.383C170.626 111.389 170.6 111.407 170.583 111.432C170.567 111.457 170.56 111.488 170.565 111.517C170.57 111.547 170.586 111.574 170.609 111.592C170.633 111.611 170.663 111.619 170.693 111.616V111.616Z" fill="#0C0C0C"/>
<path d="M155.385 109.596L159.502 108.79C162.611 107.485 163.494 102.055 163.494 102.055C163.494 102.055 167.331 105.718 176.504 103.503C176.504 103.503 174.511 90.6692 160.968 94.5648C156.6 95.8207 153.507 100.282 153.967 106.192C154.289 110.334 155.385 109.596 155.385 109.596Z" fill="#0A0A0A"/>
<path d="M160.518 113.855C159.123 114.137 157.691 112.869 157.411 111.47C157.132 110.071 158.107 109.071 159.502 108.79L160.409 109.582L161.719 113.613L160.518 113.855Z" fill="#E98862"/>
<path d="M171.239 105.256C171.588 105.008 171.996 104.857 172.422 104.82C172.636 104.799 172.852 104.811 173.062 104.855C173.274 104.898 173.48 104.968 173.675 105.063L173.681 105.065C173.703 105.074 173.727 105.074 173.748 105.066C173.77 105.057 173.787 105.041 173.797 105.02C173.807 104.999 173.809 104.975 173.801 104.953C173.794 104.931 173.779 104.912 173.758 104.901C173.552 104.792 173.332 104.709 173.105 104.655C172.877 104.599 172.641 104.578 172.406 104.593C171.931 104.619 171.471 104.773 171.075 105.038C171.059 105.047 171.046 105.06 171.036 105.075C171.025 105.09 171.018 105.107 171.014 105.125C171.011 105.143 171.011 105.161 171.014 105.179C171.018 105.197 171.025 105.214 171.035 105.229C171.046 105.244 171.059 105.257 171.074 105.267C171.089 105.277 171.107 105.284 171.124 105.287C171.142 105.29 171.161 105.289 171.178 105.285C171.196 105.281 171.213 105.273 171.228 105.262L171.231 105.26L171.239 105.256Z" fill="#0C0C0C"/>
<path d="M167.479 105.776C167.011 105.683 166.527 105.717 166.078 105.876C165.855 105.952 165.646 106.062 165.456 106.202C165.267 106.339 165.096 106.5 164.947 106.68C164.932 106.698 164.924 106.721 164.926 106.744C164.927 106.768 164.938 106.79 164.955 106.806C164.973 106.821 164.995 106.83 165.019 106.829C165.042 106.829 165.065 106.819 165.081 106.802L165.086 106.797C165.229 106.635 165.393 106.491 165.572 106.37C165.75 106.248 165.945 106.154 166.15 106.091C166.558 105.963 166.993 105.945 167.41 106.04L167.42 106.042C167.438 106.047 167.456 106.048 167.474 106.046C167.492 106.043 167.509 106.037 167.525 106.028C167.54 106.018 167.554 106.006 167.565 105.992C167.575 105.977 167.583 105.96 167.587 105.943C167.592 105.925 167.592 105.907 167.589 105.889C167.586 105.871 167.58 105.854 167.57 105.839C167.561 105.823 167.548 105.81 167.534 105.8C167.519 105.789 167.502 105.782 167.484 105.778L167.479 105.776Z" fill="#0C0C0C"/>
<path d="M159.504 108.723C162.271 107.69 163.189 105.775 163.472 104.349C163.655 103.399 163.638 102.42 163.422 101.477L163.336 101.5C163.549 102.432 163.566 103.397 163.384 104.335C163.105 105.737 162.201 107.622 159.473 108.639L159.504 108.723Z" fill="#0C0C0C"/>
<path d="M194.491 121.869L196.148 116.235C196.184 116.111 196.246 115.996 196.329 115.898C196.412 115.799 196.515 115.719 196.63 115.662C196.746 115.606 196.872 115.574 197.001 115.569C197.129 115.564 197.258 115.586 197.377 115.633C197.596 115.727 197.772 115.899 197.87 116.116C197.969 116.333 197.984 116.579 197.913 116.806L197.558 118.014L200.414 114.729C200.725 114.358 201.343 114.102 201.735 114.48C201.896 114.615 202.006 114.801 202.047 115.007C202.089 115.213 202.059 115.427 201.964 115.614C201.968 115.616 201.972 115.618 201.975 115.621C201.978 115.624 201.98 115.627 201.982 115.63L202.462 115.058C202.551 114.952 202.662 114.867 202.788 114.81C202.914 114.753 203.05 114.724 203.189 114.727C203.327 114.729 203.462 114.763 203.586 114.824C203.709 114.886 203.818 114.975 203.903 115.084C204.033 115.258 204.1 115.472 204.092 115.69C204.084 115.908 204.002 116.116 203.859 116.28L203.655 116.524C203.659 116.533 203.662 116.543 203.662 116.553C203.838 116.421 204.056 116.356 204.275 116.369C204.495 116.383 204.702 116.474 204.861 116.627C205.03 116.8 205.127 117.029 205.134 117.271C205.141 117.512 205.057 117.747 204.899 117.929L204.392 118.533C204.405 118.53 204.419 118.529 204.432 118.532C204.445 118.535 204.458 118.541 204.468 118.55C204.48 118.561 204.489 118.575 204.493 118.591C204.682 118.517 204.891 118.507 205.087 118.564C205.282 118.621 205.454 118.74 205.575 118.904C205.699 119.078 205.76 119.289 205.75 119.503C205.739 119.717 205.656 119.921 205.516 120.082L201.236 125.183C200.637 125.896 199.84 126.414 198.945 126.67C198.051 126.926 197.101 126.909 196.216 126.62C195.454 126.371 194.818 125.834 194.445 125.123C194.071 124.412 193.989 123.582 194.215 122.811L194.491 121.869Z" fill="#E98862"/>
<g opacity="0.2">
<path d="M199.151 118.881C199.168 118.895 199.19 118.901 199.212 118.899C199.234 118.898 199.255 118.887 199.269 118.871L201.981 115.743C201.996 115.726 202.004 115.703 202.002 115.681C202.001 115.658 201.99 115.637 201.973 115.622C201.956 115.607 201.933 115.6 201.911 115.601C201.888 115.603 201.867 115.613 201.852 115.631L199.14 118.758C199.133 118.767 199.127 118.777 199.124 118.787C199.12 118.798 199.119 118.809 199.119 118.82C199.12 118.832 199.123 118.843 199.128 118.853C199.133 118.863 199.14 118.872 199.149 118.879L199.151 118.881Z" fill="#0C0C0C"/>
</g>
<g opacity="0.2">
<path d="M200.495 120.118C200.512 120.132 200.534 120.138 200.556 120.137C200.578 120.135 200.598 120.124 200.613 120.108L203.64 116.617C203.647 116.609 203.653 116.599 203.656 116.588C203.66 116.578 203.661 116.566 203.66 116.555C203.66 116.544 203.657 116.533 203.651 116.523C203.646 116.513 203.639 116.504 203.631 116.496C203.614 116.482 203.591 116.475 203.569 116.477C203.547 116.478 203.526 116.488 203.51 116.505L200.486 119.995C200.478 120.004 200.473 120.014 200.469 120.024C200.466 120.035 200.464 120.046 200.465 120.058C200.466 120.069 200.469 120.08 200.474 120.09C200.479 120.1 200.486 120.109 200.494 120.116L200.495 120.118Z" fill="#0C0C0C"/>
</g>
<g opacity="0.2">
<path d="M201.942 121.466C201.959 121.48 201.981 121.487 202.003 121.485C202.025 121.483 202.046 121.473 202.06 121.456L204.475 118.672C204.488 118.655 204.495 118.633 204.492 118.611C204.49 118.589 204.48 118.569 204.463 118.554C204.447 118.54 204.425 118.532 204.403 118.533C204.381 118.534 204.361 118.543 204.345 118.559L201.931 121.344C201.924 121.352 201.918 121.362 201.915 121.373C201.911 121.383 201.91 121.395 201.91 121.406C201.911 121.417 201.914 121.428 201.919 121.438C201.924 121.448 201.931 121.457 201.94 121.465L201.942 121.466Z" fill="#0C0C0C"/>
</g>
<path d="M204.574 124.329L198.169 153.457C198.154 153.522 198.139 153.59 198.121 153.656C196.683 155.165 195.124 156.554 193.461 157.81C193.127 158.06 192.793 158.306 192.449 158.543C192.237 158.567 192.024 158.578 191.81 158.578C190.668 158.578 189.547 158.277 188.558 157.705C187.569 157.133 186.748 156.31 186.177 155.319L173.969 134.147L185.242 127.62L189.061 134.245L191.86 121.52L204.574 124.329Z" fill="#B9FF66"/>
<path d="M184.86 137.609C184.822 138.071 184.745 138.896 184.638 139.981C184.106 145.53 182.86 157.896 182.283 163.611C174.994 165.946 167.172 166.026 159.838 163.839H159.835C154.418 162.214 149.434 159.393 145.248 155.583C145.272 150.473 145.198 144.726 144.855 141.031C143.828 129.99 144.798 128.261 146.393 126.663C146.523 126.532 146.659 126.405 146.796 126.28C148.444 124.78 150.512 123.801 153.527 123.392C155.521 123.122 158.521 122.926 158.521 122.926C158.521 122.926 158.776 128.08 164.832 128.365C173.078 128.754 172.528 122.926 172.569 122.926C174.644 122.926 179.259 123.057 182.171 124.542C182.174 124.542 182.174 124.542 182.177 124.545C182.763 124.831 183.296 125.216 183.754 125.681C187.088 129.222 185.443 130.736 184.86 137.609Z" fill="#B9FF66"/>
<path d="M171.92 112.579C170.73 113.185 169.373 113.377 168.062 113.124C168.017 113.115 167.97 113.12 167.927 113.137C167.884 113.154 167.847 113.183 167.82 113.221C167.792 113.258 167.777 113.303 167.774 113.349C167.771 113.395 167.782 113.441 167.804 113.481C168.195 114.172 169.122 115.352 170.712 114.871C171.738 114.56 172.127 113.502 172.27 112.847C172.28 112.801 172.277 112.754 172.261 112.71C172.245 112.667 172.217 112.629 172.181 112.601C172.144 112.573 172.1 112.556 172.054 112.552C172.007 112.548 171.961 112.557 171.92 112.579Z" fill="white"/>
<path d="M171.995 107.275C172.312 107.275 172.57 107.017 172.57 106.699C172.57 106.381 172.312 106.123 171.995 106.123C171.677 106.123 171.42 106.381 171.42 106.699C171.42 107.017 171.677 107.275 171.995 107.275Z" fill="#0C0C0C"/>
<path d="M166.469 108.244C166.787 108.244 167.044 107.986 167.044 107.668C167.044 107.35 166.787 107.092 166.469 107.092C166.152 107.092 165.895 107.35 165.895 107.668C165.895 107.986 166.152 108.244 166.469 108.244Z" fill="#0C0C0C"/>
<path d="M183.588 150.048C183.584 150.048 183.58 150.048 183.577 150.048C183.553 150.045 183.532 150.033 183.518 150.014C183.504 149.995 183.498 149.971 183.501 149.948L184.517 139.684C184.519 139.673 184.522 139.661 184.528 139.651C184.534 139.641 184.542 139.632 184.551 139.625C184.561 139.618 184.571 139.613 184.583 139.61C184.594 139.607 184.606 139.607 184.617 139.609C184.641 139.612 184.662 139.624 184.676 139.643C184.69 139.662 184.696 139.685 184.693 139.709L183.677 149.972C183.674 149.994 183.663 150.013 183.647 150.027C183.63 150.041 183.609 150.048 183.588 150.048Z" fill="#F3F3F3"/>
<path d="M177.437 149.554L182.992 147.067C183.114 147.013 183.246 146.984 183.38 146.984C183.513 146.983 183.645 147.011 183.768 147.064C183.89 147.117 184 147.196 184.091 147.294C184.181 147.392 184.251 147.508 184.294 147.635C184.367 147.871 184.35 148.126 184.246 148.351C184.142 148.575 183.959 148.753 183.732 148.849L182.541 149.383L187.055 149.43C187.558 149.426 188.175 149.744 188.142 150.308C188.143 150.526 188.071 150.738 187.937 150.91C187.802 151.082 187.614 151.203 187.402 151.253C187.403 151.258 187.404 151.262 187.404 151.267C187.404 151.271 187.403 151.275 187.402 151.278L188.176 151.273C188.319 151.272 188.461 151.303 188.591 151.364C188.72 151.425 188.835 151.514 188.926 151.624C189.017 151.735 189.082 151.865 189.117 152.004C189.152 152.143 189.155 152.289 189.127 152.429C189.077 152.65 188.954 152.847 188.776 152.988C188.599 153.128 188.38 153.203 188.154 153.2L187.825 153.203C187.82 153.212 187.814 153.221 187.807 153.229C188.03 153.279 188.228 153.407 188.365 153.59C188.502 153.773 188.57 153.999 188.557 154.227C188.535 154.477 188.419 154.709 188.234 154.877C188.049 155.045 187.807 155.137 187.557 155.135L186.739 155.14C186.75 155.148 186.76 155.159 186.767 155.172C186.773 155.184 186.777 155.198 186.777 155.212C186.776 155.229 186.771 155.245 186.761 155.259C186.948 155.359 187.096 155.518 187.183 155.711C187.271 155.904 187.293 156.12 187.246 156.327C187.192 156.542 187.067 156.734 186.891 156.869C186.716 157.005 186.5 157.078 186.278 157.075L179.375 157.124C178.41 157.131 177.464 156.849 176.659 156.313C175.855 155.778 175.228 155.014 174.86 154.119C174.542 153.348 174.536 152.483 174.845 151.707C175.153 150.932 175.751 150.308 176.512 149.968L177.437 149.554Z" fill="#E98862"/>
<g opacity="0.2">
<path d="M182.936 151.229C182.936 151.252 182.945 151.275 182.962 151.292C182.978 151.308 183.001 151.318 183.024 151.318L187.317 151.356C187.34 151.357 187.363 151.347 187.38 151.331C187.397 151.314 187.406 151.292 187.406 151.268C187.407 151.245 187.397 151.222 187.381 151.205C187.364 151.188 187.342 151.179 187.318 151.179L183.025 151.14C183.002 151.14 182.979 151.149 182.962 151.166C182.946 151.182 182.936 151.205 182.936 151.229H182.936Z" fill="#0C0C0C"/>
</g>
<g opacity="0.2">
<path d="M182.866 153.127C182.866 153.15 182.875 153.173 182.892 153.189C182.908 153.206 182.931 153.216 182.954 153.216L187.745 153.259C187.768 153.259 187.791 153.249 187.807 153.233C187.824 153.216 187.833 153.193 187.833 153.17C187.833 153.146 187.823 153.124 187.807 153.108C187.79 153.091 187.768 153.082 187.745 153.081L182.954 153.038C182.93 153.038 182.908 153.047 182.891 153.064C182.875 153.08 182.866 153.103 182.866 153.127Z" fill="#0C0C0C"/>
</g>
<g opacity="0.2">
<path d="M182.777 155.179C182.777 155.203 182.787 155.226 182.803 155.242C182.82 155.259 182.843 155.268 182.866 155.268L186.687 155.303C186.711 155.303 186.733 155.294 186.75 155.277C186.767 155.26 186.776 155.238 186.776 155.214C186.776 155.191 186.767 155.168 186.75 155.151C186.733 155.135 186.711 155.125 186.687 155.125L182.866 155.091C182.843 155.091 182.82 155.1 182.803 155.117C182.787 155.134 182.777 155.156 182.777 155.18V155.179Z" fill="#0C0C0C"/>
</g>
<path d="M179.028 159.468L159.838 163.839H159.835C154.418 162.214 149.434 159.393 145.248 155.583C144.798 155.174 144.358 154.754 143.928 154.325C143.179 153.575 142.462 152.795 141.777 151.986L144.464 130.325C144.757 128.579 145.73 127.021 147.169 125.994C148.608 124.968 150.395 124.556 152.138 124.849C153.88 125.143 155.434 126.119 156.458 127.561C157.483 129.003 157.894 130.794 157.601 132.541L155.903 152.878L177.3 148.023L179.028 159.468Z" fill="#B9FF66"/>
<path d="M151.572 153.677C151.561 153.678 151.549 153.677 151.538 153.673C151.527 153.669 151.516 153.664 151.508 153.656C151.499 153.648 151.491 153.639 151.486 153.629C151.481 153.618 151.478 153.607 151.477 153.595C151.476 153.583 151.477 153.572 151.481 153.561C151.485 153.549 151.49 153.539 151.498 153.53C151.506 153.521 151.515 153.514 151.525 153.509C151.536 153.503 151.547 153.5 151.559 153.499L155.849 152.58C155.861 152.578 155.872 152.579 155.884 152.582C155.895 152.584 155.906 152.59 155.915 152.596C155.925 152.603 155.933 152.612 155.939 152.622C155.945 152.632 155.949 152.643 155.95 152.655C155.952 152.666 155.951 152.678 155.949 152.69C155.946 152.701 155.941 152.712 155.934 152.721C155.927 152.73 155.918 152.738 155.908 152.744C155.898 152.75 155.887 152.754 155.875 152.756L151.584 153.675C151.58 153.676 151.576 153.677 151.572 153.677Z" fill="#F3F3F3"/>
<path d="M179.029 159.468C179.034 159.491 179.03 159.514 179.018 159.534C179.005 159.554 178.986 159.568 178.964 159.575L160.321 163.978C160.202 163.945 160.087 163.913 159.971 163.877L178.834 159.426L177.153 148.157L155.882 152.756C155.869 152.759 155.854 152.758 155.841 152.754C155.828 152.75 155.816 152.743 155.805 152.733C155.797 152.722 155.79 152.71 155.786 152.697C155.782 152.684 155.78 152.67 155.782 152.656L156.974 141.034C156.976 141.022 156.981 141.011 156.987 141.002C156.993 140.992 157.001 140.983 157.011 140.977C157.021 140.97 157.032 140.965 157.043 140.963C157.054 140.96 157.066 140.96 157.078 140.962C157.101 140.966 157.122 140.979 157.135 140.998C157.149 141.017 157.155 141.04 157.152 141.064L155.977 152.567L177.191 147.958C177.203 147.955 177.215 147.955 177.227 147.957C177.239 147.959 177.25 147.963 177.26 147.97C177.27 147.976 177.279 147.983 177.286 147.993C177.293 148.002 177.298 148.012 177.301 148.023L179.029 159.468Z" fill="#F3F3F3"/>
<path d="M34.758 209.198C53.9543 209.198 69.5159 193.601 69.5159 174.361C69.5159 155.12 53.9543 139.523 34.758 139.523C15.5617 139.523 0 155.12 0 174.361C0 193.601 15.5617 209.198 34.758 209.198Z" fill="white"/>
<path opacity="0.09" d="M34.758 209.198C53.9543 209.198 69.5159 193.601 69.5159 174.361C69.5159 155.12 53.9543 139.523 34.758 139.523C15.5617 139.523 0 155.12 0 174.361C0 193.601 15.5617 209.198 34.758 209.198Z" fill="#367CFF"/>
<path d="M25.1836 154.601C25.1836 154.601 25.5602 165.094 32.5474 165.576L33.7309 151.74L25.1836 154.601Z" fill="#0A0A0A"/>
<path d="M26.53 167.719C28.816 167.719 30.6693 165.862 30.6693 163.57C30.6693 161.279 28.816 159.421 26.53 159.421C24.2439 159.421 22.3906 161.279 22.3906 163.57C22.3906 165.862 24.2439 167.719 26.53 167.719Z" fill="#0A0A0A"/>
<path d="M42.7253 170.446C42.6883 170.44 42.2794 177.244 34.3937 176.651C28.9344 176.242 26.9881 170.437 26.8633 170.437C27.4871 170.333 28.1025 170.183 28.7045 169.989C29.5641 169.526 30.6277 169.045 30.9047 167.371C31.0645 166.407 30.7937 161.473 30.8769 160.498L39.2567 162.372C39.1384 164.433 38.32 169.21 41.1924 170.056C41.6699 170.196 42.1847 170.324 42.7253 170.446Z" fill="#E98862"/>
<path opacity="0.5" d="M39.3747 168.103C39.2434 167.678 39.1588 167.241 39.1226 166.798C39.0306 165.788 39.049 164.772 39.1774 163.766C37.4742 163.536 35.8696 162.831 34.546 161.732C34.3904 162.308 33.5347 164.825 33.7717 165.372C34.2196 166.409 36.3242 168.103 39.3747 168.103Z" fill="#0C0C0C"/>
<path d="M38.0629 166.27C34.744 166.312 30.5949 164.633 30.0807 160.165L29.6168 156.132C29.1022 151.663 31.0269 147.769 35.2248 147.285C39.4224 146.8 42.9768 150.059 43.4914 154.528L43.6967 156.313C43.8941 158.028 43.9846 166.194 38.0629 166.27Z" fill="#E98862"/>
<path d="M42.4912 156.193C42.7786 156.193 43.0116 155.96 43.0116 155.672C43.0116 155.383 42.7786 155.15 42.4912 155.15C42.2037 155.15 41.9707 155.383 41.9707 155.672C41.9707 155.96 42.2037 156.193 42.4912 156.193Z" fill="#0C0C0C"/>
<path d="M37.1728 156.803C37.4602 156.803 37.6932 156.569 37.6932 156.281C37.6932 155.993 37.4602 155.76 37.1728 155.76C36.8854 155.76 36.6523 155.993 36.6523 156.281C36.6523 156.569 36.8854 156.803 37.1728 156.803Z" fill="#0C0C0C"/>
<path opacity="0.5" d="M39.8126 160.253H39.8209C39.991 160.232 40.1598 160.201 40.3265 160.162C40.5757 160.101 40.9041 159.994 40.8784 159.771C40.8488 159.516 39.8372 156.849 39.7218 156.546C39.7168 156.533 39.7092 156.521 39.6996 156.511C39.69 156.501 39.6785 156.493 39.6657 156.487C39.6529 156.481 39.6392 156.478 39.6252 156.478C39.6112 156.477 39.5973 156.48 39.5842 156.485C39.5711 156.49 39.5591 156.497 39.549 156.507C39.5388 156.516 39.5306 156.528 39.5249 156.541C39.5192 156.554 39.5161 156.567 39.5157 156.581C39.5153 156.595 39.5176 156.609 39.5226 156.622C39.9543 157.758 40.647 159.624 40.6665 159.796C40.4002 159.946 40.1018 160.03 39.7963 160.041C39.7682 160.043 39.742 160.056 39.7236 160.078C39.7052 160.099 39.6961 160.127 39.6982 160.155C39.7004 160.183 39.7137 160.21 39.7351 160.228C39.7566 160.247 39.7844 160.256 39.8126 160.253V160.253Z" fill="#0C0C0C"/>
<path opacity="0.5" d="M39.0635 162.112C39.7453 162.073 40.4084 161.874 40.9994 161.531C41.0227 161.517 41.0395 161.494 41.0464 161.467C41.0533 161.441 41.0498 161.412 41.0365 161.388C41.0233 161.364 41.0013 161.346 40.9752 161.338C40.949 161.33 40.9208 161.332 40.8961 161.344C39.6197 162.052 38.3989 162.093 37.3663 161.463C37.3455 161.449 37.3239 161.437 37.3018 161.426C37.2762 161.416 37.2478 161.416 37.2224 161.427C37.197 161.437 37.1766 161.457 37.1655 161.482C37.1543 161.507 37.1532 161.536 37.1625 161.562C37.1717 161.587 37.1906 161.609 37.2151 161.621C37.2231 161.625 37.2367 161.634 37.2554 161.645C37.7983 161.978 38.4278 162.14 39.0635 162.112Z" fill="#0C0C0C"/>
<path d="M26.2021 157.278L29.9635 156.865C32.8569 155.929 34.0591 151.112 34.0591 151.112C34.0591 151.112 36.6519 154.067 44.3352 152.718C44.3352 152.718 44.0376 142.79 32.3522 144.188C28.2836 144.675 25.2156 148.764 25.1839 154.112C25.162 157.858 26.2021 157.278 26.2021 157.278Z" fill="#0A0A0A"/>
<path d="M30.4985 161.496C29.2227 161.645 28.0312 160.396 27.8841 159.117C27.7371 157.838 28.6898 157.014 29.9656 156.866L30.7216 157.647L31.5953 161.369L30.4985 161.496Z" fill="#E98862"/>
<path d="M40.6517 154.369C41.028 154.161 41.4533 154.057 41.8832 154.069C42.0954 154.074 42.3058 154.111 42.5072 154.178C42.7072 154.244 42.8982 154.335 43.0756 154.449C43.0933 154.46 43.106 154.478 43.111 154.498C43.1161 154.519 43.113 154.541 43.1025 154.559C43.092 154.577 43.0749 154.591 43.0547 154.597C43.0346 154.602 43.0129 154.6 42.9942 154.591L42.9889 154.588C42.8208 154.488 42.6409 154.409 42.4533 154.354C42.2675 154.299 42.0744 154.272 41.8805 154.274C41.4947 154.276 41.1163 154.38 40.7837 154.576L40.7757 154.581C40.762 154.59 40.7465 154.596 40.7303 154.599C40.7142 154.602 40.6976 154.602 40.6815 154.598C40.6655 154.595 40.6503 154.588 40.637 154.578C40.6236 154.569 40.6123 154.556 40.6038 154.542C40.5952 154.528 40.5896 154.513 40.5872 154.496C40.5848 154.48 40.5858 154.463 40.5899 154.447C40.5941 154.432 40.6014 154.417 40.6115 154.404C40.6216 154.39 40.6341 154.38 40.6485 154.372L40.6517 154.369Z" fill="#0C0C0C"/>
<path d="M37.2816 154.991C36.9138 154.875 36.5216 154.858 36.1451 154.943C35.9555 154.984 35.7732 155.054 35.6045 155.15C35.434 155.246 35.2762 155.362 35.1347 155.497L35.1302 155.502C35.1142 155.513 35.0942 155.519 35.0743 155.517C35.0544 155.515 35.0358 155.506 35.0221 155.492C35.0084 155.477 35.0005 155.458 35 155.438C34.9995 155.418 35.0064 155.398 35.0193 155.383C35.1668 155.232 35.3326 155.101 35.5128 154.992C35.6942 154.881 35.891 154.798 36.0969 154.746C36.5132 154.638 36.9508 154.644 37.3641 154.763C37.3801 154.767 37.3951 154.774 37.4082 154.784C37.4213 154.794 37.4322 154.807 37.4404 154.821C37.4485 154.836 37.4536 154.851 37.4555 154.868C37.4574 154.884 37.4559 154.901 37.4512 154.917C37.4465 154.933 37.4386 154.947 37.4281 154.96C37.4176 154.973 37.4046 154.983 37.39 154.991C37.3753 154.998 37.3593 155.003 37.3429 155.004C37.3264 155.005 37.3099 155.003 37.2943 154.998H37.291L37.2816 154.991Z" fill="#0C0C0C"/>
<path opacity="0.52" d="M39.1354 163.123C39.2588 163.117 39.3815 163.102 39.5023 163.076C39.5292 163.069 39.5524 163.052 39.5671 163.029C39.5818 163.005 39.5868 162.977 39.5811 162.95C39.5754 162.923 39.5594 162.899 39.5364 162.883C39.5135 162.868 39.4855 162.862 39.4582 162.867C39.2696 162.922 39.0715 162.936 38.877 162.909C38.6825 162.881 38.4961 162.812 38.3303 162.706C38.3084 162.688 38.2803 162.68 38.2522 162.683C38.2241 162.686 38.1982 162.699 38.1803 162.721C38.1624 162.743 38.154 162.771 38.1568 162.8C38.1596 162.828 38.1735 162.854 38.1954 162.872C38.4704 163.062 38.8025 163.15 39.1354 163.123Z" fill="#0C0C0C"/>
<path opacity="0.1" d="M36.4519 160.335C36.9992 160.316 37.4314 159.974 37.4174 159.572C37.4033 159.17 36.9483 158.859 36.401 158.878C35.8538 158.898 35.4215 159.239 35.4356 159.642C35.4497 160.044 35.9047 160.354 36.4519 160.335Z" fill="#0C0C0C"/>
<path opacity="0.1" d="M42.3089 159.224C42.3242 159.626 42.779 159.936 43.3264 159.918C43.421 159.915 43.515 159.902 43.6069 159.879C43.6717 159.407 43.7113 158.95 43.7329 158.527C43.5856 158.477 43.4301 158.454 43.2746 158.461C42.7284 158.48 42.2964 158.82 42.3089 159.224Z" fill="#0C0C0C"/>
<path d="M54.5049 177.611C54.4812 179.987 53.6676 182.819 53.3776 186.241C53.3007 187.155 51.3446 189.797 51.0606 192.736C50.7026 196.478 51.4988 202.314 51.6053 204.838C46.1073 207.887 39.888 209.387 33.6079 209.178C27.3278 208.969 21.2214 207.06 15.9372 203.652C15.7952 197.169 15.6265 189.165 15.4105 187.246C14.7093 180.912 14.8987 176.906 15.9106 175.031C17.5645 171.971 20.5085 171.037 23.5886 170.616C25.4704 170.361 28.296 170.18 28.296 170.18C28.296 170.18 28.5357 175.034 34.2461 175.304C42.0188 175.672 41.5011 170.18 41.5395 170.18C44.3592 170.18 49.7028 170.856 51.7503 172.256C53.922 173.735 54.5315 175.491 54.5049 177.611Z" fill="#B9FF66"/>
<path d="M27.6508 181.306L17.1057 204.371C13.0569 201.975 9.53418 198.782 6.75 194.985L15.5465 175.744L27.6508 181.306Z" fill="#B9FF66"/>
<path d="M63.0221 194.636C60.9563 197.525 58.463 200.081 55.6281 202.216C54.6951 202.922 53.7263 203.58 52.7256 204.185L41.9023 180.336L54.0215 174.809L63.0221 194.636Z" fill="#B9FF66"/>
<path d="M107.095 72.7352C127.081 72.7352 143.283 56.4959 143.283 36.4638C143.283 16.4316 127.081 0.192383 107.095 0.192383C87.1084 0.192383 70.9062 16.4316 70.9062 36.4638C70.9062 56.4959 87.1084 72.7352 107.095 72.7352Z" fill="white"/>
<path opacity="0.09" d="M107.095 72.7352C127.081 72.7352 143.283 56.4959 143.283 36.4638C143.283 16.4316 127.081 0.192383 107.095 0.192383C87.1084 0.192383 70.9062 16.4316 70.9062 36.4638C70.9062 56.4959 87.1084 72.7352 107.095 72.7352Z" fill="#367CFF"/>
<path d="M114.09 14.744C114.09 14.744 116.382 12.2547 116.205 7.51334C116.068 3.84228 113.193 6.75831 113.193 6.75831C113.193 6.75831 113.068 4.116 111.24 4.71208C109.412 5.30816 108.85 8.20965 108.85 8.20965" fill="#0C0C0C"/>
<path d="M101.598 6.77344C101.598 6.77344 92.4721 9.46171 98.1192 21.4918L98.9527 21.3975L100.645 21.2065" fill="#0C0C0C"/>
<path d="M114.531 33.9702C114.49 33.9649 114.028 41.6391 105.133 40.9689C98.9755 40.5066 96.7798 33.9584 96.6387 33.9584C97.3026 33.8169 98.1231 33.6025 98.4491 33.5286C99.1599 33.3633 99.8035 32.985 100.294 32.4441C100.785 31.9032 101.1 31.2253 101.198 30.5005C101.378 29.4127 101.072 23.8476 101.166 22.7471L110.618 24.8615C110.486 27.1862 109.562 32.5749 112.802 33.5286C113.341 33.6867 113.922 33.832 114.531 33.9702Z" fill="#E98862"/>
<path opacity="0.52" d="M110.751 31.3269C110.604 30.8487 110.508 30.3556 110.467 29.8566C110.363 28.7178 110.384 27.571 110.529 26.4367C108.608 26.1768 106.798 25.382 105.305 24.1426C105.129 24.7923 104.164 27.6313 104.431 28.2487C104.937 29.4159 107.31 31.3269 110.751 31.3269Z" fill="#0C0C0C"/>
<path d="M109.21 28.883C105.482 29.219 100.669 27.692 99.7045 22.7111L98.8337 18.2168C97.8688 13.2346 99.6968 8.68993 104.376 7.7795C109.055 6.86878 113.334 10.2261 114.3 15.207L114.684 17.1966C114.805 17.882 114.879 18.5749 114.905 19.2704C114.988 21.1091 115.108 23.9035 114.226 25.9693C113.394 27.9201 111.592 28.6686 109.21 28.883Z" fill="#E98862"/>
<path opacity="0.5" d="M109.773 23.9589C110.455 23.9461 111.126 23.7725 111.729 23.4524C111.742 23.4465 111.754 23.4379 111.764 23.4273C111.774 23.4166 111.781 23.4041 111.786 23.3905C111.791 23.3769 111.793 23.3624 111.792 23.348C111.791 23.3336 111.787 23.3196 111.781 23.3067C111.774 23.2938 111.765 23.2823 111.754 23.273C111.743 23.2637 111.73 23.2567 111.716 23.2525C111.703 23.2483 111.688 23.2469 111.674 23.2484C111.66 23.25 111.646 23.2544 111.633 23.2614C110.331 23.9201 109.11 23.9139 108.101 23.2454C108.081 23.2313 108.06 23.2182 108.038 23.2063C108.026 23.2001 108.012 23.1964 107.998 23.1955C107.984 23.1946 107.97 23.1965 107.957 23.201C107.944 23.2056 107.932 23.2127 107.921 23.2219C107.91 23.2312 107.902 23.2425 107.896 23.2551C107.89 23.2677 107.886 23.2814 107.885 23.2954C107.884 23.3094 107.886 23.3234 107.89 23.3367C107.895 23.35 107.902 23.3623 107.911 23.3728C107.921 23.3833 107.932 23.392 107.944 23.3981C107.952 23.4026 107.965 23.4115 107.984 23.4236C108.514 23.7766 109.136 23.963 109.773 23.9589Z" fill="#0C0C0C"/>
<path opacity="0.52" d="M109.806 24.9723C109.929 24.972 110.052 24.961 110.174 24.9397C110.188 24.9373 110.201 24.9323 110.213 24.9248C110.225 24.9174 110.235 24.9076 110.243 24.8962C110.251 24.8847 110.257 24.8718 110.26 24.8581C110.263 24.8445 110.263 24.8303 110.261 24.8165C110.259 24.8027 110.254 24.7894 110.246 24.7776C110.239 24.7657 110.229 24.7554 110.218 24.7473C110.206 24.7392 110.193 24.7334 110.18 24.7303C110.166 24.7272 110.152 24.7268 110.138 24.7291C109.948 24.777 109.749 24.7836 109.556 24.7485C109.362 24.7134 109.179 24.6375 109.017 24.5257C108.996 24.5077 108.968 24.4987 108.941 24.5008C108.913 24.5028 108.887 24.5157 108.868 24.5367C108.85 24.5576 108.84 24.585 108.842 24.6129C108.843 24.6407 108.856 24.667 108.876 24.6859C109.144 24.8862 109.472 24.9875 109.806 24.9723Z" fill="#0C0C0C"/>
<path d="M113.179 18.4521C113.503 18.4521 113.766 18.1887 113.766 17.8638C113.766 17.5388 113.503 17.2754 113.179 17.2754C112.855 17.2754 112.592 17.5388 112.592 17.8638C112.592 18.1887 112.855 18.4521 113.179 18.4521Z" fill="#0C0C0C"/>
<path d="M107.472 19.1206C107.796 19.1206 108.059 18.8572 108.059 18.5322C108.059 18.2073 107.796 17.9438 107.472 17.9438C107.148 17.9438 106.885 18.2073 106.885 18.5322C106.885 18.8572 107.148 19.1206 107.472 19.1206Z" fill="#0C0C0C"/>
<path d="M100.288 24.1722C98.8661 24.4489 97.418 23.1485 97.1417 21.7232C96.8653 20.298 97.8663 19.2879 99.288 19.0112L100.205 19.8235L101.51 23.9343L100.288 24.1722Z" fill="#E98862"/>
<path d="M101.29 21.6195C101.29 21.6195 100.496 14.468 102.554 13.6442C103.925 13.0953 107.742 14.4926 110.829 13.3017C112.18 12.7803 113.57 12.8865 113.825 13.5244C113.925 13.7768 114.117 9.85066 111.41 7.38836C109.254 5.42813 103.432 5.82047 100.97 7.03813C94.1537 10.4097 99.0493 19.3748 99.0493 19.3748L99.8097 21.752L101.29 21.6195Z" fill="#0C0C0C"/>
<g opacity="0.52">
<path d="M110.646 22.1879H110.655C111.114 22.099 111.873 21.9012 111.809 21.5574C111.755 21.2725 110.389 18.3472 110.234 18.0148C110.228 18.0006 110.218 17.9879 110.207 17.9774C110.195 17.9669 110.182 17.9587 110.167 17.9534C110.152 17.9481 110.137 17.9457 110.121 17.9464C110.106 17.9471 110.09 17.9509 110.076 17.9576C110.062 17.9642 110.049 17.9736 110.039 17.9851C110.028 17.9967 110.02 18.0102 110.015 18.0249C110.01 18.0396 110.007 18.0552 110.008 18.0708C110.009 18.0864 110.012 18.1018 110.019 18.1159C110.624 19.4113 111.539 21.4077 111.576 21.6019C111.546 21.6909 111.087 21.8626 110.613 21.9536C110.581 21.9583 110.553 21.9753 110.534 22.0009C110.515 22.0264 110.507 22.0584 110.512 22.0899C110.517 22.1214 110.533 22.1497 110.559 22.1686C110.584 22.1876 110.616 22.1956 110.648 22.1909L110.646 22.1879Z" fill="#0C0C0C"/>
</g>
<path d="M110.971 15.02C111.43 14.7996 111.94 14.7074 112.447 14.7531C112.695 14.7741 112.939 14.8323 113.171 14.9257C113.399 15.0168 113.615 15.1363 113.814 15.2816C113.851 15.3072 113.876 15.3461 113.885 15.3901C113.894 15.4341 113.885 15.4799 113.861 15.5178C113.837 15.5556 113.799 15.5826 113.756 15.593C113.712 15.6035 113.666 15.5965 113.627 15.5737L113.614 15.569C113.434 15.4537 113.24 15.3615 113.037 15.2946C112.838 15.2278 112.629 15.1918 112.418 15.1876C112.004 15.176 111.593 15.2745 111.228 15.4732L111.213 15.4818C111.184 15.4988 111.151 15.5097 111.117 15.514C111.083 15.5183 111.049 15.5159 111.016 15.5069C110.983 15.4979 110.952 15.4824 110.925 15.4615C110.898 15.4405 110.875 15.4144 110.858 15.3847C110.842 15.3549 110.831 15.3221 110.826 15.2882C110.822 15.2542 110.824 15.2197 110.833 15.1867C110.842 15.1536 110.858 15.1227 110.879 15.0956C110.9 15.0686 110.926 15.0459 110.955 15.0289L110.971 15.02Z" fill="#0C0C0C"/>
<path d="M107.605 15.932C107.205 15.82 106.783 15.8156 106.381 15.9193C106.177 15.9702 105.982 16.0519 105.802 16.1616C105.619 16.272 105.45 16.405 105.299 16.5575L105.29 16.567C105.257 16.5984 105.214 16.6159 105.169 16.6158C105.123 16.6156 105.08 16.5978 105.048 16.5662C105.016 16.5345 104.997 16.4915 104.996 16.4462C104.995 16.401 105.012 16.3572 105.043 16.3241C105.204 16.1378 105.388 15.9727 105.59 15.8327C105.795 15.6899 106.02 15.5787 106.258 15.5026C106.496 15.4241 106.743 15.3786 106.993 15.3674C107.249 15.3533 107.506 15.3756 107.755 15.4338C107.823 15.4495 107.881 15.4914 107.917 15.5501C107.954 15.6088 107.965 15.6797 107.95 15.747C107.934 15.8143 107.892 15.8726 107.833 15.9091C107.775 15.9456 107.704 15.9572 107.637 15.9415L107.622 15.9374L107.605 15.932Z" fill="#0C0C0C"/>
<path d="M109.405 10.2826C110.42 9.87032 110.752 8.3222 110.147 6.82478C109.541 5.32735 108.228 4.44767 107.213 4.85995C106.198 5.27223 105.866 6.82035 106.471 8.31777C107.077 9.8152 108.39 10.6949 109.405 10.2826Z" fill="#0C0C0C"/>
<path d="M126.827 41.9006C126.862 44.359 125.904 47.1229 125.584 50.8654C125.519 51.6246 125.365 53.2972 125.161 55.4769C124.827 59.086 124.353 64.077 123.939 68.5757C118.015 71.6921 111.346 73.1039 104.671 72.6548C97.9958 72.2057 91.575 69.9132 86.1198 66.0313C85.9897 65.9334 85.8595 65.8385 85.7293 65.7466C85.3831 60.6607 84.9748 55.3227 84.602 51.9508C83.9008 45.655 82.9451 42.5204 83.4806 40.403C83.5235 40.2227 83.5809 40.0461 83.6522 39.8751C85.1938 36.1266 90.1024 34.4541 93.428 34.0033C95.4578 33.7275 98.5112 33.5288 98.5112 33.5288C98.5112 33.5288 98.7686 38.7719 104.932 39.0625C113.323 39.4599 112.764 33.5288 112.805 33.5288C114.163 33.5288 121.563 34.5193 123.412 35.7292C123.722 35.931 124.019 36.1529 124.3 36.3935C125.103 37.0652 125.747 37.9081 126.184 38.8608C126.621 39.8135 126.841 40.852 126.827 41.9006Z" fill="#B9FF66"/>
<path d="M95.932 45.7022L86.1207 66.031C85.9905 65.9332 85.8603 65.8383 85.7301 65.7463C81.9267 62.9511 78.7011 59.4422 76.2324 55.4144L83.4814 40.4027L83.7684 39.8066L95.932 45.7022Z" fill="#B9FF66"/>
<path d="M94.985 48.0423L86.0613 65.9868C86.0021 65.9423 85.9459 65.9008 85.8867 65.8623L94.7986 47.9503C94.8114 47.9254 94.8334 47.9065 94.8599 47.8976C94.8865 47.8887 94.9154 47.8906 94.9406 47.9029C94.9649 47.9155 94.9832 47.9372 94.9916 47.9634C94.9999 47.9895 94.9975 48.0179 94.985 48.0423Z" fill="white"/>
<path d="M140.231 51.067C138.452 55.1072 135.955 58.7892 132.86 61.9328L125.162 55.4768L115.383 47.2741L124.301 36.3935L124.327 36.3608L140.231 51.067Z" fill="#B9FF66"/>
<path d="M125.281 55.5556C125.306 55.5543 125.33 55.544 125.348 55.5265C125.366 55.509 125.377 55.4855 125.379 55.4604L125.887 49.4907C125.89 49.4631 125.881 49.4358 125.863 49.4146C125.846 49.3934 125.82 49.3801 125.793 49.3777C125.765 49.3757 125.738 49.3845 125.717 49.4023C125.696 49.42 125.683 49.4452 125.68 49.4726L125.172 55.4426C125.17 55.4701 125.179 55.4974 125.196 55.5185C125.214 55.5396 125.239 55.5528 125.267 55.5553L125.281 55.5556Z" fill="white"/>
<path d="M277.497 229.8C296.56 229.8 312.013 214.312 312.013 195.205C312.013 176.099 296.56 160.61 277.497 160.61C258.434 160.61 242.98 176.099 242.98 195.205C242.98 214.312 258.434 229.8 277.497 229.8Z" fill="white"/>
<path opacity="0.09" d="M242.981 195.204C242.981 202.046 245.005 208.735 248.797 214.424C252.59 220.113 257.981 224.547 264.288 227.166C270.594 229.784 277.534 230.469 284.23 229.134C290.925 227.799 297.075 224.505 301.903 219.667C306.73 214.828 310.017 208.664 311.349 201.953C312.681 195.243 311.997 188.287 309.385 181.966C306.772 175.644 302.348 170.241 296.672 166.44C290.996 162.639 284.323 160.61 277.496 160.61C272.959 160.593 268.463 161.476 264.268 163.209C260.073 164.941 256.261 167.489 253.053 170.705C249.845 173.92 247.303 177.741 245.574 181.945C243.845 186.15 242.964 190.656 242.981 195.204Z" fill="#367CFF"/>
<path d="M293.159 176.115C292.608 182.52 293.119 184.692 295.772 188.362C298.011 191.457 285.275 188.827 279.641 187.821L284.613 173.254C284.613 173.254 293.352 173.865 293.159 176.115Z" fill="#0A0A0A"/>
<path d="M273.719 173.449C272.056 179.659 272.243 181.58 268.989 184.841C266.293 187.544 276.802 188.093 282.441 189.075L282.726 173.684C282.726 173.684 274.303 171.269 273.719 173.449Z" fill="#0A0A0A"/>
<path d="M274.279 191.51C274.316 191.505 274.729 198.373 282.689 197.774C288.199 197.36 290.164 191.501 290.29 191.501C289.66 191.396 289.039 191.245 288.431 191.049C287.564 190.582 286.49 190.095 286.211 188.407C286.049 187.433 286.323 182.453 286.239 181.467L277.78 183.36C277.899 185.44 278.727 190.262 275.828 191.115C275.344 191.257 274.825 191.387 274.279 191.51Z" fill="#E98862"/>
<path opacity="0.5" d="M277.662 189.146C277.795 188.718 277.88 188.276 277.917 187.83C278.01 186.811 277.991 185.785 277.862 184.77C279.581 184.537 281.2 183.826 282.536 182.717C282.694 183.298 283.557 185.838 283.318 186.391C282.866 187.435 280.742 189.146 277.662 189.146Z" fill="#0C0C0C"/>
<path d="M278.755 187.006C282.089 187.329 286.404 185.992 287.298 181.541L288.104 177.525C288.998 173.074 287.39 168.995 283.209 168.152C279.028 167.308 275.178 170.287 274.284 174.737L273.927 176.516C273.584 178.223 272.805 186.429 278.755 187.006Z" fill="#E98862"/>
<path d="M292.141 178.793L288.38 178.38C281.019 177.023 279.217 171.071 279.217 171.071C279.217 171.071 276.129 175.202 273.508 174.253C273.508 174.253 274.353 164.292 285.99 166.042C290.563 166.73 293.159 170.529 293.159 175.625C293.159 179.372 292.141 178.793 292.141 178.793Z" fill="#0A0A0A"/>
<path opacity="0.1" d="M281.955 180.56C282.003 180.157 281.597 179.777 281.048 179.711C280.5 179.645 280.016 179.919 279.968 180.323C279.92 180.726 280.326 181.106 280.874 181.172C281.423 181.238 281.907 180.964 281.955 180.56Z" fill="#0C0C0C"/>
<path opacity="0.1" d="M275.078 179.561C275.028 179.963 274.545 180.237 273.996 180.172C273.901 180.161 273.808 180.139 273.717 180.109C273.692 179.628 273.69 179.166 273.704 178.738C273.856 178.7 274.015 178.691 274.17 178.711C274.718 178.776 275.124 179.156 275.078 179.561Z" fill="#0C0C0C"/>
<path opacity="0.5" d="M277.5 180.806H277.492C277.323 180.771 277.156 180.726 276.991 180.672C276.746 180.589 276.424 180.454 276.469 180.232C276.52 179.978 277.763 177.382 277.904 177.086C277.91 177.073 277.918 177.061 277.929 177.052C277.939 177.042 277.952 177.034 277.965 177.029C277.979 177.024 277.993 177.022 278.008 177.023C278.022 177.023 278.036 177.027 278.049 177.033C278.062 177.039 278.074 177.048 278.083 177.059C278.093 177.07 278.1 177.082 278.105 177.096C278.109 177.11 278.111 177.124 278.11 177.139C278.109 177.153 278.105 177.167 278.098 177.18C277.568 178.285 276.714 180.104 276.68 180.274C276.935 180.448 277.228 180.558 277.534 180.594C277.562 180.6 277.585 180.616 277.601 180.639C277.617 180.662 277.623 180.69 277.619 180.717C277.614 180.745 277.6 180.769 277.578 180.786C277.556 180.803 277.528 180.81 277.5 180.807V180.806Z" fill="#0C0C0C"/>
<path d="M286.766 182.845C288.037 183.102 289.34 181.947 289.596 180.673C289.852 179.4 288.963 178.49 287.692 178.233L286.866 178.955L285.674 182.625L286.766 182.845Z" fill="#E98862"/>
<path d="M277.002 175.014C276.846 174.903 276.674 174.813 276.494 174.747C276.311 174.678 276.119 174.635 275.925 174.619C275.73 174.6 275.533 174.611 275.342 174.651C275.148 174.691 274.961 174.754 274.784 174.841L274.778 174.843C274.759 174.85 274.738 174.849 274.719 174.842C274.7 174.834 274.685 174.819 274.676 174.801C274.667 174.782 274.666 174.761 274.671 174.741C274.677 174.722 274.69 174.705 274.708 174.695C274.896 174.595 275.096 174.52 275.302 174.47C275.511 174.419 275.725 174.4 275.939 174.414C276.373 174.438 276.792 174.578 277.152 174.82C277.179 174.839 277.196 174.867 277.202 174.899C277.208 174.931 277.2 174.963 277.182 174.99C277.164 175.017 277.136 175.035 277.105 175.042C277.073 175.048 277.04 175.042 277.013 175.025L277.01 175.023L277.002 175.014Z" fill="#0C0C0C"/>
<path d="M280.428 175.489C280.853 175.404 281.294 175.435 281.703 175.58C281.906 175.649 282.097 175.749 282.27 175.876C282.442 176.001 282.598 176.147 282.734 176.311C282.749 176.327 282.756 176.349 282.755 176.371C282.754 176.392 282.745 176.413 282.729 176.428C282.713 176.442 282.691 176.45 282.669 176.449C282.648 176.448 282.627 176.439 282.612 176.422L282.608 176.418C282.477 176.27 282.328 176.139 282.164 176.029C282.002 175.918 281.825 175.833 281.638 175.775C281.266 175.659 280.87 175.642 280.491 175.728L280.481 175.731C280.45 175.739 280.416 175.733 280.388 175.716C280.36 175.699 280.34 175.672 280.332 175.64C280.324 175.608 280.329 175.574 280.346 175.546C280.363 175.518 280.39 175.498 280.422 175.49L280.428 175.489Z" fill="#0C0C0C"/>
<path d="M261.46 225.844C260.103 225.251 259.088 224.617 256.771 222.867C255.099 221.609 253.545 220.201 252.129 218.66L264.026 195.969L264.543 194.983L275.274 200.638L265.966 218.393L265.923 218.471L266.004 218.787" fill="#B9FF66"/>
<path d="M301.026 207.591C300.713 210.956 300.646 216.189 300.667 220.842C296.181 224.92 290.703 227.743 284.783 229.026C278.864 230.309 272.711 230.008 266.945 228.152C266.239 221.135 265.19 210.824 264.598 204.475C263.999 197.899 262.236 195.727 267.047 192.577C269.698 191.225 273.901 191.106 275.79 191.106C275.149 197.34 288.256 198.107 288.581 191.106C298.385 192.025 302.923 192.253 301.026 207.591Z" fill="#B9FF66"/>
<path d="M276.384 181.683C277.467 182.235 278.704 182.41 279.897 182.179C279.938 182.171 279.981 182.175 280.02 182.191C280.059 182.206 280.093 182.233 280.118 182.267C280.143 182.301 280.157 182.342 280.16 182.384C280.162 182.426 280.152 182.468 280.132 182.505C279.777 183.133 278.932 184.208 277.484 183.77C276.549 183.487 276.196 182.525 276.064 181.927C276.055 181.886 276.057 181.842 276.072 181.803C276.086 181.763 276.112 181.728 276.146 181.702C276.179 181.676 276.22 181.661 276.262 181.657C276.304 181.654 276.346 181.663 276.384 181.683Z" fill="white"/>
<path d="M276.316 176.853C276.605 176.853 276.84 176.618 276.84 176.328C276.84 176.039 276.605 175.804 276.316 175.804C276.027 175.804 275.793 176.039 275.793 176.328C275.793 176.618 276.027 176.853 276.316 176.853Z" fill="#0C0C0C"/>
<path d="M281.348 177.736C281.637 177.736 281.871 177.501 281.871 177.211C281.871 176.921 281.637 176.687 281.348 176.687C281.059 176.687 280.824 176.921 280.824 177.211C280.824 177.501 281.059 177.736 281.348 177.736Z" fill="#0C0C0C"/>
<path d="M265.757 215.801H265.767C265.789 215.798 265.808 215.786 265.821 215.769C265.834 215.752 265.839 215.73 265.836 215.709L264.911 206.364C264.91 206.353 264.906 206.343 264.901 206.333C264.896 206.324 264.889 206.316 264.88 206.309C264.872 206.303 264.862 206.298 264.851 206.296C264.841 206.293 264.83 206.293 264.82 206.294C264.809 206.296 264.799 206.299 264.79 206.305C264.781 206.31 264.773 206.317 264.766 206.326C264.76 206.334 264.755 206.344 264.753 206.354C264.75 206.365 264.749 206.375 264.751 206.386L265.676 215.731C265.679 215.751 265.689 215.769 265.704 215.781C265.719 215.794 265.738 215.801 265.757 215.801Z" fill="#F3F3F3"/>
<path d="M264.547 208.684H255.1V220.296H264.547V208.684Z" fill="#FF3636"/>
<path d="M260.678 214.49C260.678 213.723 260.905 212.974 261.33 212.336C261.755 211.698 262.36 211.202 263.067 210.908C263.774 210.615 264.552 210.538 265.302 210.688C266.053 210.838 266.742 211.207 267.283 211.749C267.824 212.292 268.192 212.983 268.341 213.735C268.49 214.487 268.414 215.267 268.121 215.975C267.828 216.684 267.332 217.289 266.696 217.715C266.06 218.142 265.312 218.369 264.546 218.369C263.52 218.368 262.537 217.959 261.812 217.231C261.086 216.504 260.679 215.518 260.678 214.49ZM262.262 214.49C262.262 214.943 262.396 215.386 262.647 215.762C262.898 216.139 263.255 216.432 263.672 216.605C264.09 216.779 264.549 216.824 264.992 216.736C265.435 216.647 265.842 216.429 266.162 216.109C266.481 215.789 266.698 215.381 266.787 214.937C266.875 214.493 266.83 214.032 266.657 213.614C266.484 213.196 266.191 212.838 265.815 212.587C265.44 212.335 264.998 212.201 264.546 212.201C263.941 212.201 263.36 212.443 262.932 212.872C262.504 213.301 262.263 213.883 262.262 214.49Z" fill="#FF3636"/>
<path d="M264.473 215.927C264.505 215.73 264.604 215.551 264.755 215.421C264.905 215.291 265.096 215.218 265.295 215.215C265.289 215.207 265.285 215.198 265.283 215.189L265.002 215.127C264.805 215.089 264.629 214.983 264.501 214.829C264.374 214.674 264.304 214.48 264.303 214.28C264.305 214.154 264.334 214.031 264.389 213.918C264.445 213.805 264.524 213.706 264.623 213.628C264.721 213.549 264.835 213.494 264.957 213.465C265.079 213.437 265.206 213.436 265.329 213.462L265.992 213.606C265.992 213.603 265.992 213.601 265.992 213.598C265.994 213.593 265.996 213.588 265.998 213.583C265.825 213.502 265.685 213.364 265.6 213.192C265.515 213.02 265.491 212.825 265.531 212.638C265.604 212.146 266.193 211.984 266.624 212.077L268.343 212.386L267.763 212C267.58 211.873 267.452 211.681 267.405 211.463C267.357 211.245 267.394 211.017 267.508 210.825C267.571 210.728 267.652 210.645 267.747 210.581C267.843 210.516 267.95 210.472 268.063 210.451C268.176 210.429 268.292 210.431 268.404 210.456C268.517 210.481 268.623 210.529 268.716 210.597L275.645 218.544L274.106 217.845C273.629 218.549 272.953 219.094 272.164 219.41C271.375 219.726 270.511 219.799 269.681 219.619L265.923 218.798C265.727 218.759 265.55 218.654 265.423 218.499C265.295 218.345 265.225 218.151 265.224 217.95C265.227 217.77 265.287 217.594 265.396 217.45C265.505 217.306 265.657 217.201 265.83 217.15C265.825 217.137 265.823 217.123 265.824 217.109C265.826 217.096 265.832 217.084 265.84 217.074C265.848 217.064 265.858 217.055 265.87 217.05L265.176 216.9C264.958 216.857 264.764 216.733 264.633 216.552C264.503 216.372 264.445 216.148 264.473 215.927Z" fill="#E98862"/>
<path opacity="0.2" d="M267.248 213.886C267.266 213.882 267.282 213.872 267.294 213.858C267.305 213.843 267.311 213.825 267.311 213.806C267.311 213.788 267.304 213.77 267.292 213.756C267.28 213.742 267.263 213.733 267.245 213.729L266.084 213.532C266.074 213.53 266.063 213.53 266.052 213.532C266.042 213.534 266.032 213.539 266.023 213.545C266.014 213.551 266.007 213.558 266.001 213.567C265.995 213.576 265.991 213.587 265.989 213.597C265.988 213.608 265.988 213.619 265.99 213.629C265.993 213.64 265.998 213.649 266.004 213.658C266.01 213.667 266.018 213.674 266.028 213.679C266.037 213.685 266.047 213.688 266.058 213.69L267.218 213.887C267.228 213.888 267.238 213.888 267.248 213.886Z" fill="#0C0C0C"/>
<path opacity="0.2" d="M266.967 215.531C266.985 215.527 267.002 215.517 267.013 215.503C267.025 215.488 267.031 215.47 267.03 215.452C267.03 215.433 267.023 215.415 267.012 215.401C267 215.387 266.983 215.378 266.965 215.375L265.375 215.092C265.364 215.089 265.353 215.089 265.343 215.091C265.332 215.093 265.322 215.097 265.313 215.103C265.304 215.109 265.296 215.117 265.29 215.126C265.284 215.135 265.28 215.145 265.279 215.156C265.277 215.166 265.277 215.177 265.279 215.188C265.282 215.198 265.286 215.208 265.293 215.217C265.299 215.226 265.307 215.233 265.317 215.238C265.326 215.244 265.336 215.247 265.347 215.249L266.937 215.532C266.947 215.533 266.957 215.533 266.967 215.531Z" fill="#0C0C0C"/>
<path opacity="0.2" d="M266.676 217.315C266.694 217.311 266.71 217.301 266.722 217.287C266.733 217.272 266.739 217.254 266.739 217.235C266.738 217.216 266.731 217.199 266.719 217.185C266.707 217.171 266.69 217.161 266.671 217.158L265.917 217.043C265.897 217.041 265.877 217.047 265.861 217.059C265.845 217.072 265.834 217.09 265.831 217.11C265.828 217.13 265.833 217.151 265.844 217.168C265.856 217.184 265.873 217.196 265.893 217.2L266.647 217.316C266.657 217.318 266.667 217.317 266.676 217.315Z" fill="#0C0C0C"/>
<path d="M305.84 214.944C301.588 221.071 295.479 225.661 288.419 228.033L288.416 228.03C286.848 227.722 271.889 221.802 269.91 221.414L272.075 211.289C277.635 212.398 287.775 216.673 293.366 217.786L289.421 199.86C289.278 199.068 289.294 198.256 289.466 197.47C289.639 196.684 289.966 195.94 290.427 195.282C290.889 194.624 291.476 194.064 292.156 193.635C292.835 193.206 293.592 192.916 294.384 192.782C295.175 192.649 295.986 192.674 296.768 192.857C297.549 193.04 298.287 193.376 298.938 193.847C299.59 194.318 300.141 194.914 300.561 195.6C300.98 196.286 301.26 197.048 301.383 197.843L305.84 214.944Z" fill="#B9FF66"/>
<path d="M297.603 219.106C297.623 219.106 297.642 219.098 297.657 219.084C297.672 219.07 297.681 219.051 297.682 219.031C297.684 219.011 297.678 218.991 297.665 218.975C297.653 218.959 297.635 218.948 297.615 218.945L293.411 217.515C293.401 217.513 293.39 217.514 293.38 217.516C293.369 217.519 293.359 217.523 293.351 217.53C293.342 217.536 293.335 217.544 293.33 217.553C293.324 217.563 293.321 217.573 293.319 217.583C293.316 217.605 293.321 217.626 293.334 217.644C293.347 217.661 293.366 217.672 293.387 217.675L297.591 219.105C297.595 219.106 297.599 219.106 297.603 219.106Z" fill="#F3F3F3"/>
<path d="M293.476 217.583C293.479 217.608 293.471 217.634 293.455 217.653C293.446 217.662 293.434 217.669 293.422 217.672C293.41 217.676 293.397 217.677 293.385 217.675L272.21 211.411L270.088 221.375L288.322 228.062C288.265 228.081 288.206 228.099 288.149 228.118C288.109 228.132 288.069 228.145 288.025 228.156L269.969 221.511C269.949 221.506 269.931 221.493 269.92 221.475C269.909 221.457 269.906 221.435 269.91 221.414L272.075 211.29C272.078 211.28 272.083 211.27 272.089 211.262C272.095 211.253 272.104 211.247 272.113 211.241C272.122 211.235 272.132 211.231 272.143 211.229C272.153 211.227 272.164 211.228 272.175 211.231L293.299 217.503L290.907 207.62C290.904 207.599 290.91 207.578 290.922 207.561C290.935 207.544 290.954 207.532 290.975 207.529C290.985 207.527 290.996 207.527 291.006 207.529C291.017 207.531 291.027 207.535 291.035 207.541C291.044 207.547 291.052 207.555 291.058 207.564C291.063 207.573 291.067 207.583 291.069 207.593L293.476 217.583Z" fill="#F3F3F3"/>
<path d="M17.357 204.67C17.3373 204.669 17.3178 204.666 17.2996 204.658C17.2817 204.65 17.2654 204.639 17.2517 204.626C17.2381 204.612 17.2273 204.595 17.2199 204.577C17.2126 204.559 17.2089 204.54 17.209 204.52C17.2091 204.501 17.213 204.482 17.2206 204.464L23.018 190.652C23.0333 190.616 23.0623 190.587 23.0987 190.572C23.135 190.558 23.1758 190.558 23.212 190.573C23.2481 190.588 23.2768 190.618 23.2916 190.654C23.3063 190.69 23.3061 190.731 23.2908 190.768L17.4934 204.578C17.4821 204.605 17.4632 204.628 17.4389 204.645C17.4146 204.661 17.3861 204.67 17.357 204.67Z" fill="#F3F3F3"/>
<path d="M51.4732 204.826H51.4667C51.4473 204.827 51.4279 204.824 51.4096 204.817C51.3913 204.811 51.3746 204.801 51.3602 204.788C51.3459 204.774 51.3343 204.759 51.326 204.741C51.3178 204.723 51.3131 204.704 51.3122 204.685L50.666 190.559C50.6655 190.52 50.6798 190.482 50.7059 190.453C50.7321 190.424 50.7682 190.407 50.8069 190.403C50.8263 190.403 50.8457 190.406 50.864 190.412C50.8823 190.419 50.8991 190.429 50.9135 190.442C50.9279 190.455 50.9395 190.471 50.9478 190.489C50.956 190.506 50.9607 190.525 50.9616 190.545L51.6078 204.671C51.6097 204.709 51.5968 204.747 51.5717 204.776C51.5466 204.805 51.5113 204.823 51.4732 204.826Z" fill="#F3F3F3"/>
</svg>
