<svg width="406" height="226" viewBox="0 0 406 226" fill="none" xmlns="http://www.w3.org/2000/svg">
<path d="M405.254 185.45H0.439453L23.7371 135.3H381.956L405.254 185.45Z" fill="#292A2E"/>
<path d="M405.254 185.45H0.439453L23.7371 135.3H381.956L405.254 185.45Z" fill="white"/>
<path d="M405.255 185.892H0.44231C0.367846 185.893 0.294566 185.874 0.229281 185.838C0.163995 185.802 0.108822 185.75 0.0688898 185.688C0.0289574 185.625 0.00556128 185.553 0.000875552 185.478C-0.00381018 185.404 0.0103665 185.33 0.0420883 185.262L23.338 135.112C23.3736 135.036 23.4302 134.972 23.501 134.927C23.5718 134.882 23.6539 134.858 23.7378 134.858H381.957C382.041 134.858 382.123 134.882 382.194 134.927C382.265 134.972 382.321 135.036 382.357 135.112L405.656 185.262C405.687 185.33 405.702 185.404 405.697 185.478C405.693 185.552 405.669 185.624 405.63 185.686C405.59 185.749 405.535 185.801 405.47 185.837C405.405 185.873 405.333 185.892 405.258 185.892H405.255ZM1.13541 185.009H404.559L381.677 135.742H24.0187L1.13541 185.009Z" fill="#292A2E"/>
<path d="M230.844 118.51H191.641V148.148H230.844V118.51Z" fill="#292A2E"/>
<path opacity="0.64" d="M230.844 118.51H191.641V134.343H230.844V118.51Z" fill="#0C0C0C"/>
<path d="M294.506 0.924805H127.979C125.36 0.924805 123.236 3.04813 123.236 5.66739V121.887C123.236 124.506 125.36 126.63 127.979 126.63H294.506C297.125 126.63 299.249 124.506 299.249 121.887V5.66739C299.249 3.04813 297.125 0.924805 294.506 0.924805Z" fill="#292A2E"/>
<path d="M292.164 6.31201H130.32C129.245 6.31201 128.373 7.18361 128.373 8.25878V104.646C128.373 105.722 129.245 106.593 130.32 106.593H292.164C293.24 106.593 294.111 105.722 294.111 104.646V8.25878C294.111 7.18361 293.24 6.31201 292.164 6.31201Z" fill="white"/>
<path d="M239 145.712H183.485C182.064 145.712 180.912 146.864 180.912 148.284C180.912 149.705 182.064 150.857 183.485 150.857H239C240.421 150.857 241.573 149.705 241.573 148.284C241.573 146.864 240.421 145.712 239 145.712Z" fill="#292A2E"/>
<path d="M183.786 22.3297H176.416C176.372 22.3314 176.328 22.3241 176.287 22.3084C176.246 22.2927 176.208 22.2688 176.176 22.2383C176.145 22.2078 176.119 22.1712 176.102 22.1307C176.085 22.0902 176.076 22.0466 176.076 22.0026C176.076 21.9586 176.085 21.9151 176.102 21.8746C176.119 21.8341 176.145 21.7975 176.176 21.767C176.208 21.7364 176.246 21.7126 176.287 21.6969C176.328 21.6812 176.372 21.6739 176.416 21.6755H183.786C183.871 21.6786 183.951 21.7144 184.01 21.7755C184.069 21.8365 184.101 21.9179 184.101 22.0026C184.101 22.0874 184.069 22.1688 184.01 22.2298C183.951 22.2908 183.871 22.3266 183.786 22.3297Z" fill="#292A2E"/>
<path d="M171.101 22.3297H168.312C168.268 22.3314 168.224 22.3241 168.183 22.3084C168.142 22.2927 168.104 22.2688 168.073 22.2383C168.041 22.2078 168.016 22.1712 167.999 22.1307C167.982 22.0902 167.973 22.0466 167.973 22.0026C167.973 21.9586 167.982 21.9151 167.999 21.8746C168.016 21.8341 168.041 21.7975 168.073 21.767C168.104 21.7364 168.142 21.7126 168.183 21.6969C168.224 21.6812 168.268 21.6739 168.312 21.6755H171.101C171.145 21.6739 171.189 21.6812 171.23 21.6969C171.271 21.7126 171.308 21.7364 171.34 21.767C171.372 21.7975 171.397 21.8341 171.414 21.8746C171.431 21.9151 171.44 21.9586 171.44 22.0026C171.44 22.0466 171.431 22.0902 171.414 22.1307C171.397 22.1712 171.372 22.2078 171.34 22.2383C171.308 22.2688 171.271 22.2927 171.23 22.3084C171.189 22.3241 171.145 22.3314 171.101 22.3297Z" fill="#367CFF"/>
<path d="M171.1 28.2338H168.312C168.225 28.2338 168.142 28.1993 168.08 28.1379C168.019 28.0765 167.984 27.9932 167.984 27.9064C167.984 27.8196 168.019 27.7364 168.08 27.675C168.142 27.6136 168.225 27.5791 168.312 27.5791H171.1C171.187 27.5791 171.271 27.6136 171.332 27.675C171.393 27.7364 171.428 27.8196 171.428 27.9064C171.428 27.9932 171.393 28.0765 171.332 28.1379C171.271 28.1993 171.187 28.2338 171.1 28.2338Z" fill="#367CFF"/>
<path d="M171.1 34.1376H168.312C168.225 34.1376 168.142 34.1031 168.08 34.0417C168.019 33.9803 167.984 33.8971 167.984 33.8102C167.984 33.7234 168.019 33.6402 168.08 33.5788C168.142 33.5174 168.225 33.4829 168.312 33.4829H171.1C171.187 33.4829 171.271 33.5174 171.332 33.5788C171.393 33.6402 171.428 33.7234 171.428 33.8102C171.428 33.8971 171.393 33.9803 171.332 34.0417C171.271 34.1031 171.187 34.1376 171.1 34.1376Z" fill="#367CFF"/>
<path d="M171.1 40.0414H168.312C168.225 40.0414 168.142 40.0069 168.08 39.9455C168.019 39.8841 167.984 39.8009 167.984 39.7141C167.984 39.6272 168.019 39.544 168.08 39.4826C168.142 39.4212 168.225 39.3867 168.312 39.3867H171.1C171.187 39.3867 171.271 39.4212 171.332 39.4826C171.393 39.544 171.428 39.6272 171.428 39.7141C171.428 39.8009 171.393 39.8841 171.332 39.9455C171.271 40.0069 171.187 40.0414 171.1 40.0414Z" fill="#367CFF"/>
<path d="M171.101 45.945H168.312C168.268 45.9466 168.224 45.9393 168.183 45.9236C168.142 45.9079 168.104 45.8841 168.073 45.8535C168.041 45.823 168.016 45.7864 167.999 45.7459C167.982 45.7054 167.973 45.6619 167.973 45.6179C167.973 45.5739 167.982 45.5303 167.999 45.4898C168.016 45.4493 168.041 45.4127 168.073 45.3822C168.104 45.3517 168.142 45.3278 168.183 45.3121C168.224 45.2964 168.268 45.2891 168.312 45.2907H171.101C171.145 45.2891 171.189 45.2964 171.23 45.3121C171.271 45.3278 171.308 45.3517 171.34 45.3822C171.372 45.4127 171.397 45.4493 171.414 45.4898C171.431 45.5303 171.44 45.5739 171.44 45.6179C171.44 45.6619 171.431 45.7054 171.414 45.7459C171.397 45.7864 171.372 45.823 171.34 45.8535C171.308 45.8841 171.271 45.9079 171.23 45.9236C171.189 45.9393 171.145 45.9466 171.101 45.945Z" fill="#367CFF"/>
<path d="M171.1 51.847H168.312C168.225 51.847 168.142 51.8126 168.08 51.7512C168.019 51.6898 167.984 51.6065 167.984 51.5197C167.984 51.4329 168.019 51.3496 168.08 51.2883C168.142 51.2269 168.225 51.1924 168.312 51.1924H171.1C171.187 51.1924 171.271 51.2269 171.332 51.2883C171.393 51.3496 171.428 51.4329 171.428 51.5197C171.428 51.6065 171.393 51.6898 171.332 51.7512C171.271 51.8126 171.187 51.847 171.1 51.847Z" fill="#367CFF"/>
<path d="M171.1 57.7528H168.312C168.225 57.7528 168.142 57.7183 168.08 57.6569C168.019 57.5956 167.984 57.5123 167.984 57.4255C167.984 57.3387 168.019 57.2554 168.08 57.194C168.142 57.1326 168.225 57.0981 168.312 57.0981H171.1C171.187 57.0981 171.271 57.1326 171.332 57.194C171.393 57.2554 171.428 57.3387 171.428 57.4255C171.428 57.5123 171.393 57.5956 171.332 57.6569C171.271 57.7183 171.187 57.7528 171.1 57.7528Z" fill="#367CFF"/>
<path d="M171.101 63.6564H168.312C168.268 63.658 168.224 63.6508 168.183 63.635C168.142 63.6193 168.104 63.5955 168.073 63.565C168.041 63.5344 168.016 63.4978 167.999 63.4573C167.982 63.4168 167.973 63.3733 167.973 63.3293C167.973 63.2853 167.982 63.2417 167.999 63.2013C168.016 63.1608 168.041 63.1242 168.073 63.0936C168.104 63.0631 168.142 63.0392 168.183 63.0235C168.224 63.0078 168.268 63.0006 168.312 63.0022H171.101C171.145 63.0006 171.189 63.0078 171.23 63.0235C171.271 63.0392 171.308 63.0631 171.34 63.0936C171.372 63.1242 171.397 63.1608 171.414 63.2013C171.431 63.2417 171.44 63.2853 171.44 63.3293C171.44 63.3733 171.431 63.4168 171.414 63.4573C171.397 63.4978 171.372 63.5344 171.34 63.565C171.308 63.5955 171.271 63.6193 171.23 63.635C171.189 63.6508 171.145 63.658 171.101 63.6564Z" fill="#367CFF"/>
<path d="M171.1 69.5614H168.312C168.225 69.5614 168.142 69.5269 168.08 69.4655C168.019 69.4041 167.984 69.3209 167.984 69.2341C167.984 69.1473 168.019 69.064 168.08 69.0026C168.142 68.9412 168.225 68.9067 168.312 68.9067H171.1C171.187 68.9067 171.271 68.9412 171.332 69.0026C171.393 69.064 171.428 69.1473 171.428 69.2341C171.428 69.3209 171.393 69.4041 171.332 69.4655C171.271 69.5269 171.187 69.5614 171.1 69.5614Z" fill="#367CFF"/>
<path d="M171.1 75.4642H168.312C168.225 75.4642 168.142 75.4298 168.08 75.3684C168.019 75.307 167.984 75.2237 167.984 75.1369C167.984 75.0501 168.019 74.9668 168.08 74.9054C168.142 74.8441 168.225 74.8096 168.312 74.8096H171.1C171.187 74.8096 171.271 74.8441 171.332 74.9054C171.393 74.9668 171.428 75.0501 171.428 75.1369C171.428 75.2237 171.393 75.307 171.332 75.3684C171.271 75.4298 171.187 75.4642 171.1 75.4642Z" fill="#367CFF"/>
<path d="M171.101 81.3678H168.312C168.268 81.3694 168.224 81.3622 168.183 81.3465C168.142 81.3308 168.104 81.3069 168.073 81.2764C168.041 81.2458 168.016 81.2092 167.999 81.1687C167.982 81.1283 167.973 81.0847 167.973 81.0407C167.973 80.9967 167.982 80.9532 167.999 80.9127C168.016 80.8722 168.041 80.8356 168.073 80.805C168.104 80.7745 168.142 80.7507 168.183 80.735C168.224 80.7192 168.268 80.712 168.312 80.7136H171.101C171.145 80.712 171.189 80.7192 171.23 80.735C171.271 80.7507 171.308 80.7745 171.34 80.805C171.372 80.8356 171.397 80.8722 171.414 80.9127C171.431 80.9532 171.44 80.9967 171.44 81.0407C171.44 81.0847 171.431 81.1283 171.414 81.1687C171.397 81.2092 171.372 81.2458 171.34 81.2764C171.308 81.3069 171.271 81.3308 171.23 81.3465C171.189 81.3622 171.145 81.3694 171.101 81.3678Z" fill="#367CFF"/>
<path d="M171.1 87.2719H168.312C168.225 87.2719 168.142 87.2374 168.08 87.176C168.019 87.1146 167.984 87.0313 167.984 86.9445C167.984 86.8577 168.019 86.7745 168.08 86.7131C168.142 86.6517 168.225 86.6172 168.312 86.6172H171.1C171.187 86.6172 171.271 86.6517 171.332 86.7131C171.393 86.7745 171.428 86.8577 171.428 86.9445C171.428 87.0313 171.393 87.1146 171.332 87.176C171.271 87.2374 171.187 87.2719 171.1 87.2719Z" fill="#367CFF"/>
<path d="M171.1 93.1757H168.312C168.225 93.1757 168.142 93.1412 168.08 93.0798C168.019 93.0184 167.984 92.9351 167.984 92.8483C167.984 92.7615 168.019 92.6783 168.08 92.6169C168.142 92.5555 168.225 92.521 168.312 92.521H171.1C171.187 92.521 171.271 92.5555 171.332 92.6169C171.393 92.6783 171.428 92.7615 171.428 92.8483C171.428 92.9351 171.393 93.0184 171.332 93.0798C171.271 93.1412 171.187 93.1757 171.1 93.1757Z" fill="#367CFF"/>
<path d="M171.101 99.0793H168.312C168.268 99.0809 168.224 99.0736 168.183 99.0579C168.142 99.0422 168.104 99.0184 168.073 98.9878C168.041 98.9573 168.016 98.9207 167.999 98.8802C167.982 98.8397 167.973 98.7961 167.973 98.7521C167.973 98.7081 167.982 98.6646 167.999 98.6241C168.016 98.5836 168.041 98.547 168.073 98.5165C168.104 98.4859 168.142 98.4621 168.183 98.4464C168.224 98.4307 168.268 98.4234 168.312 98.425H171.101C171.145 98.4234 171.189 98.4307 171.23 98.4464C171.271 98.4621 171.308 98.4859 171.34 98.5165C171.372 98.547 171.397 98.5836 171.414 98.6241C171.431 98.6646 171.44 98.7081 171.44 98.7521C171.44 98.7961 171.431 98.8397 171.414 98.8802C171.397 98.9207 171.372 98.9573 171.34 98.9878C171.308 99.0184 171.271 99.0422 171.23 99.0579C171.189 99.0736 171.145 99.0809 171.101 99.0793Z" fill="#367CFF"/>
<path d="M189.675 28.2335H182.96C182.916 28.2352 182.873 28.2279 182.832 28.2122C182.79 28.1965 182.753 28.1726 182.721 28.1421C182.69 28.1116 182.664 28.075 182.647 28.0345C182.63 27.994 182.621 27.9504 182.621 27.9064C182.621 27.8624 182.63 27.8189 182.647 27.7784C182.664 27.7379 182.69 27.7013 182.721 27.6708C182.753 27.6402 182.79 27.6164 182.832 27.6007C182.873 27.585 182.916 27.5777 182.96 27.5793H189.675C189.719 27.5777 189.763 27.585 189.804 27.6007C189.845 27.6164 189.883 27.6402 189.914 27.6708C189.946 27.7013 189.971 27.7379 189.988 27.7784C190.005 27.8189 190.014 27.8624 190.014 27.9064C190.014 27.9504 190.005 27.994 189.988 28.0345C189.971 28.075 189.946 28.1116 189.914 28.1421C189.883 28.1726 189.845 28.1965 189.804 28.2122C189.763 28.2279 189.719 28.2352 189.675 28.2335Z" fill="#292A2E"/>
<path d="M183.786 63.6564H176.416C176.372 63.658 176.328 63.6508 176.287 63.635C176.246 63.6193 176.208 63.5955 176.176 63.565C176.145 63.5344 176.119 63.4978 176.102 63.4573C176.085 63.4168 176.076 63.3733 176.076 63.3293C176.076 63.2853 176.085 63.2417 176.102 63.2013C176.119 63.1608 176.145 63.1242 176.176 63.0936C176.208 63.0631 176.246 63.0392 176.287 63.0235C176.328 63.0078 176.372 63.0006 176.416 63.0022H183.786C183.871 63.0053 183.951 63.0411 184.01 63.1021C184.069 63.1631 184.101 63.2446 184.101 63.3293C184.101 63.414 184.069 63.4955 184.01 63.5565C183.951 63.6175 183.871 63.6533 183.786 63.6564Z" fill="#292A2E"/>
<path d="M189.675 69.5614H182.96C182.873 69.5614 182.79 69.5269 182.729 69.4655C182.667 69.4041 182.633 69.3209 182.633 69.2341C182.633 69.1473 182.667 69.064 182.729 69.0026C182.79 68.9412 182.873 68.9067 182.96 68.9067H189.675C189.762 68.9067 189.845 68.9412 189.906 69.0026C189.968 69.064 190.002 69.1473 190.002 69.2341C190.002 69.3209 189.968 69.4041 189.906 69.4655C189.845 69.5269 189.762 69.5614 189.675 69.5614Z" fill="#292A2E"/>
<path d="M236.473 34.1376H187.542C187.455 34.1376 187.372 34.1031 187.311 34.0417C187.249 33.9803 187.215 33.8971 187.215 33.8102C187.215 33.7234 187.249 33.6402 187.311 33.5788C187.372 33.5174 187.455 33.4829 187.542 33.4829H236.473C236.56 33.4829 236.644 33.5174 236.705 33.5788C236.766 33.6402 236.801 33.7234 236.801 33.8102C236.801 33.8971 236.766 33.9803 236.705 34.0417C236.644 34.1031 236.56 34.1376 236.473 34.1376Z" fill="#292A2E"/>
<path d="M271.874 34.1376H243.558C243.471 34.1376 243.388 34.1031 243.326 34.0417C243.265 33.9803 243.23 33.8971 243.23 33.8102C243.23 33.7234 243.265 33.6402 243.326 33.5788C243.388 33.5174 243.471 33.4829 243.558 33.4829H271.874C271.961 33.4829 272.044 33.5174 272.105 33.5788C272.167 33.6402 272.201 33.7234 272.201 33.8102C272.201 33.8971 272.167 33.9803 272.105 34.0417C272.044 34.1031 271.961 34.1376 271.874 34.1376Z" fill="#0CBC8B"/>
<path d="M287.07 34.1376H278.392C278.305 34.1376 278.222 34.1031 278.16 34.0417C278.099 33.9803 278.064 33.8971 278.064 33.8102C278.064 33.7234 278.099 33.6402 278.16 33.5788C278.222 33.5174 278.305 33.4829 278.392 33.4829H287.071C287.158 33.4829 287.241 33.5174 287.302 33.5788C287.364 33.6402 287.398 33.7234 287.398 33.8102C287.398 33.8971 287.364 33.9803 287.302 34.0417C287.241 34.1031 287.158 34.1376 287.071 34.1376H287.07Z" fill="#292A2E"/>
<path d="M256.109 45.945H187.542C187.499 45.9466 187.455 45.9393 187.414 45.9236C187.372 45.9079 187.335 45.8841 187.303 45.8535C187.272 45.823 187.246 45.7864 187.229 45.7459C187.212 45.7054 187.203 45.6619 187.203 45.6179C187.203 45.5739 187.212 45.5303 187.229 45.4898C187.246 45.4493 187.272 45.4127 187.303 45.3822C187.335 45.3517 187.372 45.3278 187.414 45.3121C187.455 45.2964 187.499 45.2891 187.542 45.2907H256.109C256.153 45.2891 256.197 45.2964 256.238 45.3121C256.279 45.3278 256.316 45.3517 256.348 45.3822C256.38 45.4127 256.405 45.4493 256.422 45.4898C256.439 45.5303 256.448 45.5739 256.448 45.6179C256.448 45.6619 256.439 45.7054 256.422 45.7459C256.405 45.7864 256.38 45.823 256.348 45.8535C256.316 45.8841 256.279 45.9079 256.238 45.9236C256.197 45.9393 256.153 45.9466 256.109 45.945Z" fill="#292A2E"/>
<path d="M271.875 45.945H263.197C263.153 45.9466 263.109 45.9393 263.068 45.9236C263.027 45.9079 262.989 45.8841 262.958 45.8535C262.926 45.823 262.901 45.7864 262.883 45.7459C262.866 45.7054 262.857 45.6619 262.857 45.6179C262.857 45.5739 262.866 45.5303 262.883 45.4898C262.901 45.4493 262.926 45.4127 262.958 45.3822C262.989 45.3517 263.027 45.3278 263.068 45.3121C263.109 45.2964 263.153 45.2891 263.197 45.2907H271.876C271.92 45.2891 271.964 45.2964 272.005 45.3121C272.046 45.3278 272.084 45.3517 272.115 45.3822C272.147 45.4127 272.172 45.4493 272.189 45.4898C272.207 45.5303 272.216 45.5739 272.216 45.6179C272.216 45.6619 272.207 45.7054 272.189 45.7459C272.172 45.7864 272.147 45.823 272.115 45.8535C272.084 45.8841 272.046 45.9079 272.005 45.9236C271.964 45.9393 271.92 45.9466 271.876 45.945H271.875Z" fill="#367CFF"/>
<path d="M194.913 40.0419H187.542C187.455 40.0419 187.372 40.0074 187.311 39.946C187.249 39.8846 187.215 39.8014 187.215 39.7145C187.215 39.6277 187.249 39.5445 187.311 39.4831C187.372 39.4217 187.455 39.3872 187.542 39.3872H194.913C195 39.3872 195.083 39.4217 195.144 39.4831C195.206 39.5445 195.24 39.6277 195.24 39.7145C195.24 39.8014 195.206 39.8846 195.144 39.946C195.083 40.0074 195 40.0419 194.913 40.0419Z" fill="#0CBC8B"/>
<path d="M252.239 40.0419H201.997C201.91 40.0419 201.827 40.0074 201.766 39.946C201.704 39.8846 201.67 39.8014 201.67 39.7145C201.67 39.6277 201.704 39.5445 201.766 39.4831C201.827 39.4217 201.91 39.3872 201.997 39.3872H252.239C252.326 39.3872 252.409 39.4217 252.471 39.4831C252.532 39.5445 252.567 39.6277 252.567 39.7145C252.567 39.8014 252.532 39.8846 252.471 39.946C252.409 40.0074 252.326 40.0419 252.239 40.0419Z" fill="#367CFF"/>
<path d="M287.128 40.0419H260.122C260.035 40.0419 259.952 40.0074 259.891 39.946C259.829 39.8846 259.795 39.8014 259.795 39.7145C259.795 39.6277 259.829 39.5445 259.891 39.4831C259.952 39.4217 260.035 39.3872 260.122 39.3872H287.128C287.215 39.3872 287.298 39.4217 287.359 39.4831C287.421 39.5445 287.455 39.6277 287.455 39.7145C287.455 39.8014 287.421 39.8846 287.359 39.946C287.298 40.0074 287.215 40.0419 287.128 40.0419Z" fill="#292A2E"/>
<path d="M236.473 51.8475H187.542C187.455 51.8475 187.372 51.8131 187.311 51.7517C187.249 51.6903 187.215 51.607 187.215 51.5202C187.215 51.4334 187.249 51.3501 187.311 51.2887C187.372 51.2274 187.455 51.1929 187.542 51.1929H236.473C236.56 51.1929 236.644 51.2274 236.705 51.2887C236.766 51.3501 236.801 51.4334 236.801 51.5202C236.801 51.607 236.766 51.6903 236.705 51.7517C236.644 51.8131 236.56 51.8475 236.473 51.8475Z" fill="#292A2E"/>
<path d="M258.785 51.8475H243.56C243.473 51.8475 243.39 51.8131 243.328 51.7517C243.267 51.6903 243.232 51.607 243.232 51.5202C243.232 51.4334 243.267 51.3501 243.328 51.2887C243.39 51.2274 243.473 51.1929 243.56 51.1929H258.785C258.871 51.1929 258.955 51.2274 259.016 51.2887C259.077 51.3501 259.112 51.4334 259.112 51.5202C259.112 51.607 259.077 51.6903 259.016 51.7517C258.955 51.8131 258.871 51.8475 258.785 51.8475Z" fill="#0CBC8B"/>
<path d="M287.07 51.8475H265.3C265.213 51.8475 265.13 51.8131 265.069 51.7517C265.007 51.6903 264.973 51.607 264.973 51.5202C264.973 51.4334 265.007 51.3501 265.069 51.2887C265.13 51.2274 265.213 51.1929 265.3 51.1929H287.07C287.156 51.1929 287.24 51.2274 287.301 51.2887C287.363 51.3501 287.397 51.4334 287.397 51.5202C287.397 51.607 287.363 51.6903 287.301 51.7517C287.24 51.8131 287.156 51.8475 287.07 51.8475Z" fill="#292A2E"/>
<path d="M194.913 57.7528H187.542C187.455 57.7528 187.372 57.7183 187.311 57.6569C187.249 57.5956 187.215 57.5123 187.215 57.4255C187.215 57.3387 187.249 57.2554 187.311 57.194C187.372 57.1326 187.455 57.0981 187.542 57.0981H194.913C195 57.0981 195.083 57.1326 195.144 57.194C195.206 57.2554 195.24 57.3387 195.24 57.4255C195.24 57.5123 195.206 57.5956 195.144 57.6569C195.083 57.7183 195 57.7528 194.913 57.7528Z" fill="#367CFF"/>
<path d="M252.239 57.7528H201.997C201.91 57.7528 201.827 57.7183 201.766 57.6569C201.704 57.5956 201.67 57.5123 201.67 57.4255C201.67 57.3387 201.704 57.2554 201.766 57.194C201.827 57.1326 201.91 57.0981 201.997 57.0981H252.239C252.326 57.0981 252.409 57.1326 252.471 57.194C252.532 57.2554 252.567 57.3387 252.567 57.4255C252.567 57.5123 252.532 57.5956 252.471 57.6569C252.409 57.7183 252.326 57.7528 252.239 57.7528Z" fill="#0CBC8B"/>
<path d="M235.162 81.368H186.232C186.145 81.368 186.062 81.3336 186 81.2722C185.939 81.2108 185.904 81.1275 185.904 81.0407C185.904 80.9539 185.939 80.8706 186 80.8093C186.062 80.7479 186.145 80.7134 186.232 80.7134H235.162C235.249 80.7134 235.333 80.7479 235.394 80.8093C235.455 80.8706 235.49 80.9539 235.49 81.0407C235.49 81.1275 235.455 81.2108 235.394 81.2722C235.333 81.3336 235.249 81.368 235.162 81.368Z" fill="#292A2E"/>
<path d="M270.563 81.368H242.247C242.16 81.368 242.077 81.3336 242.016 81.2722C241.954 81.2108 241.92 81.1275 241.92 81.0407C241.92 80.9539 241.954 80.8706 242.016 80.8093C242.077 80.7479 242.16 80.7134 242.247 80.7134H270.563C270.65 80.7134 270.733 80.7479 270.795 80.8093C270.856 80.8706 270.89 80.9539 270.89 81.0407C270.89 81.1275 270.856 81.2108 270.795 81.2722C270.733 81.3336 270.65 81.368 270.563 81.368Z" fill="#367CFF"/>
<path d="M206.695 75.4642H186.232C186.145 75.4642 186.062 75.4298 186 75.3684C185.939 75.307 185.904 75.2237 185.904 75.1369C185.904 75.0501 185.939 74.9668 186 74.9054C186.062 74.8441 186.145 74.8096 186.232 74.8096H206.695C206.781 74.8096 206.865 74.8441 206.926 74.9054C206.987 74.9668 207.022 75.0501 207.022 75.1369C207.022 75.2237 206.987 75.307 206.926 75.3684C206.865 75.4298 206.781 75.4642 206.695 75.4642Z" fill="#0CBC8B"/>
<path d="M250.927 75.4642H213.777C213.69 75.4642 213.606 75.4298 213.545 75.3684C213.484 75.307 213.449 75.2237 213.449 75.1369C213.449 75.0501 213.484 74.9668 213.545 74.9054C213.606 74.8441 213.69 74.8096 213.777 74.8096H250.927C251.014 74.8096 251.097 74.8441 251.159 74.9054C251.22 74.9668 251.255 75.0501 251.255 75.1369C251.255 75.2237 251.22 75.307 251.159 75.3684C251.097 75.4298 251.014 75.4642 250.927 75.4642Z" fill="#367CFF"/>
<path d="M285.817 75.4642H258.812C258.725 75.4642 258.642 75.4298 258.58 75.3684C258.519 75.307 258.484 75.2237 258.484 75.1369C258.484 75.0501 258.519 74.9668 258.58 74.9054C258.642 74.8441 258.725 74.8096 258.812 74.8096H285.817C285.904 74.8096 285.987 74.8441 286.049 74.9054C286.11 74.9668 286.145 75.0501 286.145 75.1369C286.145 75.2237 286.11 75.307 286.049 75.3684C285.987 75.4298 285.904 75.4642 285.817 75.4642Z" fill="#292A2E"/>
<path d="M254.798 93.1757H186.232C186.145 93.1757 186.062 93.1412 186 93.0798C185.939 93.0184 185.904 92.9351 185.904 92.8483C185.904 92.7615 185.939 92.6783 186 92.6169C186.062 92.5555 186.145 92.521 186.232 92.521H254.798C254.885 92.521 254.968 92.5555 255.03 92.6169C255.091 92.6783 255.125 92.7615 255.125 92.8483C255.125 92.9351 255.091 93.0184 255.03 93.0798C254.968 93.1412 254.885 93.1757 254.798 93.1757Z" fill="#367CFF"/>
<path d="M274.981 93.1757H261.884C261.797 93.1757 261.714 93.1412 261.653 93.0798C261.591 93.0184 261.557 92.9351 261.557 92.8483C261.557 92.7615 261.591 92.6783 261.653 92.6169C261.714 92.5555 261.797 92.521 261.884 92.521H274.981C275.068 92.521 275.151 92.5555 275.212 92.6169C275.274 92.6783 275.308 92.7615 275.308 92.8483C275.308 92.9351 275.274 93.0184 275.212 93.0798C275.151 93.1412 275.068 93.1757 274.981 93.1757Z" fill="#292A2E"/>
<path d="M193.6 87.2716H186.23C186.186 87.2733 186.142 87.266 186.101 87.2503C186.06 87.2346 186.022 87.2107 185.991 87.1802C185.959 87.1497 185.934 87.1131 185.917 87.0726C185.9 87.0321 185.891 86.9885 185.891 86.9445C185.891 86.9005 185.9 86.857 185.917 86.8165C185.934 86.776 185.959 86.7394 185.991 86.7088C186.022 86.6783 186.06 86.6545 186.101 86.6388C186.142 86.6231 186.186 86.6158 186.23 86.6174H193.6C193.644 86.6158 193.688 86.6231 193.729 86.6388C193.77 86.6545 193.808 86.6783 193.839 86.7088C193.871 86.7394 193.896 86.776 193.913 86.8165C193.931 86.857 193.939 86.9005 193.939 86.9445C193.939 86.9885 193.931 87.0321 193.913 87.0726C193.896 87.1131 193.871 87.1497 193.839 87.1802C193.808 87.2107 193.77 87.2346 193.729 87.2503C193.688 87.266 193.644 87.2733 193.6 87.2716Z" fill="#367CFF"/>
<path d="M250.926 87.2716H200.685C200.641 87.2733 200.597 87.266 200.556 87.2503C200.515 87.2346 200.478 87.2107 200.446 87.1802C200.414 87.1497 200.389 87.1131 200.372 87.0726C200.355 87.0321 200.346 86.9885 200.346 86.9445C200.346 86.9005 200.355 86.857 200.372 86.8165C200.389 86.776 200.414 86.7394 200.446 86.7088C200.478 86.6783 200.515 86.6545 200.556 86.6388C200.597 86.6231 200.641 86.6158 200.685 86.6174H250.926C250.97 86.6158 251.014 86.6231 251.055 86.6388C251.096 86.6545 251.134 86.6783 251.165 86.7088C251.197 86.7394 251.222 86.776 251.239 86.8165C251.257 86.857 251.266 86.9005 251.266 86.9445C251.266 86.9885 251.257 87.0321 251.239 87.0726C251.222 87.1131 251.197 87.1497 251.165 87.1802C251.134 87.2107 251.096 87.2346 251.055 87.2503C251.014 87.266 250.97 87.2733 250.926 87.2716Z" fill="#292A2E"/>
<path d="M285.816 87.2716H258.81C258.766 87.2733 258.722 87.266 258.681 87.2503C258.64 87.2346 258.603 87.2107 258.571 87.1802C258.539 87.1497 258.514 87.1131 258.497 87.0726C258.48 87.0321 258.471 86.9885 258.471 86.9445C258.471 86.9005 258.48 86.857 258.497 86.8165C258.514 86.776 258.539 86.7394 258.571 86.7088C258.603 86.6783 258.64 86.6545 258.681 86.6388C258.722 86.6231 258.766 86.6158 258.81 86.6174H285.816C285.86 86.6158 285.904 86.6231 285.945 86.6388C285.986 86.6545 286.023 86.6783 286.055 86.7088C286.087 86.7394 286.112 86.776 286.129 86.8165C286.146 86.857 286.155 86.9005 286.155 86.9445C286.155 86.9885 286.146 87.0321 286.129 87.0726C286.112 87.1131 286.087 87.1497 286.055 87.1802C286.023 87.2107 285.986 87.2346 285.945 87.2503C285.904 87.266 285.86 87.2733 285.816 87.2716Z" fill="#0CBC8B"/>
<path d="M235.162 99.0795H186.232C186.145 99.0795 186.062 99.045 186 98.9836C185.939 98.9222 185.904 98.839 185.904 98.7521C185.904 98.6653 185.939 98.5821 186 98.5207C186.062 98.4593 186.145 98.4248 186.232 98.4248H235.162C235.249 98.4248 235.333 98.4593 235.394 98.5207C235.455 98.5821 235.49 98.6653 235.49 98.7521C235.49 98.839 235.455 98.9222 235.394 98.9836C235.333 99.045 235.249 99.0795 235.162 99.0795Z" fill="#0CBC8B"/>
<path d="M257.474 99.0795H242.249C242.162 99.0795 242.079 99.045 242.018 98.9836C241.956 98.9222 241.922 98.839 241.922 98.7521C241.922 98.6653 241.956 98.5821 242.018 98.5207C242.079 98.4593 242.162 98.4248 242.249 98.4248H257.474C257.561 98.4248 257.644 98.4593 257.705 98.5207C257.767 98.5821 257.801 98.6653 257.801 98.7521C257.801 98.839 257.767 98.9222 257.705 98.9836C257.644 99.045 257.561 99.0795 257.474 99.0795Z" fill="#292A2E"/>
<path d="M285.76 99.0795H263.989C263.903 99.0795 263.819 99.045 263.758 98.9836C263.697 98.9222 263.662 98.839 263.662 98.7521C263.662 98.6653 263.697 98.5821 263.758 98.5207C263.819 98.4593 263.903 98.4248 263.989 98.4248H285.759C285.846 98.4248 285.929 98.4593 285.991 98.5207C286.052 98.5821 286.086 98.6653 286.086 98.7521C286.086 98.839 286.052 98.9222 285.991 98.9836C285.929 99.045 285.846 99.0795 285.759 99.0795H285.76Z" fill="#367CFF"/>
<path d="M163.876 102.304C163.833 102.304 163.791 102.296 163.751 102.279C163.711 102.263 163.675 102.239 163.645 102.209C163.614 102.178 163.59 102.142 163.574 102.103C163.557 102.063 163.549 102.02 163.549 101.977V12.0246C163.549 11.9378 163.583 11.8545 163.645 11.7931C163.706 11.7318 163.789 11.6973 163.876 11.6973C163.963 11.6973 164.046 11.7318 164.108 11.7931C164.169 11.8545 164.203 11.9378 164.203 12.0246V101.977C164.203 102.02 164.195 102.063 164.179 102.103C164.162 102.142 164.138 102.178 164.108 102.209C164.077 102.239 164.041 102.263 164.001 102.279C163.962 102.296 163.919 102.304 163.876 102.304Z" fill="#292A2E"/>
<path d="M148.909 16.1117H134.736C134.649 16.1117 134.565 16.0772 134.504 16.0158C134.443 15.9544 134.408 15.8712 134.408 15.7844C134.408 15.6975 134.443 15.6143 134.504 15.5529C134.565 15.4915 134.649 15.457 134.736 15.457H148.908C148.994 15.457 149.078 15.4915 149.139 15.5529C149.2 15.6143 149.235 15.6975 149.235 15.7844C149.235 15.8712 149.2 15.9544 149.139 16.0158C149.078 16.0772 148.994 16.1117 148.908 16.1117H148.909Z" fill="#292A2E"/>
<path d="M144.641 22.5666H134.736C134.692 22.5682 134.648 22.5609 134.607 22.5452C134.566 22.5295 134.528 22.5057 134.497 22.4751C134.465 22.4446 134.44 22.408 134.423 22.3675C134.405 22.327 134.396 22.2834 134.396 22.2394C134.396 22.1954 134.405 22.1519 134.423 22.1114C134.44 22.0709 134.465 22.0343 134.497 22.0038C134.528 21.9732 134.566 21.9494 134.607 21.9337C134.648 21.918 134.692 21.9107 134.736 21.9123H144.639C144.724 21.9154 144.804 21.9513 144.863 22.0123C144.921 22.0733 144.954 22.1547 144.954 22.2394C144.954 22.3242 144.921 22.4056 144.863 22.4666C144.804 22.5276 144.724 22.5634 144.639 22.5666H144.641Z" fill="#292A2E"/>
<path d="M153.349 29.0219H134.736C134.649 29.0219 134.565 28.9874 134.504 28.926C134.443 28.8646 134.408 28.7813 134.408 28.6945C134.408 28.6077 134.443 28.5244 134.504 28.4631C134.565 28.4017 134.649 28.3672 134.736 28.3672H153.347C153.434 28.3672 153.517 28.4017 153.578 28.4631C153.64 28.5244 153.674 28.6077 153.674 28.6945C153.674 28.7813 153.64 28.8646 153.578 28.926C153.517 28.9874 153.434 29.0219 153.347 29.0219H153.349Z" fill="#292A2E"/>
<path d="M156.82 35.4767H141.283C141.239 35.4783 141.195 35.4711 141.154 35.4554C141.113 35.4396 141.075 35.4158 141.044 35.3853C141.012 35.3547 140.987 35.3181 140.969 35.2776C140.952 35.2371 140.943 35.1936 140.943 35.1496C140.943 35.1056 140.952 35.0621 140.969 35.0216C140.987 34.9811 141.012 34.9445 141.044 34.9139C141.075 34.8834 141.113 34.8596 141.154 34.8438C141.195 34.8281 141.239 34.8209 141.283 34.8225H156.82C156.864 34.8209 156.908 34.8281 156.949 34.8438C156.99 34.8596 157.028 34.8834 157.059 34.9139C157.091 34.9445 157.116 34.9811 157.134 35.0216C157.151 35.0621 157.16 35.1056 157.16 35.1496C157.16 35.1936 157.151 35.2371 157.134 35.2776C157.116 35.3181 157.091 35.3547 157.059 35.3853C157.028 35.4158 156.99 35.4396 156.949 35.4554C156.908 35.4711 156.864 35.4783 156.82 35.4767Z" fill="#292A2E"/>
<path d="M149.307 41.932H141.282C141.196 41.932 141.112 41.8975 141.051 41.8361C140.99 41.7747 140.955 41.6915 140.955 41.6047C140.955 41.5179 140.99 41.4346 141.051 41.3732C141.112 41.3118 141.196 41.2773 141.282 41.2773H149.307C149.394 41.2773 149.477 41.3118 149.539 41.3732C149.6 41.4346 149.635 41.5179 149.635 41.6047C149.635 41.6915 149.6 41.7747 149.539 41.8361C149.477 41.8975 149.394 41.932 149.307 41.932Z" fill="#292A2E"/>
<path d="M155.453 48.3871H141.282C141.196 48.3871 141.112 48.3526 141.051 48.2912C140.99 48.2298 140.955 48.1466 140.955 48.0598C140.955 47.9729 140.99 47.8897 141.051 47.8283C141.112 47.7669 141.196 47.7324 141.282 47.7324H155.453C155.54 47.7324 155.623 47.7669 155.685 47.8283C155.746 47.8897 155.781 47.9729 155.781 48.0598C155.781 48.1466 155.746 48.2298 155.685 48.2912C155.623 48.3526 155.54 48.3871 155.453 48.3871Z" fill="#292A2E"/>
<path d="M145.665 54.8417H134.736C134.649 54.8417 134.565 54.8072 134.504 54.7458C134.443 54.6844 134.408 54.6012 134.408 54.5143C134.408 54.4275 134.443 54.3443 134.504 54.2829C134.565 54.2215 134.649 54.187 134.736 54.187H145.663C145.75 54.187 145.833 54.2215 145.894 54.2829C145.956 54.3443 145.99 54.4275 145.99 54.5143C145.99 54.6012 145.956 54.6844 145.894 54.7458C145.833 54.8072 145.75 54.8417 145.663 54.8417H145.665Z" fill="#292A2E"/>
<path d="M141.908 61.2968H134.736C134.649 61.2968 134.565 61.2623 134.504 61.2009C134.443 61.1395 134.408 61.0562 134.408 60.9694C134.408 60.8826 134.443 60.7993 134.504 60.738C134.565 60.6766 134.649 60.6421 134.736 60.6421H141.906C141.993 60.6421 142.076 60.6766 142.138 60.738C142.199 60.7993 142.234 60.8826 142.234 60.9694C142.234 61.0562 142.199 61.1395 142.138 61.2009C142.076 61.2623 141.993 61.2968 141.906 61.2968H141.908Z" fill="#292A2E"/>
<path d="M170.654 14.7277V14.8456L174.745 16.3639C174.803 16.3877 174.853 16.4285 174.888 16.481C174.923 16.5336 174.942 16.5954 174.941 16.6585V16.7698C174.942 16.8191 174.93 16.8678 174.907 16.9114C174.884 16.9549 174.85 16.9918 174.808 17.0185C174.767 17.0477 174.719 17.066 174.669 17.0717C174.618 17.0775 174.567 17.0704 174.52 17.0512L169.9 15.2445C169.842 15.2215 169.792 15.1818 169.757 15.1305C169.722 15.0792 169.703 15.0186 169.703 14.9565V14.623C169.703 14.5606 169.721 14.4997 169.756 14.4482C169.791 14.3967 169.841 14.3572 169.9 14.3349L174.52 12.5238C174.558 12.5108 174.598 12.5041 174.638 12.5039C174.698 12.5052 174.758 12.5234 174.808 12.5565C174.85 12.5846 174.884 12.6227 174.907 12.6673C174.93 12.7119 174.942 12.7616 174.941 12.8118V12.9227C174.942 12.9851 174.924 13.0465 174.889 13.0981C174.854 13.1497 174.803 13.1891 174.745 13.2107L170.654 14.7277Z" fill="#367CFF"/>
<path d="M178.763 11.1866L176.316 18.6809C176.296 18.7435 176.257 18.7982 176.204 18.837C176.151 18.8759 176.087 18.8968 176.021 18.8969C175.973 18.8976 175.926 18.8867 175.884 18.8649C175.842 18.8432 175.806 18.8114 175.779 18.7723C175.749 18.7336 175.729 18.6886 175.72 18.641C175.711 18.5933 175.713 18.5443 175.726 18.4975L178.174 11.0099C178.195 10.9465 178.236 10.8912 178.29 10.8516C178.344 10.812 178.408 10.7902 178.475 10.7891C178.523 10.789 178.569 10.8003 178.612 10.822C178.654 10.8436 178.69 10.8751 178.717 10.9136C178.746 10.9521 178.766 10.997 178.774 11.0445C178.782 11.092 178.778 11.1408 178.763 11.1866Z" fill="#367CFF"/>
<path d="M184.773 14.6228V14.9563C184.774 15.0178 184.757 15.0782 184.723 15.1295C184.689 15.1809 184.641 15.2209 184.584 15.2443L179.956 17.0511C179.91 17.07 179.86 17.077 179.811 17.0713C179.762 17.0655 179.715 17.0473 179.675 17.0184C179.633 16.9917 179.598 16.9549 179.574 16.9115C179.55 16.868 179.538 16.8193 179.537 16.7697V16.6584C179.536 16.5942 179.555 16.5314 179.592 16.4786C179.628 16.4259 179.68 16.3857 179.74 16.3637L183.831 14.8454V14.7275L179.74 13.2088C179.68 13.1888 179.628 13.1501 179.591 13.0982C179.555 13.0464 179.536 12.9842 179.537 12.9207V12.8099C179.537 12.7593 179.55 12.7096 179.574 12.6651C179.598 12.6206 179.633 12.5826 179.675 12.5545C179.725 12.5216 179.784 12.5034 179.845 12.502C179.883 12.5015 179.92 12.5083 179.956 12.5219L184.584 14.333C184.641 14.3559 184.69 14.396 184.724 14.4478C184.758 14.4997 184.775 14.5608 184.773 14.6228Z" fill="#367CFF"/>
<path d="M16.6722 223.586C14.0036 223.585 11.3745 222.94 9.00878 221.705C6.64306 220.47 4.61074 218.682 3.08476 216.493C1.55879 214.303 0.584344 211.778 0.24436 209.131C-0.0956248 206.484 0.208916 203.794 1.13206 201.29C2.06901 198.748 26.1018 136.71 30.2873 125.928L59.2084 142.759C56.8565 148.821 48.3335 171.801 41.4864 190.313L52.8618 189.076L56.44 219.363L18.4644 223.489C17.8692 223.554 17.2709 223.586 16.6722 223.586Z" fill="#B9FF66"/>
<path d="M111.271 113.029C111.169 113.016 108.386 123.49 86.6653 121.86C71.6282 120.733 67.9617 110.498 67.6172 110.498C69.2384 110.154 71.8712 109.796 72.5913 109.411C74.959 108.139 76.6836 106.59 77.5521 103.267C78.231 100.668 78.5769 90.6611 78.5769 85.6411L101.716 90.8405C101.393 96.5037 99.1358 109.632 107.047 111.956C108.364 112.338 109.782 112.691 111.271 113.029Z" fill="#E98862"/>
<path d="M100.914 101.972C91.7919 102.692 80.0742 98.8404 77.8482 86.6703L75.8401 75.6894C73.6141 63.5193 78.2021 52.4845 89.661 50.3888C101.119 48.2932 111.489 56.5923 113.714 68.7624L114.604 73.6242C115.458 78.2935 117.189 100.688 100.914 101.972Z" fill="#E98862"/>
<path d="M57.7362 112.181C49.5391 112.789 41.1809 113.676 35.1493 119.26C27.8852 125.986 26.5688 134.255 31.2031 157.011C35.1903 176.591 33.6085 185.147 36.2762 221.279C36.3548 222.343 36.5231 224.544 36.5231 224.544L124.21 224.399C124.21 224.399 132.426 176.462 136.962 154.352C140.412 137.543 149.473 117.138 111.269 113.026C111.17 113.015 80.5303 110.49 57.7362 112.181Z" fill="#B9FF66"/>
<path d="M36.5238 224.766C36.4667 224.766 36.4117 224.744 36.3705 224.704C36.3294 224.665 36.3051 224.611 36.303 224.554L33.5549 153.223C33.5537 153.194 33.5583 153.165 33.5684 153.137C33.5785 153.11 33.5938 153.085 33.6136 153.064C33.6333 153.043 33.657 153.025 33.6834 153.013C33.7098 153.001 33.7383 152.994 33.7673 152.993C33.7966 152.991 33.8261 152.995 33.8538 153.004C33.8816 153.014 33.907 153.029 33.9286 153.049C33.9501 153.069 33.9673 153.093 33.979 153.12C33.9907 153.147 33.9967 153.176 33.9966 153.206L36.7447 224.537C36.7468 224.595 36.7257 224.652 36.6858 224.695C36.646 224.738 36.5907 224.763 36.5322 224.766L36.5238 224.766Z" fill="#F3F3F3"/>
<path d="M177.228 137.649L183.388 123.83C183.524 123.526 183.721 123.254 183.967 123.031C184.213 122.808 184.503 122.638 184.819 122.533C185.134 122.428 185.468 122.39 185.799 122.421C186.13 122.452 186.451 122.552 186.741 122.714C187.268 123.029 187.66 123.529 187.839 124.117C188.018 124.705 187.972 125.338 187.711 125.894L186.39 128.857L194.821 121.446C195.744 120.607 197.414 120.165 198.289 121.262C198.653 121.662 198.871 122.174 198.906 122.714C198.942 123.254 198.794 123.791 198.485 124.235C198.496 124.242 198.505 124.25 198.513 124.258C198.519 124.266 198.523 124.274 198.527 124.282L199.951 122.987C200.214 122.747 200.528 122.569 200.87 122.466C201.211 122.362 201.571 122.337 201.923 122.39C202.276 122.444 202.612 122.575 202.907 122.775C203.202 122.975 203.449 123.239 203.63 123.546C203.904 124.036 204.002 124.605 203.908 125.159C203.813 125.712 203.53 126.216 203.108 126.586L202.503 127.138C202.51 127.163 202.514 127.189 202.512 127.215C203.008 126.938 203.586 126.845 204.144 126.955C204.701 127.065 205.201 127.369 205.555 127.814C205.928 128.312 206.099 128.932 206.034 129.55C205.97 130.169 205.675 130.74 205.208 131.151L203.703 132.52C203.738 132.516 203.774 132.52 203.807 132.532C203.84 132.544 203.869 132.563 203.893 132.589C203.92 132.621 203.937 132.66 203.942 132.702C204.452 132.577 204.989 132.624 205.47 132.834C205.951 133.044 206.35 133.407 206.605 133.866C206.863 134.353 206.949 134.914 206.849 135.456C206.749 135.999 206.469 136.492 206.053 136.855L193.36 148.412C191.584 150.029 189.366 151.078 186.99 151.426C184.613 151.774 182.187 151.404 180.023 150.364C178.156 149.467 176.713 147.878 175.999 145.934C175.285 143.991 175.358 141.845 176.201 139.954L177.228 137.649Z" fill="#E98862"/>
<g opacity="0.2">
<path d="M190.175 131.611C190.214 131.654 190.269 131.679 190.326 131.682C190.384 131.685 190.441 131.665 190.484 131.627L198.493 124.568C198.537 124.529 198.564 124.475 198.568 124.416C198.572 124.358 198.552 124.3 198.513 124.256C198.474 124.212 198.42 124.185 198.361 124.182C198.303 124.178 198.245 124.198 198.201 124.236L190.192 131.295C190.17 131.314 190.153 131.337 190.14 131.364C190.127 131.39 190.119 131.418 190.118 131.447C190.116 131.476 190.12 131.505 190.129 131.532C190.138 131.56 190.153 131.585 190.172 131.607L190.175 131.611Z" fill="#0C0C0C"/>
</g>
<g opacity="0.2">
<path d="M193.191 135.229C193.23 135.272 193.284 135.297 193.342 135.3C193.4 135.303 193.457 135.283 193.5 135.245L202.438 127.368C202.46 127.349 202.478 127.325 202.491 127.299C202.503 127.273 202.511 127.245 202.513 127.216C202.514 127.187 202.511 127.158 202.501 127.13C202.492 127.103 202.477 127.078 202.458 127.056C202.418 127.014 202.364 126.988 202.306 126.984C202.248 126.981 202.191 126.999 202.146 127.036L193.208 134.914C193.186 134.933 193.168 134.956 193.155 134.982C193.143 135.008 193.135 135.037 193.133 135.066C193.131 135.095 193.135 135.124 193.145 135.151C193.154 135.179 193.169 135.204 193.188 135.226L193.191 135.229Z" fill="#0C0C0C"/>
</g>
<g opacity="0.2">
<path d="M196.433 139.167C196.472 139.209 196.527 139.235 196.584 139.238C196.642 139.241 196.699 139.221 196.742 139.183L203.872 132.899C203.916 132.86 203.943 132.805 203.946 132.747C203.95 132.688 203.93 132.631 203.891 132.587C203.853 132.543 203.798 132.516 203.74 132.513C203.681 132.509 203.623 132.529 203.58 132.568L196.45 138.851C196.428 138.871 196.41 138.894 196.397 138.92C196.385 138.946 196.377 138.974 196.375 139.003C196.374 139.032 196.378 139.061 196.387 139.089C196.396 139.116 196.411 139.141 196.43 139.163L196.433 139.167Z" fill="#0C0C0C"/>
</g>
<path d="M109.371 89.4988C107.8 81.6057 107.08 76.3396 107.162 70.7842C109.375 66.903 108.793 62.4489 108.29 60.5238C108.924 60.885 109.587 61.1921 110.273 61.4417C110.592 61.5526 110.936 61.5702 111.264 61.4924C111.593 61.4146 111.892 61.2446 112.127 61.0025C112.363 60.7604 112.524 60.4561 112.592 60.1255C112.66 59.795 112.633 59.4517 112.513 59.1363C110.8 54.7029 106.399 46.088 97.314 43.2012C95.0271 42.311 89.1859 41.1868 81.4345 42.2501C74.8402 43.1548 59.91 49.4108 57.5878 67.711V67.7211C57.5109 68.3281 54.625 83.8643 51.5133 91.9544C47.3304 102.83 41.4574 106.209 41.6063 118.756C41.798 134.897 71.4683 137.045 89.3679 135.838C107.267 134.631 117.256 128.746 117.385 117.114C117.526 104.08 112.513 105.29 109.371 89.4988Z" fill="#0A0A0A"/>
<path d="M109.375 83.9018C105.893 84.5388 102.389 81.3295 101.752 77.8472C101.115 74.365 102.702 70.7842 107.161 70.7842L109.375 83.9018Z" fill="#E98862"/>
<path d="M146.832 221.08C143.329 221.08 139.917 219.969 137.084 217.909C134.252 215.848 132.145 212.943 131.066 209.611L108.051 138.43L139.575 128.237L151.678 165.677L172.596 132.411L200.645 150.048L160.852 213.332C159.361 215.704 157.292 217.658 154.841 219.013C152.389 220.368 149.633 221.079 146.832 221.08Z" fill="#B9FF66"/>
<path d="M128.26 201.425C128.247 201.425 128.233 201.424 128.219 201.422C128.162 201.411 128.111 201.378 128.078 201.329C128.045 201.281 128.032 201.222 128.043 201.164L135.867 158.694C135.872 158.666 135.883 158.638 135.898 158.614C135.914 158.59 135.935 158.569 135.958 158.552C135.982 158.536 136.009 158.524 136.038 158.518C136.066 158.512 136.095 158.512 136.124 158.517C136.152 158.522 136.18 158.533 136.204 158.549C136.228 158.564 136.249 158.585 136.266 158.609C136.282 158.633 136.294 158.66 136.3 158.688C136.306 158.716 136.306 158.746 136.301 158.774L128.477 201.246C128.467 201.296 128.44 201.342 128.401 201.375C128.361 201.407 128.311 201.425 128.26 201.425Z" fill="#F3F3F3"/>
<path d="M154.493 175.7C154.444 175.7 154.397 175.684 154.358 175.654C154.319 175.624 154.292 175.582 154.279 175.535L151.673 165.496C151.658 165.439 151.667 165.379 151.697 165.329C151.726 165.278 151.775 165.241 151.831 165.227C151.888 165.212 151.948 165.221 151.999 165.25C152.049 165.28 152.086 165.328 152.101 165.385L154.707 175.424C154.715 175.457 154.716 175.491 154.709 175.524C154.703 175.557 154.688 175.588 154.668 175.615C154.647 175.642 154.62 175.663 154.59 175.678C154.56 175.693 154.526 175.7 154.493 175.7H154.493Z" fill="#F3F3F3"/>
<path d="M331.804 174.017H245.44C244.9 174.017 244.366 173.902 243.873 173.68C243.38 173.459 242.939 173.135 242.581 172.731C242.222 172.327 241.953 171.851 241.792 171.335C241.63 170.82 241.58 170.275 241.644 169.739L243.955 150.456C244.066 149.527 244.514 148.672 245.214 148.051C245.913 147.431 246.816 147.088 247.751 147.088H331.804C332.818 147.088 333.79 147.491 334.507 148.208C335.224 148.925 335.627 149.897 335.627 150.911V170.194C335.627 171.208 335.224 172.18 334.507 172.897C333.79 173.614 332.818 174.017 331.804 174.017Z" fill="#292A2E"/>
<path d="M268.804 174.198L272.497 160.024C272.579 159.713 272.594 159.388 272.543 159.07C272.492 158.752 272.375 158.448 272.2 158.178C272.025 157.908 271.795 157.677 271.526 157.501C271.257 157.324 270.954 157.206 270.636 157.153C268.008 156.656 267.688 160.277 267.191 162.012L265.294 151.312C265.005 148.425 261.125 148.331 260.837 151.206C260.817 151.203 260.796 151.207 260.777 151.217C260.869 145.96 255.049 146.367 256.045 150.974C256.024 150.988 256.006 151.005 255.991 151.026C255.019 148.477 251.036 149.67 251.574 152.373L251.883 154.316C251.864 154.297 251.842 154.281 251.817 154.27C251.792 154.259 251.766 154.253 251.739 154.253C251.712 154.252 251.685 154.257 251.66 154.267C251.635 154.276 251.612 154.291 251.592 154.31C250.256 152.418 246.98 153.806 247.484 156.174L250.098 172.586C251.593 183.2 267.214 186.762 268.804 174.198Z" fill="#E98862"/>
<g opacity="0.2">
<path d="M262.662 161.806C262.088 161.752 260.86 151.765 260.63 151.453C260.62 151.397 260.633 151.34 260.666 151.293C260.698 151.247 260.748 151.215 260.804 151.205C260.86 151.196 260.917 151.208 260.964 151.241C261.01 151.274 261.042 151.323 261.052 151.379L262.839 161.557C262.844 161.585 262.843 161.614 262.837 161.642C262.831 161.669 262.819 161.695 262.803 161.719C262.786 161.742 262.765 161.761 262.741 161.776C262.717 161.791 262.69 161.801 262.662 161.806Z" fill="#0C0C0C"/>
</g>
<g opacity="0.2">
<path d="M258.195 162.719C258.139 162.728 258.083 162.714 258.037 162.681C257.992 162.648 257.962 162.598 257.952 162.543L255.954 151.184C255.945 151.128 255.957 151.07 255.99 151.024C256.022 150.977 256.072 150.946 256.128 150.936C256.714 150.882 258.14 162.23 258.374 162.469C258.379 162.497 258.378 162.526 258.372 162.554C258.366 162.582 258.354 162.609 258.337 162.632C258.321 162.655 258.3 162.675 258.275 162.69C258.251 162.705 258.223 162.715 258.195 162.719Z" fill="#0C0C0C"/>
</g>
<g opacity="0.2">
<path d="M253.362 163.737C253.306 163.745 253.25 163.731 253.204 163.698C253.159 163.665 253.129 163.615 253.119 163.56L251.526 154.499C251.518 154.444 251.532 154.388 251.564 154.343C251.597 154.298 251.646 154.268 251.7 154.258C251.755 154.249 251.811 154.261 251.857 154.292C251.903 154.323 251.935 154.371 251.947 154.425L253.541 163.486C253.546 163.514 253.545 163.543 253.539 163.571C253.533 163.599 253.521 163.626 253.504 163.649C253.488 163.673 253.467 163.692 253.442 163.707C253.418 163.722 253.39 163.732 253.362 163.737Z" fill="#0C0C0C"/>
</g>
<path d="M137.517 224.765H34.8518L28.3272 174.636C28.1963 173.63 28.2814 172.608 28.5769 171.638C28.8725 170.667 29.3715 169.771 30.0409 169.009C30.7102 168.247 31.5344 167.636 32.4585 167.218C33.3826 166.799 34.3852 166.583 35.3996 166.583H123.674C125.406 166.583 127.08 167.213 128.382 168.356C129.684 169.499 130.526 171.076 130.75 172.794L137.517 224.765Z" fill="white"/>
<path d="M131.285 172.728C131.041 170.88 130.135 169.184 128.736 167.954C127.336 166.724 125.537 166.044 123.674 166.04H35.4C34.4303 166.04 33.4696 166.225 32.5684 166.583C32.1872 166.733 31.8193 166.915 31.4685 167.126C30.1824 167.893 29.1487 169.019 28.4949 170.366C27.841 171.713 27.5956 173.222 27.7887 174.707L34.3089 224.765H35.4L28.8666 174.57C28.7454 173.641 28.8239 172.696 29.0967 171.799C29.3696 170.902 29.8305 170.074 30.4489 169.37C31.0672 168.665 31.8286 168.101 32.6824 167.714C33.5362 167.327 34.4627 167.127 35.4 167.126H123.674C125.274 167.13 126.817 167.714 128.019 168.769C129.221 169.824 130 171.279 130.212 172.865L136.971 224.765H138.066L131.285 172.728Z" fill="#292A2E"/>
<path d="M131.526 224.765H28.8598L22.3352 174.636C22.2041 173.63 22.2891 172.608 22.5845 171.637C22.8799 170.667 23.379 169.771 24.0484 169.008C24.7177 168.246 25.542 167.636 26.4662 167.217C27.3904 166.799 28.3932 166.583 29.4076 166.583H117.68C119.412 166.583 121.085 167.213 122.387 168.356C123.688 169.499 124.529 171.077 124.753 172.794L131.526 224.765Z" fill="#292A2E"/>
<path d="M125.294 172.728C125.143 171.576 124.733 170.474 124.095 169.504C123.457 168.534 122.607 167.721 121.61 167.126C121.258 166.916 120.89 166.734 120.51 166.583C119.61 166.224 118.651 166.04 117.683 166.04H29.4084C28.3166 166.039 27.2372 166.272 26.2424 166.722C25.2477 167.172 24.3604 167.829 23.6399 168.649C22.9195 169.47 22.3824 170.434 22.0646 171.479C21.7468 172.524 21.6556 173.624 21.7971 174.707L28.3129 224.765H29.4084L22.875 174.57C22.7538 173.641 22.8323 172.696 23.1051 171.799C23.378 170.902 23.8389 170.074 24.4572 169.37C25.0756 168.665 25.837 168.101 26.6908 167.714C27.5446 167.327 28.4711 167.127 29.4084 167.126H117.681C119.281 167.13 120.824 167.714 122.026 168.769C123.228 169.824 124.007 171.279 124.219 172.865L130.978 224.765H132.073L125.294 172.728Z" fill="#292A2E"/>
<path d="M305.789 115.217C305.89 115.204 307.014 133.855 328.681 132.229C343.681 131.105 349.029 115.191 349.373 115.191C347.755 114.848 345.032 114.348 344.314 113.964C341.952 112.695 338.587 111.375 337.826 106.788C337.388 104.144 338.132 90.62 337.903 87.9448L315.32 93.0837C315.642 98.7331 317.894 111.829 310.002 114.147C308.69 114.531 307.274 114.885 305.789 115.217Z" fill="#E98862"/>
<path d="M315.955 101.894C325.048 102.596 336.72 98.7378 338.918 86.6043L340.901 75.6561C343.099 63.5222 338.507 52.532 327.083 50.4629C315.658 48.3933 305.338 56.6831 303.14 68.8166L302.262 73.6634C301.99 75.3328 301.831 77.0189 301.788 78.7099C301.641 83.1782 301.435 89.9744 303.644 94.9662C305.733 99.6809 310.148 101.446 315.955 101.894Z" fill="#E98862"/>
<path d="M336.347 49.8412C332.737 48.7156 328.993 48.0787 325.215 47.9474C324.848 46.5051 324.033 45.3853 322.833 44.9153C320.835 44.1347 318.395 45.3919 316.771 47.814C315.869 46.4305 314.645 45.1839 313.024 44.6776C308.552 43.2848 308.33 49.7096 308.33 49.7096C308.33 49.7096 301.238 42.7119 301.017 51.6369C300.749 62.4354 302.732 65.6023 304.18 66.4018C307.039 67.9806 309.169 67.7138 310.3 70.0365C313.726 77.0704 310.368 96.8832 314.333 99.364C320.407 103.163 332.848 103.296 336.889 103.007C338.442 102.895 339.896 101.094 340.551 99.6803C342.664 95.1162 347.378 84.7687 348.689 80.4895C351.11 72.5938 350.928 54.6023 336.347 49.8412Z" fill="#0C0C0C"/>
<path d="M311.617 92.2877C315.125 91.9069 317.561 87.8455 317.18 84.3363C316.799 80.827 313.746 79.2032 310.238 79.5835L308.686 82.1302L308.602 92.6137L311.617 92.2877Z" fill="#E98862"/>
<path d="M370.211 221.841L370.32 221.847C370.32 221.847 370.241 219.753 370.211 221.841Z" fill="#333333"/>
<path d="M274.64 156.485C275.325 164.531 278.656 214.724 279.315 224.634H370.057C370.57 215.696 372.871 176.616 374.815 159.136C376.671 142.458 380.311 134.108 377.642 129.177C373.282 121.119 361.366 116.462 353.242 115.362C348.28 114.69 347.258 114.209 345.235 114.209H310.298C306.975 114.209 285.759 117.41 281.41 120.608C269.374 129.458 273.187 139.436 274.64 156.485Z" fill="#B9FF66"/>
<path d="M389.432 224.108C392.102 224.108 394.731 223.464 397.097 222.229C399.464 220.994 401.496 219.205 403.022 217.015C404.549 214.826 405.523 212.3 405.863 209.652C406.203 207.005 405.898 204.315 404.974 201.81C404.037 199.268 382.059 141.07 377.876 130.286L346.895 142.839C349.247 148.902 357.771 171.884 364.618 190.397L353.242 189.16L349.661 222.1L387.64 224.011C388.235 224.076 388.834 224.108 389.432 224.108Z" fill="#B9FF66"/>
<path d="M371.751 159.474L369.521 224.625L370.125 224.646L372.354 159.495L371.751 159.474Z" fill="#F3F3F3"/>
<path d="M261.516 224.108C258.847 224.108 256.218 223.463 253.851 222.228C251.485 220.993 249.453 219.204 247.926 217.015C246.4 214.825 245.426 212.299 245.086 209.652C244.746 207.004 245.051 204.314 245.975 201.81C246.912 199.268 269.81 140.812 273.994 130.029L304.054 142.839C301.702 148.902 293.178 171.885 286.33 190.398L297.707 189.161L301.287 222.101L263.309 224.012C262.713 224.076 262.115 224.108 261.516 224.108Z" fill="#B9FF66"/>
<path d="M286.259 186.536C286.207 186.536 286.155 186.524 286.109 186.5C286.062 186.476 286.022 186.442 285.991 186.4C285.961 186.358 285.94 186.309 285.932 186.258C285.924 186.207 285.928 186.154 285.943 186.104L293.986 160.782C293.999 160.739 294.019 160.7 294.047 160.665C294.075 160.631 294.109 160.602 294.148 160.581C294.187 160.56 294.23 160.547 294.274 160.543C294.318 160.539 294.363 160.544 294.405 160.558C294.447 160.571 294.486 160.593 294.52 160.622C294.554 160.65 294.581 160.686 294.601 160.725C294.621 160.765 294.633 160.808 294.635 160.852C294.638 160.896 294.632 160.941 294.618 160.983L286.575 186.302C286.554 186.37 286.512 186.429 286.455 186.471C286.398 186.513 286.33 186.536 286.259 186.536Z" fill="#F3F3F3"/>
<path d="M389.329 174.636L382.801 224.765H280.139L286.907 172.794C287.131 171.077 287.972 169.5 289.273 168.357C290.574 167.214 292.247 166.583 293.979 166.583H382.253C383.268 166.582 384.271 166.798 385.196 167.216C386.12 167.635 386.945 168.245 387.615 169.007C388.284 169.77 388.784 170.666 389.08 171.637C389.375 172.607 389.46 173.63 389.329 174.636Z" fill="white"/>
<path d="M388.021 168.65C387.493 168.05 386.875 167.535 386.188 167.126C385.836 166.915 385.466 166.733 385.084 166.583C384.182 166.225 383.222 166.04 382.252 166.04H293.978C292.115 166.045 290.317 166.725 288.917 167.955C287.517 169.185 286.611 170.881 286.367 172.728L279.59 224.765H280.685L287.444 172.865C287.654 171.279 288.432 169.824 289.634 168.769C290.835 167.713 292.379 167.13 293.978 167.126H382.252C383.189 167.127 384.116 167.328 384.97 167.715C385.823 168.102 386.585 168.666 387.204 169.37C387.822 170.075 388.284 170.903 388.557 171.799C388.831 172.696 388.91 173.64 388.79 174.57L382.252 224.765H383.348L389.863 174.707C390.005 173.624 389.913 172.524 389.596 171.48C389.278 170.435 388.741 169.471 388.021 168.65Z" fill="#292A2E"/>
<path d="M395.318 174.636L388.789 224.765H286.127L292.895 172.794C293.057 171.551 293.544 170.373 294.306 169.378C295.068 168.383 296.079 167.606 297.237 167.126C298.102 166.766 299.03 166.581 299.967 166.583H388.245C389.26 166.583 390.262 166.8 391.186 167.218C392.11 167.637 392.934 168.247 393.604 169.009C394.273 169.772 394.772 170.668 395.068 171.638C395.363 172.608 395.448 173.63 395.318 174.636Z" fill="#292A2E"/>
<path d="M394.011 168.65C393.29 167.831 392.403 167.174 391.409 166.724C390.415 166.274 389.337 166.041 388.246 166.04H299.968C298.586 166.042 297.23 166.417 296.045 167.126C295.047 167.721 294.196 168.533 293.557 169.503C292.919 170.474 292.508 171.576 292.356 172.728L285.58 224.765H286.675L293.434 172.865C293.644 171.279 294.422 169.824 295.623 168.769C296.825 167.713 298.368 167.13 299.967 167.126H388.246C389.183 167.127 390.11 167.327 390.963 167.714C391.817 168.101 392.579 168.665 393.197 169.37C393.815 170.074 394.276 170.902 394.549 171.799C394.822 172.696 394.9 173.641 394.779 174.57L388.246 224.765H389.337L395.858 174.707C395.997 173.624 395.905 172.524 395.586 171.48C395.268 170.435 394.731 169.471 394.011 168.65Z" fill="#292A2E"/>
<path d="M0.418597 225.075H403.918C404 225.075 404.078 225.043 404.136 224.985C404.194 224.927 404.227 224.848 404.227 224.766C404.227 224.684 404.194 224.606 404.136 224.548C404.078 224.49 404 224.457 403.918 224.457H0.418597C0.336586 224.457 0.257935 224.49 0.199944 224.548C0.141954 224.606 0.109375 224.684 0.109375 224.766C0.109375 224.848 0.141954 224.927 0.199944 224.985C0.257935 225.043 0.336586 225.075 0.418597 225.075Z" fill="#292A2E"/>
<g opacity="0.65">
<path d="M0.418597 225.075H403.918C404 225.075 404.078 225.043 404.136 224.985C404.194 224.927 404.227 224.848 404.227 224.766C404.227 224.684 404.194 224.606 404.136 224.548C404.078 224.49 404 224.457 403.918 224.457H0.418597C0.336586 224.457 0.257935 224.49 0.199944 224.548C0.141954 224.606 0.109375 224.684 0.109375 224.766C0.109375 224.848 0.141954 224.927 0.199944 224.985C0.257935 225.043 0.336586 225.075 0.418597 225.075Z" fill="#292A2E"/>
</g>
<path d="M244.953 207.81L246.374 170.46L265.998 169.421L267.784 207.81H244.953Z" fill="#B9FF66"/>
</svg>
