<svg width="374" height="192" viewBox="0 0 374 192" fill="none" xmlns="http://www.w3.org/2000/svg">
<g clip-path="url(#clip0_1033_7581)">
<path d="M20.6691 191.5C7.08014 191.5 -2.78266 178.576 0.707273 165.399C6.27677 144.359 22.2343 116.15 66.8376 102.77C126.079 84.9997 122.758 13.3726 170.075 13.3726C217.392 13.3726 217.641 49.748 231.747 53.4473C245.853 57.1466 293.145 46.161 303.709 78.5878C323.236 138.529 349.447 109.633 369.787 155.792C371.051 158.685 372.146 161.649 373.067 164.67C377.165 178 367.215 191.5 353.312 191.5H20.6691Z" fill="#F3F5FD"/>
<path d="M195.156 141.267H156.359V185.329H195.156V141.267Z" fill="#EBFFD2"/>
<path d="M195.156 141.267H156.359V172.249H195.156V141.267Z" fill="#C1D8ED"/>
<path d="M270.183 0.5H81.3318C77.1962 0.5 73.8438 3.86357 73.8438 8.01275V155.306C73.8438 159.455 77.1962 162.819 81.3318 162.819H270.183C274.318 162.819 277.671 159.455 277.671 155.306V8.01275C277.671 3.86357 274.318 0.5 270.183 0.5Z" fill="#EBFFD2"/>
<path d="M269.717 5.62451H81.7965C79.9683 5.62451 78.4863 7.11141 78.4863 8.94559V137.796C78.4863 139.631 79.9683 141.117 81.7965 141.117H269.717C271.545 141.117 273.027 139.631 273.027 137.796V8.94559C273.027 7.11141 271.545 5.62451 269.717 5.62451Z" fill="white"/>
<path d="M273.027 8.945V137.797C273.027 138.678 272.678 139.522 272.057 140.145C271.436 140.768 270.594 141.118 269.716 141.118H121.793V5.62256H269.716C270.15 5.62249 270.581 5.70838 270.983 5.87532C271.385 6.04227 271.75 6.287 272.057 6.59554C272.365 6.90407 272.609 7.27036 272.775 7.67349C272.941 8.07662 273.027 8.50868 273.027 8.945Z" fill="white"/>
<g opacity="0.57">
<path d="M265.05 9.54395H237.078V37.608H265.05V9.54395Z" fill="#EBFFD2"/>
</g>
<g opacity="0.57">
<path d="M265.05 42.5498H237.078V70.6138H265.05V42.5498Z" fill="#EBFFD2"/>
</g>
<g opacity="0.57">
<path d="M265.05 75.8628H237.078V103.927H265.05V75.8628Z" fill="#EBFFD2"/>
</g>
<g opacity="0.57">
<path d="M265.05 109.176H237.078V137.24H265.05V109.176Z" fill="#EBFFD2"/>
</g>
<g opacity="0.57">
<path d="M124.102 5.62256V141.118H81.7967C81.362 141.118 80.9315 141.032 80.5298 140.865C80.1282 140.698 79.7632 140.454 79.4558 140.145C79.1484 139.837 78.9046 139.471 78.7382 139.068C78.5719 138.665 78.4863 138.233 78.4863 137.797V8.945C78.4862 8.50874 78.5717 8.07673 78.738 7.67364C78.9043 7.27055 79.1481 6.90428 79.4555 6.59574C79.763 6.28721 80.1279 6.04247 80.5297 5.87549C80.9314 5.7085 81.3619 5.62256 81.7967 5.62256H124.102Z" fill="#EBFFD2"/>
</g>
<path d="M207.406 181.38H144.11C141.324 181.38 139.066 183.645 139.066 186.44C139.066 189.234 141.324 191.5 144.11 191.5H207.406C210.192 191.5 212.45 189.234 212.45 186.44C212.45 183.645 210.192 181.38 207.406 181.38Z" fill="#EBFFD2"/>
<path d="M113.677 30.8518C113.677 33.3093 112.951 35.7116 111.59 37.7549C110.229 39.7983 108.295 41.3909 106.032 42.3313C103.769 43.2718 101.279 43.5179 98.8766 43.0384C96.4743 42.559 94.2676 41.3756 92.5355 39.6378C90.8035 37.9001 89.624 35.6861 89.1462 33.2758C88.6683 30.8655 88.9136 28.3672 89.8509 26.0967C90.7883 23.8263 92.3756 21.8857 94.4123 20.5204C96.4489 19.1551 98.8433 18.4263 101.293 18.4263C102.92 18.4213 104.533 18.7393 106.038 19.362C107.543 19.9846 108.91 20.8997 110.061 22.0545C111.212 23.2093 112.124 24.5811 112.745 26.0908C113.365 27.6006 113.682 29.2186 113.677 30.8518Z" fill="#EBFFD2"/>
<path d="M101.293 32.1318C104.001 32.1318 106.196 29.9296 106.196 27.2131C106.196 24.4966 104.001 22.2944 101.293 22.2944C98.5855 22.2944 96.3906 24.4966 96.3906 27.2131C96.3906 29.9296 98.5855 32.1318 101.293 32.1318Z" fill="white"/>
<path d="M110.217 39.4672C109.061 40.6719 107.676 41.6303 106.142 42.285C104.609 42.9396 102.959 43.277 101.293 43.277C99.6266 43.277 97.9773 42.9396 96.4439 42.285C94.9106 41.6303 93.5246 40.6719 92.3691 39.4672C94.0389 35.7232 97.4099 33.1646 101.293 33.1646C105.176 33.1646 108.547 35.7232 110.217 39.4672Z" fill="white"/>
<path d="M117.73 56.5815H84.8574V60.1648H117.73V56.5815Z" fill="white"/>
<path d="M117.73 66.3335H84.8574V69.9167H117.73V66.3335Z" fill="white"/>
<path d="M117.73 76.085H84.8574V79.6682H117.73V76.085Z" fill="white"/>
<path d="M117.73 85.8369H84.8574V89.4201H117.73V85.8369Z" fill="white"/>
<g opacity="0.57">
<path d="M230.018 9.54395H129.469V65.0575H230.018V9.54395Z" fill="#EBFFD2"/>
</g>
<g opacity="0.57">
<path d="M230.018 69.9165H129.469V73.3711H230.018V69.9165Z" fill="#EBFFD2"/>
</g>
<g opacity="0.57">
<path d="M230.018 112.61H129.469V116.065H230.018V112.61Z" fill="#EBFFD2"/>
</g>
<g opacity="0.57">
<path d="M230.018 78.4551H129.469V81.9097H230.018V78.4551Z" fill="#EBFFD2"/>
</g>
<g opacity="0.57">
<path d="M230.018 86.9941H129.469V90.4487H230.018V86.9941Z" fill="#EBFFD2"/>
</g>
<g opacity="0.57">
<path d="M230.018 95.5327H129.469V98.9873H230.018V95.5327Z" fill="#EBFFD2"/>
</g>
<g opacity="0.57">
<path d="M230.018 104.072H129.469V107.526H230.018V104.072Z" fill="#EBFFD2"/>
</g>
<g opacity="0.57">
<path d="M198.384 122.196H161.102V132.105H198.384V122.196Z" fill="#EBFFD2"/>
</g>
<path d="M58.3304 191.5H14.6935C11.4925 188.937 11.2714 183.162 14.5894 180.584C17.1467 178.597 21.0128 179.128 23.4161 181.195C22.967 179.656 22.9581 178.022 23.3903 176.478C24.1722 173.699 25.9093 170.874 28.5622 169.749C35.3313 166.884 40.1415 172.888 41.1053 176.245C42.8383 173.688 46.7158 172.337 49.1493 174.058C52.2318 176.238 52.0925 179.675 49.6333 182.143C52.9097 181.53 55.3774 182.003 57.6501 184.45C59.3814 186.313 59.6463 189.487 58.3304 191.5Z" fill="#78DE00"/>
<path d="M356.288 191.5H296.848C292.488 188.009 292.187 180.143 296.707 176.63C300.19 173.923 305.456 174.647 308.73 177.463C308.119 175.367 308.107 173.14 308.696 171.037C309.76 167.25 312.127 163.403 315.74 161.871C324.961 157.967 331.514 166.146 332.827 170.72C335.188 167.236 340.469 165.395 343.784 167.741C347.983 170.711 347.794 175.393 344.444 178.753C348.907 177.918 352.268 178.563 355.364 181.896C357.72 184.434 358.08 188.758 356.288 191.5Z" fill="#78DE00"/>
<path d="M46.4453 79.3808C46.4453 79.3808 48.5455 78.2636 48.0765 72.5261L52.4154 71.7188C52.4154 71.7188 51.9265 76.863 54.1232 78.4963L46.4453 79.3808Z" fill="#E98862"/>
<g opacity="0.15">
<path d="M53.2335 77.4208L49.6289 74.6539L52.46 74.6245C52.5419 75.5968 52.8042 76.5452 53.2335 77.4208Z" fill="black"/>
</g>
<path d="M45.6143 70.3012C45.9147 72.0419 46.8614 73.6904 48.3921 74.2523C50.2088 74.9199 51.5545 74.9651 53.6493 74.9651C56.5078 74.9651 56.4133 71.974 56.4936 68.96C56.5751 65.9338 56.3345 62.6876 55.2047 61.6331C52.9505 59.5284 46.331 60.8614 45.5257 64.382C45.1094 66.203 45.3291 68.6442 45.6143 70.3012Z" fill="#E98862"/>
<path d="M58.0258 63.3832C58.0258 63.3832 59.1966 63.1208 58.8761 61.9497C58.6635 61.1728 57.6716 61.3453 57.6716 61.3453C57.6716 61.3453 58.6108 61.1728 58.6108 60.3502C58.6108 59.8324 58.214 58.9539 57.0163 59.4559C55.6111 60.0447 54.0087 59.969 52.7901 59.7635C52.1008 59.6121 51.4011 59.513 50.6969 59.467H50.6934C49.8839 59.4528 49.0769 59.5611 48.2996 59.7883C46.1214 60.4423 42.8249 62.4014 43.5256 66.8438C44.3078 71.8014 46.6266 73.6974 47.6467 74.3056C47.7071 74.3421 47.7749 74.3643 47.8451 74.3707C47.9153 74.377 47.986 74.3672 48.0518 74.3421C48.1177 74.317 48.177 74.2772 48.2253 74.2257C48.2736 74.1742 48.3096 74.1123 48.3306 74.0448C48.6198 73.1157 49.1182 70.7777 48.9791 65.9569C55.6744 65.6274 57.6005 65.5274 57.6005 65.5274C57.6005 65.5274 59.1757 65.5868 59.1757 64.4315C59.1757 63.2761 58.0258 63.3832 58.0258 63.3832Z" fill="#0F1011"/>
<path d="M52.4092 68.9601C52.6265 68.9601 52.8027 68.7833 52.8027 68.5652C52.8027 68.3472 52.6265 68.1704 52.4092 68.1704C52.1918 68.1704 52.0156 68.3472 52.0156 68.5652C52.0156 68.7833 52.1918 68.9601 52.4092 68.9601Z" fill="#0F1011"/>
<path d="M55.5127 68.7052C55.73 68.7052 55.9062 68.5284 55.9062 68.3104C55.9062 68.0923 55.73 67.9155 55.5127 67.9155C55.2953 67.9155 55.1191 68.0923 55.1191 68.3104C55.1191 68.5284 55.2953 68.7052 55.5127 68.7052Z" fill="#0F1011"/>
<path d="M56.1949 67.4687H56.192L55.1493 67.4553C55.125 67.455 55.1011 67.45 55.0787 67.4404C55.0564 67.4308 55.0362 67.4169 55.0193 67.3994C55.0023 67.382 54.989 67.3614 54.98 67.3387C54.971 67.3161 54.9665 67.2919 54.9668 67.2676C54.9688 67.2188 54.9893 67.1726 55.0241 67.1386C55.059 67.1045 55.1055 67.0851 55.1542 67.0845L56.1966 67.0976C56.2456 67.0978 56.2926 67.1177 56.327 67.1527C56.3615 67.1877 56.3807 67.235 56.3804 67.2842C56.3801 67.3334 56.3604 67.3805 56.3255 67.4151C56.2906 67.4497 56.2435 67.469 56.1944 67.4687H56.1949Z" fill="#0F1011"/>
<path d="M51.5587 67.8504C51.5132 67.8506 51.4693 67.8339 51.4353 67.8037C51.4013 67.7735 51.3796 67.7318 51.3743 67.6865C51.369 67.6412 51.3805 67.5956 51.4066 67.5583C51.4327 67.521 51.4715 67.4946 51.5158 67.4842L52.5437 67.2362C52.5675 67.2301 52.5922 67.2289 52.6164 67.2325C52.6406 67.2361 52.6639 67.2444 52.6849 67.2571C52.7058 67.2698 52.7241 67.2865 52.7386 67.3064C52.753 67.3262 52.7634 67.3487 52.7692 67.3726C52.7749 67.3965 52.7759 67.4212 52.772 67.4455C52.7681 67.4698 52.7594 67.493 52.7465 67.5139C52.7336 67.5348 52.7167 67.5529 52.6967 67.5671C52.6768 67.5814 52.6542 67.5915 52.6304 67.597L51.6021 67.8452C51.5879 67.8485 51.5733 67.8502 51.5587 67.8504Z" fill="#0F1011"/>
<path d="M50.3627 69.5319C50.3838 69.7527 50.3609 69.9755 50.2955 70.1873C50.23 70.3992 50.1233 70.5959 49.9814 70.766C49.8395 70.9361 49.6653 71.0762 49.469 71.1782C49.2726 71.2802 49.0581 71.342 48.8377 71.3601C48.6174 71.3781 48.3956 71.352 48.1854 71.2834C47.9752 71.2147 47.7807 71.1048 47.6132 70.9601C47.4457 70.8153 47.3085 70.6386 47.2096 70.4402C47.1108 70.2418 47.0522 70.0257 47.0373 69.8043C47.0156 69.5845 47.0381 69.3626 47.1037 69.1517C47.1692 68.9408 47.2764 68.7453 47.4188 68.5769C47.5613 68.4084 47.736 68.2705 47.9327 68.1712C48.1294 68.072 48.344 68.0134 48.5637 67.9991C49.7527 67.9615 50.2874 68.6103 50.3627 69.5319Z" fill="#E98862"/>
<g opacity="0.15">
<path d="M54.1554 70.7554C54.1229 70.7554 54.0914 70.7437 54.0668 70.7224C54.0421 70.7012 54.0259 70.6717 54.021 70.6394C54.0162 70.6071 54.0231 70.5742 54.0404 70.5466C54.0577 70.5189 54.0844 70.4985 54.1155 70.4889L54.9159 70.2423L54.3558 68.9916C54.3485 68.9753 54.3445 68.9577 54.3439 68.9398C54.3434 68.9219 54.3463 68.9041 54.3527 68.8873C54.359 68.8706 54.3685 68.8553 54.3807 68.8422C54.393 68.8292 54.4076 68.8187 54.4239 68.8114C54.4401 68.804 54.4577 68.7999 54.4755 68.7994C54.4933 68.7988 54.5111 68.8018 54.5278 68.8081C54.5445 68.8145 54.5598 68.8241 54.5727 68.8363C54.5857 68.8486 54.5962 68.8633 54.6035 68.8796L55.2266 70.2712C55.2345 70.2888 55.2385 70.3079 55.2385 70.3272C55.2385 70.3466 55.2344 70.3656 55.2264 70.3832C55.2185 70.4008 55.2069 70.4166 55.1925 70.4293C55.178 70.4421 55.161 70.4516 55.1426 70.4573L54.1951 70.7494C54.1822 70.7534 54.1689 70.7554 54.1554 70.7554Z" fill="black"/>
</g>
<path d="M52.5918 71.6754C52.5918 71.6754 54.0445 71.8291 55.0633 71.4722C55.0633 71.4722 55.0551 72.4319 53.9057 72.5264C52.7564 72.621 52.5918 71.6754 52.5918 71.6754Z" fill="white"/>
<path d="M75.4609 79.4009C75.4609 79.4009 75.5017 76.1284 77.8333 76.2984C79.3042 76.4058 86.2936 76.0804 86.3976 76.7191C86.6551 78.2995 80.2618 78.6859 79.6817 80.1585L75.4609 79.4009Z" fill="#E98862"/>
<path d="M77.0078 76.4033C77.0078 76.4033 80.253 75.3423 81.0507 75.5314C81.7568 75.6998 80.2848 76.8529 80.2848 76.8529L77.0078 76.4033Z" fill="#E98862"/>
<path d="M74.1522 181.996L68.8223 184.033L71.1072 190.052L76.4372 188.016L74.1522 181.996Z" fill="#E98862"/>
<path d="M82.8999 191.449C83.0533 191.448 83.2049 191.416 83.3452 191.354C83.4855 191.292 83.6116 191.201 83.7154 191.088C83.8193 190.975 83.8988 190.841 83.949 190.696C83.9991 190.55 84.0188 190.396 84.0069 190.243C83.9904 190.03 83.9137 189.827 83.7858 189.656C83.6579 189.486 83.4841 189.356 83.285 189.281L76.6465 187.05C76.5179 187.008 76.3817 186.993 76.247 187.008C76.1124 187.023 75.9826 187.067 75.8665 187.137C74.9539 187.773 73.8622 188.097 72.7519 188.064C71.8872 188.002 71.0572 187.698 70.3565 187.186C70.2949 187.135 70.2202 187.103 70.1411 187.093C70.0621 187.084 69.9819 187.097 69.9099 187.131C69.8379 187.165 69.7772 187.219 69.7347 187.287C69.6922 187.355 69.6697 187.433 69.6699 187.513V190.77C69.6699 190.866 69.6888 190.961 69.7256 191.05C69.7623 191.138 69.8162 191.219 69.884 191.287C69.9519 191.355 70.0324 191.408 70.121 191.445C70.2096 191.481 70.3045 191.5 70.4002 191.499L82.8999 191.449Z" fill="#C1D8ED"/>
<path d="M49.8186 189.236L44.1152 189.217C44.1152 189.217 44.1342 183.308 44.1342 182.785H49.8376C49.8376 183.31 49.8186 189.236 49.8186 189.236Z" fill="#E98862"/>
<path d="M60.438 109.894L60.3655 109.915L60.1534 108.463L39.4916 107.182C39.4916 107.182 38.9004 117.335 38.9004 120.725C38.9004 131.035 41.2439 164.984 42.6339 187.103L52.6695 186.587C52.0024 165.038 50.877 143.461 50.8142 121.908C56.7314 143.715 62.6363 165.735 67.4505 187.818L77.2302 185.502C77.2302 185.502 65.4125 134.314 60.438 109.894Z" fill="#262626"/>
<path d="M56.7515 191.449C56.9048 191.448 57.0564 191.416 57.1967 191.354C57.3371 191.292 57.4631 191.201 57.567 191.088C57.6709 190.975 57.7504 190.841 57.8005 190.696C57.8507 190.55 57.8704 190.396 57.8585 190.243C57.8419 190.03 57.7652 189.827 57.6373 189.656C57.5094 189.486 57.3357 189.356 57.1366 189.281L50.4981 187.05C50.3695 187.008 50.2332 186.993 50.0986 187.008C49.964 187.023 49.8342 187.067 49.7181 187.137C48.8054 187.773 47.7137 188.097 46.6035 188.064C45.7388 188.002 44.9088 187.698 44.2081 187.186C44.1465 187.135 44.0718 187.103 43.9927 187.093C43.9136 187.084 43.8334 187.097 43.7615 187.131C43.6895 187.165 43.6287 187.219 43.5862 187.287C43.5437 187.355 43.5213 187.433 43.5215 187.513V190.77C43.5215 190.866 43.5404 190.961 43.5771 191.05C43.6139 191.138 43.6677 191.219 43.7356 191.287C43.8034 191.355 43.884 191.408 43.9725 191.445C44.0611 191.481 44.156 191.5 44.2518 191.499L56.7515 191.449Z" fill="#C1D8ED"/>
<path d="M61.8025 109.375C60.6649 111.999 39.7149 113.089 39.4162 108.473C39.2261 105.536 41.7847 102.972 41.7847 97.2467C41.7847 91.5217 36.5232 85.5927 40.8007 81.301C42.0419 80.0558 42.8078 77.8701 45.4205 77.8677C45.616 79.3963 54.8664 79.4018 54.937 77.9031C55.2901 77.9086 55.5644 77.914 55.7355 77.9222C64.7469 78.3118 59.9381 88.601 59.8512 96.1598C59.7452 105.004 62.9761 106.672 61.8025 109.375Z" fill="white"/>
<path d="M54.9364 77.9026C54.8658 79.4013 54.0538 81.6057 51.547 81.7719C48.2064 81.9927 45.6155 79.3958 45.4199 77.8672H45.4281C48.717 77.8672 53.019 77.8726 54.9364 77.9026Z" fill="#E98862"/>
<path d="M75.1872 77.4888L69.3733 88.3798L60.4214 79.6183C59.6135 78.5891 58.3402 77.9476 56.3935 77.8621C56.2455 77.8555 54.7183 77.8076 54.6281 77.8983C54.0822 78.446 53.7811 88.0959 54.0526 93.4574C54.3492 99.2613 54.0442 106.509 54.3202 110.676C54.338 110.95 54.4122 111.217 54.5381 111.46C54.664 111.703 54.8388 111.917 55.0515 112.089C55.2643 112.261 55.5102 112.387 55.7739 112.459C56.0376 112.53 56.3132 112.546 56.5833 112.506C59.5116 112.057 61.7949 111.291 62.1281 110.524C63.3011 107.821 60.5936 105.003 60.6995 96.1577C60.7267 93.7772 61.1295 91.1167 61.4103 88.579L68.1055 95.1321C68.422 95.4418 68.8059 95.6735 69.227 95.8088C69.648 95.9441 70.0946 95.9793 70.5316 95.9117C70.9685 95.844 71.3838 95.6754 71.7446 95.4191C72.1055 95.1628 72.4019 94.8258 72.6107 94.4348L80.2152 80.1891L75.1872 77.4888Z" fill="#B9FF66"/>
<path d="M66.5932 98.1676L51.4567 98.6308L48.2134 91.8213C47.69 86.6046 46.9969 82.1587 46.6789 79.8264C46.2715 77.6664 46.4888 77.8193 45.467 77.8185C42.8543 77.8212 40.6634 78.6733 39.4223 79.9186C35.1447 84.2102 40.3945 91.5238 40.3945 97.246C40.3945 102.968 37.8144 105.535 38.0046 108.472C38.1216 110.307 39.0564 112.628 46.1045 113.125C46.6751 113.166 47.2394 112.985 47.6809 112.62C48.1223 112.254 48.4072 111.733 48.4768 111.164C48.7282 108.961 48.8601 106.746 48.8717 104.529C49.1147 104.594 49.3651 104.628 49.6167 104.629C49.6468 104.629 49.6772 104.629 49.7074 104.629L66.7736 104.107L66.5932 98.1676Z" fill="#B9FF66"/>
<path d="M44.7458 84.3358L45.4193 82.1204L44.1211 81.2675L45.1882 77.826C45.8412 77.7989 46.4953 77.8126 47.1466 77.8669C47.7876 80.0168 48.4774 89.2487 48.7273 92.8537L44.7458 84.3358Z" fill="#7AE100"/>
<path d="M55.9901 82.1204L56.995 85.4256L54.0917 94.3033C54.0917 94.3033 53.5132 80.8914 54.2818 77.8859C54.5526 77.8491 54.8254 77.8286 55.0987 77.8243C55.6566 77.8164 56.2299 77.8546 56.2299 77.8546L57.2891 81.2675L55.9901 82.1204Z" fill="#7AE100"/>
<g opacity="0.24">
<path d="M44.7458 84.3358L45.4193 82.1204L44.1211 81.2675L45.1882 77.826C45.8412 77.7989 46.4953 77.8126 47.1466 77.8669C47.7876 80.0168 48.4774 89.2487 48.7273 92.8537L44.7458 84.3358Z" fill="white"/>
</g>
<g opacity="0.24">
<path d="M55.9901 82.1204L56.995 85.4256L54.0917 94.3033C54.0917 94.3033 53.5132 80.8914 54.2818 77.8859C54.5526 77.8491 54.8254 77.8286 55.0987 77.8243C55.6566 77.8164 56.2299 77.8546 56.2299 77.8546L57.2891 81.2675L55.9901 82.1204Z" fill="white"/>
</g>
<path d="M65.3768 84.0028L62.0789 97.8917C62.0276 98.1079 62.0258 98.3328 62.0736 98.5498C62.1214 98.7667 62.2175 98.97 62.3547 99.1443C62.492 99.3187 62.6668 99.4596 62.866 99.5565C63.0653 99.6534 63.2839 99.7037 63.5053 99.7038H82.9468C83.268 99.7037 83.5803 99.5978 83.8358 99.4024C84.0912 99.207 84.2756 98.9328 84.3607 98.622L88.1605 84.7331C88.2201 84.5147 88.2287 84.2854 88.1855 84.0631C88.1424 83.8409 88.0487 83.6316 87.9117 83.4516C87.7748 83.2716 87.5983 83.1258 87.3959 83.0254C87.1936 82.9251 86.9709 82.8729 86.7453 82.873H66.8032C66.4735 82.8731 66.1534 82.9846 65.8946 83.1895C65.6358 83.3945 65.4534 83.681 65.3768 84.0028Z" fill="#191A23"/>
<path d="M78.6561 97.9746H55.1584C54.6826 97.9746 54.2969 98.3616 54.2969 98.8389C54.2969 99.3163 54.6826 99.7033 55.1584 99.7033H78.6561C79.1319 99.7033 79.5176 99.3163 79.5176 98.8389C79.5176 98.3616 79.1319 97.9746 78.6561 97.9746Z" fill="#191A23"/>
<path d="M75.9165 93.458C77.1863 93.458 78.2158 92.4252 78.2158 91.1511C78.2158 89.8771 77.1863 88.8442 75.9165 88.8442C74.6466 88.8442 73.6172 89.8771 73.6172 91.1511C73.6172 92.4252 74.6466 93.458 75.9165 93.458Z" fill="white"/>
<path d="M71.488 101.527C70.2686 102.281 68.381 102.638 66.7352 102.769L66.6426 99.7609C67.4169 99.7391 68.6064 99.6574 69.7713 99.7037C70.2979 99.2729 70.601 99.1448 71.1412 98.6029C71.7167 98.0257 73.2262 97.6791 73.5111 98.6029C73.796 99.5266 72.5581 100.862 71.488 101.527Z" fill="#E98862"/>
<path d="M299.977 111.954C298.085 137.857 295.656 163.766 292.197 189.509L286.664 188.994C287.977 163.054 290.333 137.137 293.216 111.326L299.977 111.954Z" fill="#E98862"/>
<path d="M311.486 117.837C312.24 137.87 314.141 168.249 315.238 188.524L309.708 189.052C307.089 168.627 302.97 138.622 300.725 118.431L311.486 117.837Z" fill="#E98862"/>
<path d="M302.542 191.449C302.389 191.448 302.237 191.416 302.097 191.354C301.956 191.292 301.83 191.201 301.726 191.088C301.623 190.975 301.543 190.841 301.493 190.696C301.443 190.55 301.423 190.396 301.435 190.243C301.452 190.03 301.528 189.827 301.656 189.656C301.784 189.486 301.958 189.356 302.157 189.281L308.795 187.05C308.924 187.008 309.06 186.993 309.195 187.008C309.33 187.023 309.459 187.067 309.575 187.137C310.488 187.773 311.58 188.097 312.69 188.064C313.555 188.002 314.385 187.698 315.085 187.186C315.147 187.135 315.222 187.103 315.301 187.093C315.38 187.084 315.46 187.097 315.532 187.131C315.604 187.165 315.665 187.219 315.707 187.287C315.75 187.355 315.772 187.433 315.772 187.513V190.77C315.772 190.866 315.753 190.961 315.716 191.05C315.68 191.138 315.626 191.219 315.558 191.287C315.49 191.355 315.41 191.408 315.321 191.445C315.232 191.481 315.137 191.5 315.042 191.499L302.542 191.449Z" fill="#C1D8ED"/>
<path d="M279.802 191.449C279.648 191.448 279.497 191.416 279.357 191.354C279.216 191.292 279.09 191.201 278.986 191.088C278.882 190.975 278.803 190.841 278.753 190.696C278.703 190.55 278.683 190.396 278.695 190.243C278.711 190.03 278.788 189.827 278.916 189.656C279.044 189.486 279.218 189.356 279.417 189.281L286.055 187.05C286.184 187.008 286.32 186.993 286.455 187.008C286.589 187.023 286.719 187.067 286.835 187.137C287.748 187.773 288.84 188.097 289.95 188.064C290.815 188.002 291.645 187.698 292.345 187.186C292.407 187.135 292.482 187.103 292.561 187.093C292.64 187.084 292.72 187.097 292.792 187.131C292.864 187.165 292.925 187.219 292.967 187.287C293.01 187.355 293.032 187.433 293.032 187.513V190.77C293.032 190.866 293.013 190.961 292.976 191.05C292.939 191.138 292.886 191.219 292.818 191.287C292.75 191.355 292.669 191.408 292.581 191.445C292.492 191.481 292.397 191.5 292.301 191.499L279.802 191.449Z" fill="#C1D8ED"/>
<path d="M311.655 107.184C311.655 107.184 314.74 121.045 314.74 132.703C314.74 144.361 318.283 162.416 318.283 162.416C318.283 162.416 308.103 160.283 301.432 162.416C294.761 164.548 282.32 160.71 282.32 160.71L290.993 108.463L311.655 107.184Z" fill="#262626"/>
<path d="M280.87 74.4136L280.744 74.4681L282.324 74.7237L280.773 77.6938C280.773 77.6938 275.023 79.044 272.332 76.0069C272.264 75.9294 272.22 75.8331 272.207 75.7305C272.194 75.6278 272.212 75.5237 272.259 75.4315C272.306 75.3394 272.38 75.2636 272.47 75.214C272.561 75.1645 272.664 75.1435 272.767 75.1537C274.317 75.3117 277.083 75.4995 278.328 75.0068C277.78 74.7371 277.054 74.324 277.168 74.0768C277.468 73.4289 280.071 74.2845 280.87 74.4136Z" fill="#E98862"/>
<path d="M283.519 41.6182H250.1V75.4388H283.519V41.6182Z" fill="#191A23"/>
<path d="M263.827 74.4136L263.701 74.4681L265.281 74.7237L263.73 77.6938C263.73 77.6938 257.98 79.044 255.289 76.0069C255.221 75.9294 255.177 75.8331 255.164 75.7305C255.151 75.6278 255.169 75.5237 255.216 75.4315C255.263 75.3394 255.337 75.2636 255.427 75.214C255.518 75.1645 255.621 75.1435 255.724 75.1537C257.275 75.3117 260.04 75.4995 261.285 75.0068C260.737 74.7371 260.011 74.324 260.125 74.0768C260.425 73.4289 263.028 74.2845 263.827 74.4136Z" fill="#E98862"/>
<path d="M305.31 78.8399C305.31 78.8399 303.126 77.8985 303.126 72.1417L298.736 71.6929C298.736 71.6929 299.641 76.7799 297.586 78.5868L305.31 78.8399Z" fill="#E98862"/>
<path d="M305.399 69.7218C305.241 71.4813 304.432 73.2018 302.952 73.8879C301.344 74.6867 299.565 75.0785 297.771 75.0291C293.005 75.0291 293.059 64.1519 295.135 61.8679C297.211 59.5839 303.916 60.3711 305.005 63.8138C305.568 65.5972 305.549 68.0468 305.399 69.7218Z" fill="#E98862"/>
<path d="M295.386 66.2875C294.461 66.2803 293.538 66.2022 292.625 66.054C292.625 66.054 292.904 58.9903 300.381 59.3931C301.352 59.3485 302.325 59.4062 303.284 59.565C305.531 59.9105 308.717 62.2158 309.232 67.9849C309.467 70.6315 310.377 73.1267 311.071 74.706C311.153 74.8915 311.187 75.0945 311.171 75.2968C311.155 75.499 311.089 75.6941 310.979 75.8642C310.869 76.0343 310.718 76.1742 310.54 76.271C310.363 76.3679 310.164 76.4187 309.961 76.4189L293.943 76.2916C293.754 76.2918 293.567 76.2475 293.398 76.1623C293.228 76.077 293.081 75.9531 292.968 75.8006C292.855 75.6481 292.779 75.4711 292.747 75.2838C292.714 75.0966 292.726 74.9043 292.781 74.7224C293.651 71.8267 295.245 70.0525 295.386 66.2875Z" fill="#0F1011"/>
<path d="M311.948 79.9182C310.708 78.6732 308.559 77.8674 305.942 77.8674C302.047 77.8674 296.726 77.8759 295.635 77.9219C294.926 77.9443 294.223 78.0541 293.54 78.2489L293.513 78.1944L292.989 78.4421C292.802 78.5175 292.62 78.6036 292.443 78.6999L289.19 80.2367L281.894 74.1728L278.116 78.7481L283.271 83.0324L279.917 84.6164L265.467 74.1548L262.002 78.9726L277.867 90.4588C278.295 90.7693 278.799 90.9588 279.326 91.0079C279.852 91.0569 280.382 90.9635 280.86 90.7375L288.308 87.2197L289.961 88.5933C290.231 91.1226 290.643 93.7755 290.67 96.157C290.775 105.004 288.394 106.67 289.567 109.375C290.706 111.998 313.066 113.089 313.365 108.472C313.555 105.535 310.975 102.97 310.975 97.2465C310.975 91.5231 316.228 84.2101 311.948 79.9182Z" fill="#B9FF66"/>
</g>
<defs>
<clipPath id="clip0_1033_7581">
<rect width="374" height="191" fill="white" transform="translate(0 0.5)"/>
</clipPath>
</defs>
</svg>
