<svg width="454" height="512" viewBox="0 0 454 512" fill="none" xmlns="http://www.w3.org/2000/svg">
<path d="M360.256 230.286L306.586 282.789C292.603 240.95 276.634 229.473 269.593 226.358C262.507 231.745 227.572 239.4 209.546 241.718L169.342 320.949C167.228 325.138 166.03 329.73 165.828 334.418C165.625 339.109 166.423 343.787 168.168 348.143C180.811 378.757 196.232 408.15 214.239 435.951C236.277 432.89 254.9 423.91 265.92 404.778C246.686 377.992 230.563 352.584 219.341 329.472L237.502 299.628L236.739 270.34C247.859 293.302 267.249 316.564 282.297 332.584C287.032 337.603 293.479 340.656 300.361 341.137C307.241 341.62 314.053 339.496 319.44 335.186C345.613 314.319 370.664 292.534 395.562 270.74C393.526 261.583 389.227 253.084 383.062 246.017C376.894 238.95 369.053 233.542 360.256 230.286Z" fill="#B9FF66"/>
<path fill-rule="evenodd" clip-rule="evenodd" d="M138.941 88.4534L118.637 80.4245C113.467 83.8544 107.707 86.2996 101.648 87.6371C72.0052 94.2697 42.376 74.1759 42.1075 45.4436C41.8685 21.158 63.2217 1.27096 89.8541 1.00243C116.436 0.750016 138.202 20.1887 138.482 44.5386C138.552 53.0407 135.966 61.3527 131.084 68.3139L138.941 88.4534ZM98.3267 35.6633C99.0313 35.9555 99.6717 36.3835 100.211 36.9232C100.75 37.4624 101.179 38.1026 101.471 38.8075C101.763 39.5121 101.913 40.2674 101.913 41.0303C101.913 41.7932 101.763 42.5486 101.471 43.2532C101.179 43.9581 100.75 44.5982 100.211 45.1374L90.5168 54.7802L80.823 45.1374C79.7339 44.048 79.1219 42.5709 79.1219 41.0303C79.1219 39.4898 79.7339 38.0124 80.823 36.9232C81.9125 35.8341 83.3899 35.2221 84.9302 35.2221C86.4707 35.2221 87.9481 35.8341 89.0373 36.9232L90.5168 38.4028L91.9964 36.9232C92.5356 36.3835 93.1761 35.9555 93.8807 35.6633C94.5853 35.3711 95.3406 35.2208 96.1035 35.2208C96.8664 35.2208 97.6218 35.3711 98.3267 35.6633Z" fill="#191A23"/>
<path d="M26.2817 225.34L28.5266 229.881L33.5265 230.595L29.9041 234.115L30.7715 239.113L26.2817 236.766L21.843 239.113L22.6593 234.115L19.0879 230.595L24.0879 229.881L26.2817 225.34Z" fill="#B9FF66"/>
<path d="M45.7722 225.34L48.0171 229.881L53.017 230.595L49.3946 234.115L50.2619 239.113L45.7722 236.766L41.3334 239.113L42.1498 234.115L38.5273 230.595L43.5273 229.881L45.7722 225.34Z" fill="#B9FF66"/>
<path d="M65.2624 225.34L67.5073 229.881L72.5073 230.595L68.8848 234.115L69.7522 239.113L65.2624 236.766L60.7727 239.113L61.64 234.115L58.0176 230.595L63.0175 229.881L65.2624 225.34Z" fill="#B9FF66"/>
<path d="M84.7507 225.34L86.9956 229.881L91.9955 230.595L88.3731 234.115L89.1894 239.113L84.7507 236.766L80.2609 239.113L81.1283 234.115L77.5059 230.595L82.5058 229.881L84.7507 225.34Z" fill="#B9FF66"/>
<path d="M104.241 225.34L106.435 229.881L111.435 230.595L107.812 234.115L108.68 239.113L104.241 236.766L99.7512 239.113L100.619 234.115L96.9961 230.595L101.996 229.881L104.241 225.34Z" fill="#B9FF66"/>
<path d="M412.193 415.387L393.418 412.683L385.051 395.693L376.684 412.683L357.908 415.387L371.48 428.652L368.265 447.326L385.051 438.499L401.836 447.326L398.622 428.652L412.193 415.387Z" fill="#B9FF66"/>
<path d="M216.129 123.199C216.37 124.374 216.49 125.57 216.486 126.77L219.289 121.362C218.29 122.063 217.233 122.678 216.129 123.199Z" fill="#6153BD"/>
<path d="M208.83 238.143C207.453 244.98 203.677 242.378 200.82 235.133C203.425 236.301 206.101 237.307 208.83 238.143Z" fill="#191A23"/>
<path d="M204.853 210.7C203.594 211.015 202.283 211.068 201.002 210.857C199.721 210.646 198.496 210.175 197.404 209.473C198.578 202.934 201.945 204.221 204.853 210.7Z" fill="#191A23"/>
<path d="M172.199 139.422L157.863 162.892C157.743 163.074 157.7 163.297 157.743 163.512C157.787 163.726 157.914 163.914 158.096 164.035C158.278 164.157 158.501 164.201 158.715 164.158C158.93 164.115 159.119 163.989 159.241 163.807L175.414 141.565C175.568 141.355 175.678 141.115 175.737 140.861C175.796 140.606 175.803 140.343 175.757 140.086C175.712 139.829 175.615 139.584 175.472 139.365C175.329 139.147 175.143 138.959 174.926 138.815C174.709 138.67 174.465 138.571 174.208 138.522C173.952 138.475 173.688 138.479 173.433 138.536C173.178 138.593 172.938 138.701 172.726 138.853C172.514 139.005 172.335 139.199 172.199 139.422Z" fill="#191A23"/>
<path d="M209.291 118.045C209.313 118.714 209.594 119.349 210.074 119.814C210.555 120.28 211.198 120.54 211.868 120.54C212.537 120.54 213.18 120.28 213.661 119.814C214.142 119.349 214.423 118.714 214.444 118.045C214.423 117.376 214.142 116.742 213.661 116.277C213.18 115.811 212.537 115.551 211.868 115.551C211.198 115.551 210.555 115.811 210.074 116.277C209.594 116.742 209.313 117.376 209.291 118.045Z" fill="#191A23"/>
<path d="M245.614 286.204L237.451 299.572L236.686 270.286C239.387 275.743 242.365 281.057 245.614 286.204Z" fill="#191A23"/>
<path d="M444.43 225.36C431.158 234.496 416.883 242.084 401.882 247.976C397.401 249.264 393.164 251.283 389.344 253.949C383.59 244.111 374.926 236.299 364.549 231.588L369.685 225.716C377.425 225.049 392.587 223.818 407.689 223.358C415.307 223.125 422.902 223.089 429.518 223.419C435.583 223.721 440.788 224.33 444.43 225.36Z" fill="#191A23" stroke="#191A23"/>
<path d="M252.403 420.795C243.233 427.932 232.463 432.731 221.023 434.774L222.863 437.683C226.179 442.836 226.587 448.499 227.095 454.621C228.983 471.025 232.766 487.156 238.373 502.687C247.046 489.53 255.261 444.269 257.914 429.066L252.403 420.795Z" fill="#191A23"/>
<path d="M233.312 92.2428L233.435 92.7256C232.996 92.5573 232.53 92.4611 232.055 92.4435L232.046 92.4432H232.036H224.845C223.434 92.4432 222.19 93.2688 221.221 94.5406C220.467 95.5297 219.853 96.8186 219.423 98.3008C218.566 96.774 217.434 95.315 216.157 94.131C214.549 92.6401 212.665 91.5432 210.768 91.3531C208.829 91.1589 206.954 91.9208 205.45 93.9826C204.664 95.0617 203.978 96.4955 203.426 98.3368C203.512 96.7066 203.64 95.0785 203.809 93.4541L203.869 92.8805L203.293 92.9027L202.609 92.9291C203.271 90.0883 204.77 87.5055 206.919 85.5191C209.222 83.3901 212.151 82.0595 215.269 81.7245L215.95 81.6515L215.673 81.0254C214.59 78.572 214.192 75.8708 214.522 73.2093C215.172 68.0468 217.796 62.8777 221.592 59.0012C225.386 55.1248 230.315 52.5762 235.559 52.5762C240.765 52.5762 245.234 55.8762 248.428 60.5961C251.62 65.3122 253.475 71.363 253.475 76.6678C253.475 81.855 251.234 85.6974 247.695 88.2723C244.138 90.8601 239.243 92.1835 233.949 92.2365L233.312 92.2428Z" fill="#191A23" stroke="#191A23"/>
<path d="M253.973 76.6683C253.973 65.8521 246.425 52.0767 235.557 52.0767C224.739 52.0767 215.354 62.5868 214.024 73.1479C213.683 75.8992 214.094 78.6916 215.214 81.2279C211.988 81.5743 208.96 82.9505 206.578 85.1524C204.195 87.3546 202.585 90.2654 201.986 93.4539L203.31 93.4029C202.935 97.0118 202.761 100.639 202.789 104.267C204.978 84.7993 216.14 92.1381 219.586 99.7293C220.391 95.7498 222.443 92.9437 224.843 92.9437H232.034C232.813 92.9724 233.562 93.2396 234.183 93.709C234.11 93.3733 234.032 93.0538 233.952 92.7369C244.685 92.6295 253.973 87.3744 253.973 76.6683Z" stroke="#191A23" stroke-linejoin="round"/>
<path d="M203.883 419.213C169.578 414.324 137.802 398.381 113.373 373.806" stroke="#191A23" stroke-linecap="round" stroke-linejoin="round"/>
<path d="M385.051 279.878C381.018 313.777 366.235 345.495 342.871 370.385C319.504 395.274 288.784 412.028 255.205 418.193" stroke="#191A23" stroke-linecap="round" stroke-linejoin="round"/>
<path d="M368.57 188.197C373.377 197.535 377.241 207.329 380.101 217.434" stroke="#191A23" stroke-linecap="round" stroke-linejoin="round"/>
<path d="M71.1284 305.694V253.194H112.557C114.48 253.194 116.324 252.43 117.683 251.071C119.043 249.711 119.807 247.867 119.807 245.944V218.452C119.807 217.501 119.619 216.56 119.255 215.682C118.89 214.804 118.355 214.007 117.682 213.336C117.008 212.665 116.208 212.134 115.329 211.773C114.45 211.411 113.508 211.228 112.557 211.232H17.9656C17.0118 211.232 16.0674 211.421 15.1866 211.788C14.3058 212.154 13.5059 212.69 12.833 213.367C12.1598 214.042 11.6268 214.845 11.2645 215.727C10.902 216.61 10.7173 217.555 10.7208 218.509V245.949C10.7208 247.872 11.4847 249.716 12.8443 251.076C14.2041 252.436 16.048 253.199 17.971 253.199H59.3938V310.076" stroke="#191A23" stroke-linecap="round" stroke-linejoin="round"/>
<path d="M71.1289 337.735V325.388" stroke="#191A23" stroke-linecap="round" stroke-linejoin="round"/>
<path d="M59.3945 343.986V373.908H71.1291V340.234" stroke="#191A23" stroke-linecap="round" stroke-linejoin="round"/>
<path d="M71.1279 278.391H111.74C116.394 278.391 120.859 280.241 124.15 283.53C127.441 286.822 129.291 291.288 129.291 295.942V356.298C129.292 360.957 127.444 365.423 124.153 368.72C120.862 372.015 116.397 373.871 111.74 373.876H18.7813C16.4777 373.879 14.196 373.427 12.0671 372.547C9.93797 371.669 8.00324 370.377 6.37302 368.75C4.74306 367.122 3.44984 365.189 2.56746 363.062C1.68508 360.933 1.23074 358.653 1.23047 356.349V295.931C1.23047 291.277 3.07954 286.812 6.37087 283.519C9.66219 280.23 14.1264 278.38 18.7813 278.38H59.393" stroke="#191A23" stroke-linecap="round" stroke-linejoin="round"/>
<path d="M65.565 334.781C71.6337 334.303 71.7894 326.916 65.9221 326.975C61.5344 327.021 58.4732 327.182 55.0039 327.332C49.1876 327.601 49.2413 335.342 54.0345 335.546C57.8886 335.49 61.7372 335.232 65.565 334.781Z" stroke="#191A23" stroke-linecap="round" stroke-linejoin="round"/>
<path d="M61.0429 310.133C58.943 310.082 57.3775 310.082 55.4038 310.082C49.8427 310.031 49.6386 317.786 54.2304 318.245C56.5416 318.398 58.8606 318.398 61.1718 318.245" stroke="#191A23" stroke-linecap="round" stroke-linejoin="round"/>
<path d="M66.9457 343.105C72.8103 342.466 72.8129 335.35 67.1497 335.554C62.9151 335.707 59.9559 335.968 56.5886 336.217C50.9764 336.634 51.1805 344.109 55.8233 344.176C59.5469 344.015 63.2596 343.658 66.9457 343.105Z" stroke="#191A23" stroke-linecap="round" stroke-linejoin="round"/>
<path d="M61.189 318.4C58.9817 318.454 57.0671 318.655 54.9028 318.704C48.9952 318.857 48.8851 326.725 53.7804 327.028C56.7342 327.208 59.8518 326.824 65.515 326.518C66.3603 326.542 67.1906 326.29 67.8807 325.801C68.5711 325.312 69.0842 324.614 69.3428 323.809C69.6017 323.003 69.5923 322.136 69.316 321.335C69.0397 320.538 68.5117 319.848 67.8109 319.375" stroke="#191A23" stroke-linecap="round" stroke-linejoin="round"/>
<path d="M129.29 315.082C126.382 315.439 97.9632 316.156 82.8613 315.949C79.443 315.901 79.7383 310.447 78.8334 309.061C76.4167 305.358 75.6702 305.38 68.4253 305.839C59.905 306.376 60.6894 306.757 61.3338 321.349C61.4922 324.921 67.7113 325.329 68.8848 314.002C67.9154 322.727 71.895 328.696 77.7623 330.584" stroke="#191A23" stroke-linecap="round" stroke-linejoin="round"/>
<path d="M129.292 345.591C121.945 345.387 90.3124 345.183 71.1289 344.826" stroke="#191A23" stroke-linecap="round" stroke-linejoin="round"/>
<path d="M26.2817 225.34L28.5266 229.881L33.5265 230.595L29.9041 234.115L30.7715 239.113L26.2817 236.766L21.843 239.113L22.6593 234.115L19.0879 230.595L24.0879 229.881L26.2817 225.34Z" fill="#B9FF66" stroke="#191A23" stroke-linecap="round" stroke-linejoin="round"/>
<path d="M45.7722 225.34L48.0171 229.881L53.017 230.595L49.3946 234.115L50.2619 239.113L45.7722 236.766L41.3334 239.113L42.1498 234.115L38.5273 230.595L43.5273 229.881L45.7722 225.34Z" fill="#B9FF66" stroke="#191A23" stroke-linecap="round" stroke-linejoin="round"/>
<path d="M65.2585 225.34L67.5034 229.881L72.5034 230.595L68.8809 234.115L69.7483 239.113L65.2585 236.766L60.7687 239.113L61.6361 234.115L58.0137 230.595L63.0136 229.881L65.2585 225.34Z" fill="#B9FF66" stroke="#191A23" stroke-linecap="round" stroke-linejoin="round"/>
<path d="M84.7507 225.34L86.9956 229.881L91.9955 230.595L88.3731 234.115L89.1894 239.113L84.7507 236.766L80.2609 239.113L81.1283 234.115L77.5059 230.595L82.5058 229.881L84.7507 225.34Z" fill="#B9FF66" stroke="#191A23" stroke-linecap="round" stroke-linejoin="round"/>
<path d="M104.241 225.34L106.435 229.881L111.435 230.595L107.812 234.115L108.68 239.113L104.241 236.766L99.7512 239.113L100.619 234.115L96.9961 230.595L101.996 229.881L104.241 225.34Z" fill="#B9FF66" stroke="#191A23" stroke-linecap="round" stroke-linejoin="round"/>
<path d="M382.705 163.147C376.634 162.935 376.124 155.596 381.991 155.392C386.379 155.239 389.44 155.29 392.96 155.29C398.777 155.29 399.08 163.077 394.287 163.453C391.379 163.687 388.317 163.343 382.705 163.147Z" stroke="#191A23" stroke-linecap="round" stroke-linejoin="round"/>
<path d="M383.214 171.055C377.35 170.413 377.347 163.3 383.01 163.504C387.245 163.657 387.755 163.612 391.066 163.861C396.678 164.28 396.474 171.751 391.831 171.821C388.945 171.774 386.063 171.518 383.214 171.055Z" stroke="#191A23" stroke-linecap="round" stroke-linejoin="round"/>
<path d="M362.961 159.371C371.43 160.446 377.399 149.269 373.828 141.361C373.828 141.361 373.42 134.678 371.991 124.474C370.563 114.27 364.95 113.555 365.104 116.004C365.257 118.453 363.369 131.971 361.328 135.953C359.134 140.236 352.451 140.322 348.879 140.341C338.573 140.392 305.41 138.351 305.41 138.351" stroke="#191A23" stroke-linecap="round" stroke-linejoin="round"/>
<path d="M305.715 174.116C315.97 173.81 383.622 172.637 391.122 171.872" stroke="#191A23" stroke-linecap="round" stroke-linejoin="round"/>
<path d="M383.369 147.126C377.501 147.628 376.118 140.657 381.736 139.779C385.922 139.124 388.879 138.804 392.246 138.402C397.858 137.73 399.072 145.077 394.491 146.055C390.804 146.602 387.093 146.96 383.369 147.126Z" stroke="#191A23" stroke-linecap="round" stroke-linejoin="round"/>
<path d="M382.398 155.29C376.49 155.343 375.663 148.252 381.377 147.841C385.612 147.535 391.85 147.339 395.204 147.229C400.816 147.041 401.482 154.5 396.836 155.035C394.033 155.357 387.806 155.239 382.398 155.29Z" stroke="#191A23" stroke-linecap="round" stroke-linejoin="round"/>
<path d="M372.959 132.229C373.622 140.035 373.979 139.479 392.245 138.405" stroke="#191A23" stroke-linecap="round" stroke-linejoin="round"/>
<path d="M415.918 106.157C420.572 106.157 425.037 108.006 428.33 111.298C431.619 114.589 433.469 119.053 433.469 123.708V170.595C433.472 175.253 431.622 179.72 428.332 183.016C425.04 186.312 420.574 188.166 415.918 188.171H322.96C320.656 188.174 318.373 187.723 316.241 186.845C314.112 185.966 312.176 184.676 310.543 183.049C308.911 181.422 307.616 179.489 306.73 177.361C305.844 175.233 305.387 172.951 305.385 170.646V123.719C305.382 121.415 305.833 119.134 306.711 117.005C307.592 114.876 308.881 112.941 310.508 111.311C312.136 109.681 314.069 108.388 316.196 107.505C318.325 106.623 320.605 106.168 322.909 106.168L415.918 106.157Z" stroke="#191A23" stroke-linecap="round" stroke-linejoin="round"/>
<path d="M216.127 123.198C217.239 122.692 218.297 122.077 219.287 121.361L216.484 126.769" fill="#191A23"/>
<path d="M216.127 123.198C217.239 122.692 218.297 122.077 219.287 121.361L216.484 126.769" stroke="#191A23" stroke-linecap="round" stroke-linejoin="round"/>
<path d="M225.563 113.861C225.796 118.226 226.816 122.512 228.573 126.514C230.254 130.452 233.082 133.795 236.685 136.106C240.915 138.665 255.922 138.45 261.889 149.371C267.3 159.266 273.366 191.514 276.121 210.391C276.68 214.226 275.898 218.136 273.908 221.462C271.919 224.788 268.844 227.327 265.203 228.651C246.164 235.354 226.423 239.871 206.363 242.115" stroke="#191A23" stroke-linecap="round" stroke-linejoin="round"/>
<path d="M219.602 99.7291C216.085 91.974 205.08 83.5531 203.279 104.627C202.721 109.105 202.928 113.645 203.891 118.053C206.133 126.319 212.36 124.992 216.136 123.206C216.377 124.381 216.497 125.578 216.493 126.778C216.669 129.039 216.082 131.294 214.823 133.182C213.565 135.069 211.709 136.479 209.554 137.186C206.181 138.349 191.563 139.675 184.401 157.237C182.046 162.999 180.626 169.941 177.973 175.4" stroke="#191A23" stroke-linecap="round" stroke-linejoin="round"/>
<path d="M235.665 177.586L239.848 198.657L199.902 205.188" stroke="#191A23" stroke-linecap="round" stroke-linejoin="round"/>
<path d="M204.85 210.7C202.58 211.176 200.219 210.907 198.115 209.932C194.544 207.637 191.939 201.815 189.135 194.116C185.107 183.139 184.544 187.79 184.084 191.968C183.668 194.046 184.987 206.238 179.952 203.397C173.488 197.476 166.465 192.195 158.983 187.629C149.423 182.664 148.832 185.378 156.125 192.067C158.367 194.111 160.496 196.274 162.503 198.547C164.946 201.292 167.213 204.188 169.289 207.22C172.377 212.183 178.064 221.554 185.003 226.302C192.353 231.34 200.373 235.323 208.829 238.136" stroke="#191A23" stroke-linecap="round" stroke-linejoin="round"/>
<path d="M177.249 218.911C174.187 213.707 164.945 208.305 160.525 204.277C157.509 201.527 151.79 197.564 148.484 194.685C147.665 193.973 147.974 192.032 154.249 194.787C155.643 195.405 160.439 197.542 162.595 198.654" stroke="#191A23" stroke-linecap="round" stroke-linejoin="round"/>
<path d="M160.161 203.95C159.057 203.649 158.109 203.413 157.607 203.3C150.974 201.616 150.972 203.609 151.893 204.167C155.609 206.423 161.954 209.454 165.362 211.667C170.365 214.554 175.11 217.865 179.545 221.565" stroke="#191A23" stroke-linecap="round" stroke-linejoin="round"/>
<path d="M197.41 209.422C198.361 204.207 200.726 204.027 203.124 207.542C207.85 214.446 211.18 233.154 208.226 240.243C206.545 244.29 203.328 241.508 200.82 235.141" stroke="#191A23" stroke-linecap="round" stroke-linejoin="round"/>
<path d="M196.331 232.993L199.545 243.093L152.709 230.289L126.893 155.545L175.668 168.147L183.984 194.269" stroke="#191A23" stroke-linecap="round" stroke-linejoin="round"/>
<path d="M148.319 161.106L145.717 151.667L153.115 153.453L154.798 162.79" stroke="#191A23" stroke-linecap="round" stroke-linejoin="round"/>
<path d="M221.791 112.229C219.636 114.288 217.108 115.916 214.342 117.025" stroke="#191A23" stroke-linecap="round" stroke-linejoin="round"/>
<path d="M193.78 170.188C193.78 170.188 192.768 184.342 198.474 194.624L203.984 204.522" stroke="#191A23" stroke-linecap="round" stroke-linejoin="round"/>
<path d="M209.461 241.777L169.289 320.898C167.173 325.087 165.973 329.679 165.771 334.367C165.569 339.058 166.368 343.736 168.116 348.092C180.741 378.714 196.163 408.11 214.187 435.9C236.225 432.839 254.847 423.859 265.867 404.727C246.633 377.941 230.51 352.533 219.289 329.421L245.604 286.207C256.367 302.77 268.649 318.296 282.288 332.584C287.022 337.6 293.469 340.653 300.351 341.134C307.231 341.617 314.043 339.493 319.43 335.186C345.593 314.306 370.654 292.534 395.552 270.74C393.527 261.581 389.233 253.076 383.068 246.008C376.9 238.939 369.056 233.534 360.254 230.286L306.519 282.748C292.556 240.944 276.581 229.47 269.541 226.358" stroke="#191A23" stroke-linecap="round" stroke-linejoin="round"/>
<path d="M237.451 299.572L236.736 270.286C239.4 275.753 242.362 281.067 245.614 286.204" stroke="#191A23" stroke-linecap="round" stroke-linejoin="round"/>
<path d="M369.439 225.235C384.745 223.914 430.309 220.265 445.432 225.179" stroke="#191A23" stroke-linecap="round" stroke-linejoin="round"/>
<path d="M363.674 231.769L375.664 218.146C400.051 214.014 439.49 213.146 452.999 219.83C438.198 230.649 419.165 242.365 402.03 248.45C397.42 249.773 393.072 251.878 389.173 254.674" stroke="#191A23" stroke-linecap="round" stroke-linejoin="round"/>
<path d="M252.299 420.744L263.166 436.917C260.921 461.56 251.635 499.927 241.684 511.203C234.256 493.099 229.348 474.06 227.092 454.621C226.59 448.499 226.176 442.836 222.86 437.683L220.98 434.729" stroke="#191A23" stroke-linecap="round" stroke-linejoin="round"/>
<path d="M154.24 159.576C154.24 159.576 162.403 157.229 169.087 166.463" stroke="#191A23" stroke-linecap="round" stroke-linejoin="round"/>
<path d="M201.587 139.575C201.009 139.944 200.564 140.488 200.318 141.129C200.073 141.769 200.039 142.471 200.221 143.132C200.404 143.793 200.794 144.378 201.333 144.801C201.873 145.224 202.534 145.463 203.219 145.483C203.788 145.48 204.346 145.322 204.832 145.025C205.317 144.728 205.712 144.304 205.974 143.799C204.132 142.849 202.607 141.38 201.587 139.575Z" stroke="#191A23" stroke-linecap="round" stroke-linejoin="round"/>
<path d="M205.822 145.086C205.819 145.816 206.075 146.524 206.543 147.085C207.011 147.646 207.662 148.024 208.381 148.152C209.1 148.28 209.841 148.151 210.474 147.787C211.107 147.422 211.592 146.846 211.842 146.16C209.876 145.493 207.95 144.709 206.077 143.813C205.895 144.212 205.808 144.648 205.822 145.086Z" stroke="#191A23" stroke-linecap="round" stroke-linejoin="round"/>
<path d="M211.69 147.081C211.687 147.85 211.969 148.593 212.479 149.167C212.99 149.742 213.695 150.109 214.458 150.197C215.222 150.286 215.992 150.09 216.62 149.646C217.249 149.203 217.692 148.544 217.866 147.795C215.826 147.4 213.815 146.872 211.845 146.213C211.74 146.49 211.687 146.785 211.69 147.081Z" stroke="#191A23" stroke-linecap="round" stroke-linejoin="round"/>
<path d="M217.656 148.249C217.627 149.065 217.922 149.859 218.477 150.459C219.032 151.058 219.802 151.413 220.617 151.447C221.433 151.48 222.23 151.19 222.832 150.638C223.434 150.087 223.794 149.32 223.832 148.504C221.776 148.403 219.73 148.147 217.713 147.739C217.721 147.886 217.656 148.096 217.656 148.249Z" stroke="#191A23" stroke-linecap="round" stroke-linejoin="round"/>
<path d="M223.881 148.504C223.881 149.308 224.196 150.078 224.759 150.651C225.322 151.224 226.088 151.552 226.891 151.566C227.31 151.57 227.723 151.486 228.11 151.32C228.494 151.154 228.838 150.91 229.122 150.602C229.404 150.294 229.622 149.93 229.756 149.534C229.89 149.137 229.939 148.717 229.901 148.3C227.903 148.521 225.89 148.589 223.881 148.504Z" stroke="#191A23" stroke-linecap="round" stroke-linejoin="round"/>
<path d="M233.112 150.84C233.595 150.838 234.071 150.725 234.503 150.509C234.935 150.293 235.311 149.981 235.604 149.596C235.894 149.211 236.093 148.763 236.184 148.289C236.273 147.814 236.251 147.325 236.122 146.86C234.151 147.529 232.116 147.991 230.051 148.238C230.172 148.963 230.548 149.621 231.106 150.097C231.667 150.573 232.376 150.836 233.112 150.84Z" stroke="#191A23" stroke-linecap="round" stroke-linejoin="round"/>
<path d="M238.982 148.861C239.527 148.862 240.062 148.72 240.532 148.449C241.004 148.178 241.396 147.788 241.67 147.318C241.944 146.848 242.089 146.314 242.092 145.77C242.095 145.226 241.955 144.691 241.686 144.218C239.914 145.313 238.034 146.219 236.074 146.922C236.319 147.493 236.724 147.98 237.24 148.325C237.755 148.669 238.362 148.855 238.982 148.861Z" stroke="#191A23" stroke-linecap="round" stroke-linejoin="round"/>
<path d="M245.459 139.065C246.179 139.286 246.794 139.755 247.196 140.389C247.599 141.023 247.763 141.779 247.658 142.523C247.556 143.267 247.188 143.95 246.627 144.448C246.063 144.946 245.344 145.227 244.592 145.242C244.063 145.285 243.531 145.217 243.029 145.041C242.527 144.866 242.07 144.586 241.684 144.221C243.386 142.876 244.691 141.094 245.459 139.065Z" stroke="#191A23" stroke-linecap="round" stroke-linejoin="round"/>
<path d="M340.102 59.8315V86.8211" stroke="#191A23" stroke-linecap="round" stroke-linejoin="round"/>
<path d="M353.624 73.3003H326.635" stroke="#191A23" stroke-linecap="round" stroke-linejoin="round"/>
<path d="M228.521 111.463C232.17 117.059 237.705 112.382 237.705 103.407C237.705 94.4789 232.135 89.7609 228.521 95.3516C227.194 97.8293 226.5 100.597 226.5 103.407C226.5 106.218 227.194 108.985 228.521 111.463Z" stroke="#191A23" stroke-linecap="round" stroke-linejoin="round"/>
<path d="M232.094 92.8926H224.903C221.78 92.8926 219.283 97.6133 219.291 103.403C219.299 109.192 221.791 113.875 224.903 113.875H231.641" stroke="#191A23" stroke-linecap="round" stroke-linejoin="round"/>
<path d="M201.943 93.5046C199.494 93.6067 197.198 98.4536 197.502 104.219C197.81 109.729 200.361 114.154 203.267 114.372C202.456 107.421 202.49 100.397 203.366 93.4536L201.943 93.5046Z" stroke="#191A23" stroke-linecap="round" stroke-linejoin="round"/>
<path d="M202.811 93.1479C203.315 90.2607 204.861 87.6589 207.156 85.8348C209.45 84.0107 212.333 83.0913 215.259 83.25C218.208 83.1587 221.103 84.0594 223.48 85.8075C225.856 87.5556 227.577 90.0504 228.369 92.8928" stroke="#191A23" stroke-linecap="round" stroke-linejoin="round"/>
<path d="M100.21 36.8724C99.6709 36.3326 99.0304 35.9046 98.3258 35.6125C97.6212 35.3203 96.8658 35.1699 96.103 35.1699C95.3401 35.1699 94.5847 35.3203 93.8798 35.6125C93.1752 35.9046 92.5348 36.3326 91.9959 36.8724L90.5163 38.403L89.0367 36.8724C87.9473 35.7832 86.4699 35.1713 84.9296 35.1713C83.389 35.1713 81.9116 35.7832 80.8225 36.8724C79.7331 37.9615 79.1211 39.439 79.1211 40.9795C79.1211 42.52 79.7331 43.9975 80.8225 45.0866L90.5163 54.7804L100.21 45.0866C100.75 44.5474 101.178 43.9072 101.47 43.2024C101.762 42.4977 101.912 41.7424 101.912 40.9795C101.912 40.2166 101.762 39.4612 101.47 38.7566C101.178 38.0517 100.75 37.4116 100.21 36.8724Z" stroke="#191A23" stroke-linecap="round" stroke-linejoin="round"/>
<path d="M118.635 80.4245L138.939 88.4534L131.082 68.3139C135.964 61.3529 138.55 53.0407 138.48 44.5386C138.2 20.1886 116.434 0.750016 89.8522 1.00243C63.2197 1.27096 41.8665 21.158 42.1055 45.4435C42.374 74.1758 72.0032 94.2697 101.646 87.6371C107.705 86.2995 113.465 83.8543 118.635 80.4245Z" stroke="#191A23" stroke-linecap="round" stroke-linejoin="round"/>
<path d="M412.193 415.387L393.418 412.683L385.051 395.693L376.684 412.683L357.908 415.387L371.48 428.652L368.265 447.326L385.051 438.499L401.836 447.326L398.622 428.652L412.193 415.387Z" stroke="#191A23" stroke-linecap="round" stroke-linejoin="round"/>
<path d="M237.705 101.82C261.526 103.447 284.673 110.441 305.409 122.279" stroke="#191A23" stroke-linecap="round" stroke-linejoin="round"/>
<path d="M74.752 211.258C83.7189 184.031 99.8412 159.715 121.431 140.856C143.02 121.998 169.283 109.291 197.468 104.065" stroke="#191A23" stroke-linecap="round" stroke-linejoin="round"/>
<path d="M377.499 240.542L348.418 267.735" stroke="#191A23" stroke-linecap="round" stroke-linejoin="round"/>
<path d="M249.183 422.734L227.551 389.265" stroke="#191A23" stroke-linecap="round" stroke-linejoin="round"/>
<path d="M251.686 241.715C255.614 244.571 260.082 246.596 264.819 247.666C269.556 248.737 274.462 248.829 279.236 247.939" stroke="#191A23" stroke-linecap="round" stroke-linejoin="round"/>
<path d="M84.752 398.397V404.337" stroke="#191A23" stroke-linecap="round" stroke-linejoin="round"/>
<path d="M96.305 409.955H90.3652" stroke="#191A23" stroke-linecap="round" stroke-linejoin="round"/>
<path d="M84.752 421.51V415.57" stroke="#191A23" stroke-linecap="round" stroke-linejoin="round"/>
<path d="M73.1914 409.955H79.1339" stroke="#191A23" stroke-linecap="round" stroke-linejoin="round"/>
<path d="M90.3645 409.954C89.6269 409.954 88.8962 409.809 88.2144 409.528C87.5327 409.246 86.9132 408.832 86.3917 408.311C85.8702 407.787 85.4567 407.17 85.175 406.488C84.893 405.806 84.7486 405.075 84.7496 404.337C84.751 405.075 84.6068 405.806 84.3251 406.488C84.0437 407.17 83.6302 407.79 83.1084 408.311C82.5869 408.832 81.9672 409.248 81.2854 409.53C80.6036 409.812 79.8727 409.954 79.1348 409.954C79.8724 409.954 80.6031 410.097 81.2849 410.379C81.9664 410.661 82.5859 411.074 83.1076 411.598C83.6291 412.119 84.0426 412.736 84.3246 413.418C84.6063 414.101 84.7507 414.831 84.7496 415.569C84.7491 414.831 84.8938 414.101 85.1755 413.418C85.4575 412.739 85.871 412.119 86.3928 411.598C86.9142 411.077 87.5335 410.663 88.215 410.381C88.8965 410.099 89.6269 409.954 90.3645 409.954Z" stroke="#191A23" stroke-linecap="round" stroke-linejoin="round"/>
<path d="M257.908 429.061C255.266 444.208 247.103 489.181 238.467 502.535" stroke="#191A23" stroke-linecap="round" stroke-linejoin="round"/>
</svg>
