<?xml version="1.0" encoding="UTF-8"?>
<svg xmlns="http://www.w3.org/2000/svg" id="a" width="865.76" height="682.89" viewBox="0 0 865.76 682.89">
  <path d="m87.41,91.47v364.57h207.43V93.83s-98.21-125.71-207.43-2.36Zm192.5,8.64v51.86h-51.86V61.78c32.37,12.89,51.86,38.34,51.86,38.34Zm-116.29,238.86v-80.14h51.86v80.14h-51.86Zm51.86,14.14v88h-51.86v-88h51.86Zm-64.43-108.43h-50.29v-78.57h50.29v78.57Zm12.57-78.57h51.86v78.57h-51.86v-78.57Zm-12.57,92.71v80.14h-50.29v-80.14h50.29Zm77,0h51.86v80.14h-51.86v-80.14Zm0-14.14v-78.57h51.86v78.57h-51.86Zm-12.57-187.04v94.32h-51.86V58.34c19.17-5.43,36.62-4.65,51.86-.69Zm-64.43,5.07v89.25h-50.29v-55c17.6-16.78,34.45-27.69,50.29-34.25Zm-50.29,290.39h50.29v88h-50.29v-88Zm127.29,88v-88h51.86v88h-51.86Z" fill="#fff" stroke="#002346" stroke-miterlimit="10"></path>
  <rect x="456.3" y="54.75" width="338.95" height="278" rx="6.56" ry="6.56" fill="#fff" stroke="#002346" stroke-miterlimit="10"></rect>
  <circle cx="622.42" cy="219.98" r="70.05" fill="#191A23"></circle>
  <circle cx="616.33" cy="215.63" r="69.62" fill="none" stroke="#002346" stroke-linecap="round" stroke-linejoin="round"></circle>
  <path d="m517.99,266.97c-8.7.44-12.1-6.62-12.1-6.62-8.04,3.98-13.57,12.27-13.57,21.85,0,13.46,10.91,24.37,24.37,24.37s24.37-10.91,24.37-24.37c0-8.74-4.6-16.4-11.51-20.7,0,0-1.98,4.6-11.55,5.47Z" fill="#B9FF66"></path>
  <path d="m534.09,268.43v24.06c-4.27,7.87-12.61,13.21-22.19,13.21-13.94,0-25.24-11.3-25.24-25.24s11.3-25.24,25.24-25.24c9.58,0,17.92,5.34,22.19,13.21Z" fill="none" stroke="#002346" stroke-linecap="round" stroke-linejoin="round"></path>
  <rect x="534.09" y="260.88" width="80.06" height="42.64" fill="#fff" stroke="#002346" stroke-miterlimit="10"></rect>
  <line x1="543.66" y1="278.28" x2="543.66" y2="303.08" fill="none" stroke="#002346" stroke-linecap="round" stroke-linejoin="round"></line>
  <line x1="553.67" y1="278.5" x2="553.67" y2="303.3" fill="none" stroke="#002346" stroke-linecap="round" stroke-linejoin="round"></line>
  <line x1="564.11" y1="278.5" x2="564.11" y2="303.3" fill="none" stroke="#002346" stroke-linecap="round" stroke-linejoin="round"></line>
  <line x1="574.12" y1="278.5" x2="574.12" y2="303.3" fill="none" stroke="#002346" stroke-linecap="round" stroke-linejoin="round"></line>
  <line x1="594.14" y1="278.5" x2="594.14" y2="303.3" fill="none" stroke="#002346" stroke-linecap="round" stroke-linejoin="round"></line>
  <line x1="583.69" y1="278.5" x2="583.69" y2="303.3" fill="none" stroke="#002346" stroke-linecap="round" stroke-linejoin="round"></line>
  <line x1="604.14" y1="278.5" x2="604.14" y2="303.3" fill="none" stroke="#002346" stroke-linecap="round" stroke-linejoin="round"></line>
  <path d="m537.14,280.46c0,4.36-1.11,8.45-3.05,12.03v-24.06c1.94,3.58,3.05,7.68,3.05,12.03Z" fill="#002346" stroke="#002346" stroke-miterlimit="10"></path>
  <path d="m795.25,61.31v12.72h-338.95v-12.72c0-3.63,2.94-6.56,6.56-6.56h325.83c3.63,0,6.56,2.94,6.56,6.56Z" fill="#e3e4e5" stroke="#002346" stroke-miterlimit="10"></path>
  <circle cx="758.49" cy="63.39" r="3.11" fill="#438dca" stroke="#002346" stroke-miterlimit="10"></circle>
  <circle cx="770.3" cy="63.39" r="3.11" fill="#B9FF66" stroke="#002346" stroke-linecap="round" stroke-linejoin="round"></circle>
  <circle cx="782.12" cy="63.39" r="3.11" fill="#191A23" stroke="#002346" stroke-miterlimit="10"></circle>
  <rect x="734.23" y="82.98" width="21.77" height="21.77" fill="#438dca" stroke="#002346" stroke-miterlimit="10"></rect>
  <rect x="756" y="82.98" width="21.77" height="21.77" fill="#191A23" stroke="#002346" stroke-miterlimit="10"></rect>
  <rect x="734.23" y="104.75" width="21.77" height="21.77" fill="#B9FF66" stroke="#002346" stroke-linecap="round" stroke-linejoin="round"></rect>
  <rect x="756" y="104.75" width="21.77" height="21.77" fill="#7cd093" stroke="#002346" stroke-miterlimit="10"></rect>
  <rect x="734.23" y="126.52" width="21.77" height="21.77" fill="#f0b1bf" stroke="#002346" stroke-miterlimit="10"></rect>
  <rect x="756" y="126.52" width="21.77" height="21.77" fill="#e3e4e5" stroke="#002346" stroke-miterlimit="10"></rect>
  <rect x="734.23" y="148.29" width="21.77" height="21.77" fill="#002346" stroke="#002346" stroke-miterlimit="10"></rect>
  <rect x="756" y="148.29" width="21.77" height="21.77" fill="#fff" stroke="#002346" stroke-miterlimit="10"></rect>
  <path d="m472.87,227.2h212.33c0,3.36-2.73,6.09-6.09,6.09h-200.15c-3.36,0-6.09-2.73-6.09-6.09h0Z" fill="#438dca"></path>
  <path d="m578.04,216.93l-17.27-102.78c-.03-.17.19-.25.28-.11l54.43,87.63s-18.3,4.82-30.91,15.29l-6.53-.03Z" fill="#B9FF66"></path>
  <path d="m603.27,120.34s-10.88,11.75-3.48,29.59c0,0,7.15,13.36,3.57,23.65,0,0,15.97-8.69,15.56-23.78-.08-3.01-1.15-5.91-2.86-8.39-3.65-5.3-11.16-16.49-12.8-21.06Z" fill="#B9FF66"></path>
  <path d="m656.79,85.53s-18.54,8.73-27.13,27.91c-3.02,6.73-4.22,14.13-3.92,21.5.39,9.77-.12,34.44-13.69,48.43-.26.27-.02.71.34.62,8.52-2.16,56.52-15.78,51.37-47.11,0,0-8.7-40.03-6.96-51.34Z" fill="#7cd093" stroke="#002346" stroke-miterlimit="10"></path>
  <path d="m527.24,170.32c5.3-2.89,12.05-7.25,17.73-13.86,0,0-2.4-2.97-5.46-5.91l-12.31,19.72s.01.07.04.05Z" fill="#002346" stroke="#002346" stroke-miterlimit="10"></path>
  <path d="m527.34,170.19c-24.79,10.67-45.46-13.74-45.46-13.74,25.71-28.6,47.86-14.95,57.68-5.86l-12.22,19.6Z" fill="#fff" stroke="#002346" stroke-miterlimit="10"></path>
  <circle cx="516.03" cy="156.67" r="13.27" fill="#438dca"></circle>
  <circle cx="513.21" cy="156.02" r="4.79" fill="#002346" stroke="#002346" stroke-miterlimit="10"></circle>
  <rect x="531.48" y="252.61" width="85.28" height="9.14" fill="#002346" stroke="#002346" stroke-miterlimit="10"></rect>
  <path d="m520.15,231.48s-16.52,2.42-17.39,18.52c0,0,0,14.36,12.62,16.97,0,0,11.75.87,15.23-7.4,0,0,2.18-5.66,0-10.01,0,0-3.92-6.09-10.01-5.22,0,0-4.44.3-6.49,4.06-.87,1.61-1.03,3.49-.63,5.28.28,1.24.82,2.63,1.89,3.27" fill="none" stroke="#002346" stroke-linecap="round" stroke-linejoin="round"></path>
  <path d="m628.22,231.48s16.52,2.42,17.39,18.52c0,0,0,2.29-.8,5.2-2.64,9.59-13.76,14.47-22.39,9.52-1.93-1.1-3.64-2.74-4.66-5.15,0,0-.47-1.22-.75-2.95-.77-4.71,1.58-9.53,5.91-11.53,1.39-.64,3.02-1.01,4.85-.74,0,0,4.8.32,6.71,4.52.66,1.44.76,3.07.44,4.62-.26,1.29-.8,2.79-1.94,3.47" fill="none" stroke="#002346" stroke-linecap="round" stroke-linejoin="round"></path>
  <line x1="523.53" y1="244.27" x2="626.33" y2="244.27" fill="none" stroke="#002346" stroke-linecap="round" stroke-linejoin="round"></line>
  <polygon points="676.78 391.18 710.95 623.86 705.52 623.86 544.01 393.06 556.37 405.82 705.52 616.27 672.44 385.9 676.78 391.18" fill="#e3e4e5" stroke="#002346" stroke-miterlimit="10"></polygon>
  <polygon points="304.65 378.49 247.2 615.19 366.68 457.09 245.03 628.75 239.61 628.75 299.56 378.61 304.65 378.49" fill="#e3e4e5" stroke="#002346" stroke-miterlimit="10"></polygon>
  <path d="m422.94,310.9l.5,34.28c.03,1.81,1.38,3.32,3.17,3.55l14.71,1.89c1.9.24,3.69-.95,4.19-2.81l8.9-33.11-31.46-3.8Z" fill="#191A23" stroke="#002346" stroke-miterlimit="10"></path>
  <path d="m378.46,345.07l26.58-16.81,7.05-9.22s2.71-3.25,5.42-3.8l5.42-1.63.54,28.2-10.09-.92-37.1,6.89,2.17-2.71Z" fill="#f0b1bf" stroke="#002346" stroke-miterlimit="10"></path>
  <path d="m413.39,340.9s-.02-.01-.05-.03c-2.17-1.57-1.03-5.01,1.65-5.01h7.4" fill="none" stroke="#002346" stroke-linecap="round" stroke-linejoin="round"></path>
  <path d="m384.97,362.43s8.68,5.97,17.36,2.17l11.95,2.21c1.63.3,3.27-.42,4.16-1.81h0c1.26-1.98.58-4.61-1.48-5.74l-2.16-1.18-20.07-1.63-9.76,5.97Z" fill="#f0b1bf" stroke="#002346" stroke-miterlimit="10"></path>
  <path d="m379.19,344.49s-13.75-3.21-20.26,2.75l-2.38,3.44,21.91-2.35.73-3.84Z" fill="#B9FF66" stroke="#002346" stroke-linecap="round" stroke-linejoin="round"></path>
  <path d="m430.62,592.25l11.3,15.88s5.11-1.39,8.02,5.28c.65,1.49,2.18,2.44,3.78,2.17.97-.16,2.11-.58,3.38-1.49l15.73-14.1-21.13-24.04-21.09,16.3Z" fill="#f0b1bf" stroke="#002346" stroke-miterlimit="10"></path>
  <path d="m441.92,608.13s-3.25-.54-3.25,3.8l-1.99,23.9c-.09,1.07-.51,2.07-1.13,2.94-.58.82-1.22,2.47-1.22,5.7,0,0-1.08,7.05,7.59,7.59l62.92,1.63s23.85-2.34,37.25-10.49c2.21-1.34,3.56-3.74,3.48-6.33-.05-1.9-.55-4.15-2.12-6.14-1.47-1.87-3.66-3.04-6.01-3.41l-7.91-1.27c-2.34-.37-4.6-1.16-6.66-2.33l-42.98-24.27s-4.34-2.71-7.05.54l-15.73,14.1s-1.35.96-3.02,1.4c-1.67.43-3.41-.41-4.11-1.98-1.03-2.32-3.47-6.15-8.06-5.38Z" fill="#B9FF66" stroke="#002346" stroke-linecap="round" stroke-linejoin="round"></path>
  <path d="m435.55,638.78l61.7,3.53s27.32.73,46.2-11.57" fill="none" stroke="#002346" stroke-linecap="round" stroke-linejoin="round"></path>
  <path d="m144.15,522.98l-41.72,126.22c-.56,1.68.7,3.41,2.47,3.41h6.48c1.11,0,2.1-.71,2.46-1.76l43.87-127.88h-13.56Z" fill="#e3e4e5" stroke="#002346" stroke-miterlimit="10"></path>
  <path d="m261.84,522.54l11.6,137.75c.17,1.76-1.44,3.17-3.16,2.78l-6.32.19c-1.08-.25-1.89-1.15-2.01-2.26l-13.33-141.47,13.22,3.01Z" fill="#e3e4e5" stroke="#002346" stroke-miterlimit="10"></path>
  <path d="m183.2,525.15l-23.72,101.74c-.36,1.53.76,3.01,2.33,3.09l5.77.29c1.2.06,2.28-.74,2.57-1.91l26.62-106.47-13.56,3.25Z" fill="#e3e4e5" stroke="#002346" stroke-miterlimit="10"></path>
  <path d="m297.65,531.11l27.23,93.97c.26.88,1.06,1.49,1.98,1.49h6.11c1.34,0,2.33-1.27,2-2.57l-23.75-93.43-13.56.54Z" fill="#e3e4e5" stroke="#002346" stroke-miterlimit="10"></path>
  <path d="m369.24,495.32l-30.92,83.53,47.19,8.14,28.52-104.79s1.03-12.82-9.95-18.29l-34.85,31.42Z" fill="#191A23" stroke="#002346" stroke-miterlimit="10"></path>
  <path d="m306.32,424.26s15.19,4.88,21.7,26.58l-32.54.54,10.85-27.12Z" fill="#fff" stroke="#002346" stroke-miterlimit="10"></path>
  <path d="m313.56,391.26l-1.25,17.93c-.37,5.34-1.27,10.63-2.69,15.79l-7.09,25.86-10.31-1.08-.54-37.43.54-26.58,21.7,1.63-.36,3.87Z" fill="#B9FF66" stroke="#002346" stroke-linecap="round" stroke-linejoin="round"></path>
  <path d="m298.19,392.26l5.73-.71s-.7,10.69-3.21,15.19l-2.51-14.48Z" fill="#fff" stroke="#002346" stroke-miterlimit="10"></path>
  <path d="m297.65,449.76l84.34-.47c8.53-.05,16.42,4.55,20.59,12l59.96,107.25-37.43,27.66-54.24-97.63-57.49,6.51s-12.48,2.17-21.7-4.34l5.97-50.98Z" fill="#191A23" stroke="#002346" stroke-miterlimit="10"></path>
  <path d="m296.56,288.12s13.34,7.11,16.67,20.53c.97,3.91,2.48,7.67,4.42,11.2l8.2,14.91s10.43.5,11.18,17.88l-30.17,1.11s-2.71-2.17-3.8-4.34c0,0-7.05-30.92-4.34-38.51l3.25-8.14-7.4-11.97,1.97-2.67Z" fill="#B9FF66" stroke="#002346" stroke-linecap="round" stroke-linejoin="round"></path>
  <line x1="313.92" y1="353.75" x2="312.29" y2="318.5" fill="none" stroke="#002346" stroke-linecap="round" stroke-linejoin="round"></line>
  <path d="m266.19,257.75s-2.17-3.8-4.88,0l-3.97,5.29c-.59.79-.92,1.76-.92,2.75v1.19s-21.42,1.82-37.11,30.54c-2.15,3.94-3.96,8.06-5.51,12.28-4.59,12.53-19.27,53.55-25.19,80.85l-7.59,30.37,36.88,5.42s27.12,6.51,37.97,37.97l13.02,34.71,22.78,1.63s11.39-17.36,9.76-39.05l-2.36-16.14c-.56-3.81-.53-7.68.08-11.48,1.13-7.04,2.68-19.55,1.2-28.79l-2.17-13.02,47.73-5.42.54-34.71-36.69,1.51c-2.04.08-4-.75-5.36-2.26-3.55-3.94-10.16-13.17-14.35-30.7,0,0,5.38-2.69,6.77-11.34.26-1.65,0-3.34-.71-4.85l-4.43-9.3s-6.51-20.07-25.49-37.43Z" fill="#B9FF66" stroke="#002346" stroke-linecap="round" stroke-linejoin="round"></path>
  <polygon points="334.61 391.46 352.97 391.18 352.97 378.16 337.24 379.24 334.61 391.46" fill="#f0b1bf" stroke="#002346" stroke-miterlimit="10"></polygon>
  <path d="m375.75,364.6s1.49,7.47-.77,17.63c-.16.71-.26,1.44-.34,2.16-.18,1.53-1.19,4.88-6.48,7.32,0,0-10.31,4.34-16.27,2.17l.54-6.51v-8.68l-1.63-7.59,24.95-6.51Z" fill="#B9FF66" stroke="#002346" stroke-linecap="round" stroke-linejoin="round"></path>
  <path d="m266.89,251.9l-.7,5.85s16.81,14.64,25.49,37.43l14.64-21.7-10.85-46.65-8.14,1.08-11.93,11.39-8.52,12.59Z" fill="#f0b1bf" stroke="#002346" stroke-miterlimit="10"></path>
  <path d="m265.1,252.32l-8.68-26.03s-3.25-6.51.54-13.02c0,0,2.17-7.59,2.17-10.85,0,0,1.63-10.85,13.02-9.76,0,0,4.88-21.15,27.66-15.19,0,0,10.31,1.63,22.24.54,0,0,17.9-2.71,20.07,14.1,0,0,3.86,9.95-2.23,14.93-2.66,2.17-6.47,2.16-9.29.2-4.38-3.03-13.53-7.3-25.36-1.58,0,0,3.35,21.18-14.6,24.69l-13.61,7.04s2.71,12.75-11.93,14.92Z" fill="#002346" stroke="#002346" stroke-miterlimit="10"></path>
  <path d="m291.68,295.17l5.07,10.64c.25.53.38,1.11.36,1.69-.09,2.47-.93,9.23-7.05,13.16,0,0,4.88,20.07,13.02,28.75,0,0-7.05-30.37-4.34-38.51l3.25-8.14-7.4-11.97-2.91,4.38Z" fill="#fff" stroke="#002346" stroke-miterlimit="10"></path>
  <path d="m376.29,347.79l37.1-6.89c.58-.11,1.16-.13,1.75-.06l15.38,1.76c1.68.19,3.13,1.27,3.79,2.83l4.81,9.76c.41.83.54,1.77.38,2.67l-1.38,7.82h-8.39c-.76,0-1.51-.3-2-.88-.76-.92-.46-1.83-.46-1.83l1.63-2.71c0-3.28-4.97-3.46-7.38-3.35-.76.03-1.51.16-2.25.38l-19.12,5.68c-11.39,3.25-15.19-.54-15.19-.54l-46.1,19.53,7.59-29.83,29.83-4.34Z" fill="#f0b1bf" stroke="#002346" stroke-miterlimit="10"></path>
  <path d="m418.06,348.87l9.02.38c2.41.1,4.5,1.68,5.26,3.96l1.46,4.37c.34,1.02.25,2.13-.26,3.08l-2.58,4.83" fill="none" stroke="#002346" stroke-linecap="round" stroke-linejoin="round"></path>
  <path d="m434.33,365.14l2.6-5.64c.42-.92.53-1.95.31-2.94l-1.94-8.59" fill="none" stroke="#002346" stroke-linecap="round" stroke-linejoin="round"></path>
  <path d="m415.34,342.9s5.07.84,9.99,1.04c.98.04,1.96,0,2.94-.08,1.64-.14,4.84-.17,6.04,1.56" fill="none" stroke="#002346" stroke-linecap="round" stroke-linejoin="round"></path>
  <line x1="423.29" y1="322.25" x2="419.68" y2="326.09" fill="none" stroke="#002346" stroke-linecap="round" stroke-linejoin="round"></line>
  <rect x="384.97" y="365.68" width="79.19" height="3.8" fill="#fff" stroke="#002346" stroke-miterlimit="10"></rect>
  <path d="m493.93,296.39l-31.4,69.29h-3.64l30.22-66.17,4.76-3.17s.08.01.06.05Z" fill="#fff" stroke="#002346" stroke-miterlimit="10"></path>
  <polygon points="464.16 365.68 462.53 365.68 493.99 296.26 495.62 296.8 464.16 365.68" fill="#438dca" stroke="#002346" stroke-miterlimit="10"></polygon>
  <path d="m366.04,583.68l-8.79,27.32c-3.8-4.52-7.76-5.33-7.76-5.33-5.11-2.1-13.74-.41-20.95,1.74l11.54-28.14,25.95,4.41Z" fill="#f0b1bf" stroke="#002346" stroke-miterlimit="10"></path>
  <path d="m374.66,621.69l-18.44-5.97s-8.68-2.71-14.1.54c0,0-5.97,2.71-14.64-.54l-11.39-3.8s5.58-2.47,12.45-4.52c7.21-2.15,15.83-3.84,20.95-1.74,0,0,3.95.81,7.76,5.33,1.16,1.38,2.31,3.11,3.32,5.27,0,0,10.31-1.08,14.1,5.42Z" fill="#B9FF66" stroke="#002346" stroke-linecap="round" stroke-linejoin="round"></path>
  <path d="m376.83,648.81c-20.61,14.64-39.59,4.88-39.59,4.88-6.51-3.25-14.1-5.42-14.1-5.42l-12.48-1.63c-16.81-2.71-15.73-20.07-15.73-20.07.16-5.61,1.97-9.2,4.47-11.48,6.21-5.65,16.68-3.17,16.68-3.17l11.39,3.8c9.04,3.19,14.43.65,14.64.55h0c4.88-3.26,14.1-.55,14.1-.55l18.44,5.97c8.14,2.71,9.22,10.85,9.22,10.85,1.08,8.68-7.05,16.27-7.05,16.27Z" fill="#fff" stroke="#002346" stroke-miterlimit="10"></path>
  <path d="m342.12,616.28c-10.85,10.84-28.2,1.08-28.2,1.08-6.67-3.48-11.48-3.24-14.51-2.26,6.21-5.65,16.68-3.17,16.68-3.17l11.39,3.8c9.04,3.19,14.43.65,14.64.55Z" fill="#002346" stroke="#002346" stroke-miterlimit="10"></path>
  <path d="m190.29,384.49s-41.81-44.3-61.33-43.76l-22.78.54s-37.67-8.65-35.58,6.59c.12.86.39,1.69.76,2.47,3.59,7.77,28.84,63.17,42.42,112.98l16.27,53.34c1.94,6.37,7.74,10.79,14.39,10.97l124.46,3.48s6.51,11.93,30.92,7.59l24.41-7.05s15.29-5.36,13.34-29.26l-24.19,2.68s-12.48,2.71-21.7-4.34l-22.78-1.63-13.02-34.71s-7.05-27.66-37.97-37.97l-36.88-5.42,9.26-36.51Z" fill="#fff" stroke="#002346" stroke-miterlimit="10"></path>
  <path d="m181.03,421.01l-33.53-4.79c-5.26-.75-9.99-3.62-13.09-7.93l-35.28-49.11" fill="none" stroke="#002346" stroke-linecap="round" stroke-linejoin="round"></path>
  <path d="m268.9,499.11l6.47,14.24c1.08,2.37,3.26,4.04,5.82,4.46,5.73.95,16.35,2.16,25.19.03,2.11-.51,4.07-1.48,5.87-2.7,1.54-1.05,4.14-2.27,7.56-1.87,2.74.32,5.53.09,8.08-.97,3.45-1.43,7.31-4.25,8.2-9.78l-22.72,2.54s-12.48,2.71-21.7-4.34l-22.78-1.63Z" fill="#e3e4e5" stroke="#002346" stroke-miterlimit="10"></path>
  <path d="m385.51,586.98s-1.08,3.8-6.51,3.8l-15.25-.11,2.29-6.99,19.48,3.3Z" fill="#191A23" stroke="#002346" stroke-miterlimit="10"></path>
  <path d="m319.34,255.04c.16-.75,1.63,2.71,7.05,3.25,0,0,2.17.54,1.08,4.88,0,0-9.76-.54-8.14-8.14Z" fill="#f0b1bf" stroke="#002346" stroke-miterlimit="10"></path>
  <path d="m332.07,250.58l.28-2.05s8.14,1.63,5.97-4.34l-4.48-9.45c-.25-.54-.23-1.16.05-1.68l1.58-2.84s2.3-5.01-.95-10.98l-6.51-13.56s-10.31-6.51-22.78,0c0,0,1.82,12.09-5.06,19.61l-.91,17.82,11.39,21.7,7.05-1.08s-2.71-10.85,5.97-12.48l6.51,1.08,1.89-1.75Z" fill="#f0b1bf" stroke="#002346" stroke-miterlimit="10"></path>
  <path d="m332.36,248.53l-3.65-.46c-.71-.09-1.38-.46-1.76-1.07-.34-.54-.51-1.29-.02-2.27" fill="none" stroke="#002346" stroke-linecap="round" stroke-linejoin="round"></path>
  <polygon points="529.79 375.45 760.31 672.14 766.27 672.14 674.07 374.36 668.64 374.36 756.51 659.66 534.67 374.36 529.79 375.45" fill="#e3e4e5" stroke="#002346" stroke-miterlimit="10"></polygon>
  <ellipse cx="285.44" cy="237.41" rx="8.41" ry="8.95" fill="#f0b1bf" stroke="#002346" stroke-miterlimit="10"></ellipse>
  <path d="m292.76,228.46s5.16,8.77,1.89,18.25c-.16.46-.37.9-.6,1.33-1.47,2.75-7.07,14.1-1.84,18.38l18.89,11.43c1.93,1.17,4.03,2.04,6.24,2.49,4.68.95,11.19.46,10.13-10.12v-7.05s-8.74-.46-8.43-6.89c.06-1.22.92-2.27,2.11-2.57,1.68-.42,4.62-.57,9.17.98,1.23.42,2.55-.47,2.57-1.77,0-.02,0-.04,0-.06,0,0,0-3.25-3.8-3.25,0,0-11.39-2.17-12.48,7.05l-1.08,5.42s-2.17-.54-1.08-3.8c0,0,3.8-6.51-2.71-9.76,0,0-9.22-3.25-8.68-11.39,0,0,0-10.31-4.34-13.56l-5.97,4.88Z" fill="#002346" stroke="#002346" stroke-miterlimit="10"></path>
  <path d="m256.42,266.97s18.98,16.27,28.2,42.85" fill="none" stroke="#002346" stroke-linecap="round" stroke-linejoin="round"></path>
  <path d="m318.67,365.43c-1.11,1.09-2.56,2.94-3.75,5.89-.64,1.59-.23,3.42,1.06,4.55,1.8,1.58,4.49,4.59,6.97,9.86.81,1.74,1.97,3.31,3.48,4.49,3.17,2.49,8.58,4.34,13.53-5.56,0,0,1.59-7.57,3.42-13.49.43-1.38.98-2.72,1.67-3.99,1.16-2.14,3.13-6.99,1.81-13.47-.2-.97-.96-1.71-1.93-1.92-2.99-.65-9.67-2.09-14.18-2.91,0,0-9.76-1.08-9.22,2.71,0,0,1.63,3.25,0,6.51,0,0-1.67,2.34-1.6,4.4.04,1.1-.45,2.16-1.23,2.93Z" fill="#B9FF66" stroke="#002346" stroke-linecap="round" stroke-linejoin="round"></path>
  <path d="m298.18,392.61s-11.63,9.87-15.97,2.82c-.93-1.5-2.2-2.77-3.76-3.58l-7.53-3.92c-2.7-1.4-5.24-3.09-7.59-5.03-5.73-4.74-16.05-14.46-24.88-29.17,0,0-24.41-39.05-5.97-59.12,0,0,17.41-20.48,36.31,6.72,1.09,1.56,1.9,3.3,2.43,5.13.41,1.42.93,3.25,1.41,5.07.37,1.41.97,2.74,1.76,3.96,2.77,4.22,9.61,14.43,14.37,19.64" fill="#B9FF66" stroke="#002346" stroke-linecap="round" stroke-linejoin="round"></path>
  <polygon points="291.68 378.7 211.4 670.51 218.46 670.51 431.89 378.59 424.02 378.59 219.54 658.03 296.83 378.9 291.68 378.7" fill="#e3e4e5" stroke="#002346" stroke-miterlimit="10"></polygon>
  <polygon points="756.51 376.83 190.25 379.07 190.25 369.55 756.51 367.31 756.51 376.83" fill="#fff" stroke="#002346" stroke-miterlimit="10"></polygon>
  <path d="m471.87,225.2h212.33c0,3.36-2.73,6.09-6.09,6.09h-200.15c-3.36,0-6.09-2.73-6.09-6.09h0Z" fill="none" stroke="#002346" stroke-miterlimit="10"></path>
  <circle cx="513.86" cy="155.8" r="13.27" fill="none" stroke="#002346" stroke-linecap="round" stroke-linejoin="round"></circle>
  <polyline points="508.09 201.14 559.33 118.6 611.75 203" fill="none" stroke="#002346" stroke-linecap="round" stroke-linejoin="round"></polyline>
  <line x1="559.33" y1="118.6" x2="576.04" y2="219.79" fill="none" stroke="#002346" stroke-linecap="round" stroke-linejoin="round"></line>
  <path d="m478.5,225.27l9.91-14.86s37.42-31.76,89.63,11.75c0,0,47.43-43.51,90.94-10.88l8.99,14.13-199.46-.14Z" fill="#fff" stroke="#002346" stroke-miterlimit="10"></path>
  <path d="m483.94,216.81s31.44-20.76,74.95,1.87" fill="none" stroke="#002346" stroke-linecap="round" stroke-linejoin="round"></path>
  <path d="m597.62,218.24s40.43-21.16,75.47-.57" fill="none" stroke="#002346" stroke-linecap="round" stroke-linejoin="round"></path>
  <path d="m664.62,196.05s-40.03-24.8-86.59,26.11c0,0-39.16-50.04-87.02-25.67" fill="none" stroke="#002346" stroke-linecap="round" stroke-linejoin="round"></path>
  <path d="m603.27,138.18s10.37,6.6,7.61,19.54c-.73,3.4-2.29,6.57-4.37,9.36-2.55,3.42-7.19,10.91-5.51,18.34" fill="none" stroke="#002346" stroke-linecap="round" stroke-linejoin="round"></path>
  <path d="m601.97,122.95s-8.66,8-5.87,22.82c.57,3.04,1.65,5.96,3.01,8.75,1.91,3.9,5.5,12.96,2.86,21.52,0,0,4.66-3.68,9.92-10.48,6.16-7.95,6.1-19.13-.09-27.05-.08-.11-.17-.22-.26-.33,0,0-7.4-8.27-9.57-15.23Z" fill="none" stroke="#002346" stroke-linecap="round" stroke-linejoin="round"></path>
  <path d="m597.85,204.48s-4.15-11.05,14.99-28.45l16.7-12.67c15.53-11.78,21.36-32.68,13.6-50.57-.23-.53-.47-1.06-.72-1.59" fill="none" stroke="#002346" stroke-linecap="round" stroke-linejoin="round"></path>
  <path d="m652.88,82.05s-35.24,20.45-31.33,54.39c0,0,.61,31.22-14.27,45.2,0,0,50.82-13,53-40.85,0,0-1.31-22.63-4.35-35.24,0,0-4.79-18.27-3.05-23.5Z" fill="none" stroke="#002346" stroke-linecap="round" stroke-linejoin="round"></path>
  <path d="m739.68,297.89v-7.34s-6.13-6.78-2.9-15.81l5.81-14.2h1.29v21.94h3.87v-21.94h1.29l6.45,16.13s2.58,9.03-2.58,13.55v7.39c0,.56-.45,1.01-1,1.03l-11.17.27c-.58.01-1.05-.45-1.05-1.03Z" fill="#e3e4e5" stroke="#002346" stroke-miterlimit="10"></path>
  <line x1="739.68" y1="290.55" x2="752.91" y2="290.23" fill="none" stroke="#002346" stroke-linecap="round" stroke-linejoin="round"></line>
  <path d="m768.67,235.3c-1.99,11.78-11.76,20.73-23.51,20.73s-21.6-9.02-23.53-20.88" fill="none" stroke="#002346" stroke-linecap="round" stroke-linejoin="round"></path>
  <rect x="743.09" y="252.8" width="5.81" height="5.81" fill="#002346" stroke="#002346" stroke-miterlimit="10"></rect>
  <rect x="719.35" y="229.57" width="5.81" height="5.81" fill="#002346" stroke="#002346" stroke-miterlimit="10"></rect>
  <rect x="766.46" y="229.57" width="5.81" height="5.81" fill="#002346" stroke="#002346" stroke-miterlimit="10"></rect>
  <path d="m677.36,320.92s-1.3,18.95,12.34,13.74c1.53-.58,2.77-1.8,3.26-3.35.92-2.91-.47-7.53-15.6-10.38Z" fill="#7ccf92" stroke="#002346" stroke-miterlimit="10"></path>
  <path d="m714.03,326.35s-9.75,1.56-8.5,6.49c.35,1.36,1.45,2.41,2.81,2.76,2.22.57,5.69-.01,5.69-9.25Z" fill="#7ccf92" stroke="#002346" stroke-miterlimit="10"></path>
  <path d="m703.92,317.2c-1.17-3.21-.8-7.93,6.38-13.26,0,0,8.15-5.09,16.98-5.77l-1.02,12.56s-.14,18.75-17.15,11.77c-2.38-.98-4.3-2.88-5.18-5.3Z" fill="#7ccf92" stroke="#002346" stroke-miterlimit="10"></path>
  <path d="m719.46,344.39c0,.85-.34,1.61-.9,2.16-.55.55-1.32.89-2.16.89h-35.31c-1.69,0-3.06-1.36-3.06-3.06,0-.84.34-1.61.9-2.16.55-.55,1.32-.9,2.16-.9h35.31c1.69,0,3.06,1.37,3.06,3.06Z" fill="#fff" stroke="#002346" stroke-miterlimit="10"></path>
  <path d="m716.04,347.45l-1.94,11.11c-.9,5.13-5.35,8.87-10.56,8.87h-9.34c-5.12,0-9.52-3.62-10.51-8.64l-2.24-11.34h34.59Z" fill="#191A23" stroke="#002346" stroke-miterlimit="10"></path>
  <path d="m668.87,270.33s-14.27,52.8,19.1,46.63c5.34-.99,10.03-4.29,12.44-9.15,4.05-8.15,4.11-20.5-31.54-37.48Z" fill="#7ccf92" stroke="#002346" stroke-miterlimit="10"></path>
  <path d="m674.65,278.82s20.71,19.01,23.09,62.13" fill="none" stroke="#002346" stroke-linecap="round" stroke-linejoin="round"></path>
  <path d="m677.02,304.96s8.54-1.16,13.61.95" fill="none" stroke="#002346" stroke-linecap="round" stroke-linejoin="round"></path>
  <path d="m692.98,292.74s-3.05,3.01-3.9,8.12" fill="none" stroke="#002346" stroke-linecap="round" stroke-linejoin="round"></path>
  <path d="m677.7,292.06s3.54-.58,7.88,2.59" fill="none" stroke="#002346" stroke-linecap="round" stroke-linejoin="round"></path>
  <path d="m681.44,280.51s-.77,2.86.46,7.54" fill="none" stroke="#002346" stroke-linecap="round" stroke-linejoin="round"></path>
  <path d="m699.13,341.33s5.4-25.51,25.09-40.45" fill="none" stroke="#002346" stroke-linecap="round" stroke-linejoin="round"></path>
  <path d="m709.34,317.67s4.35-1.84,8.08,1.21" fill="none" stroke="#002346" stroke-linecap="round" stroke-linejoin="round"></path>
  <path d="m713.92,310.86s3.51-3.18,7.24-2.51" fill="none" stroke="#002346" stroke-linecap="round" stroke-linejoin="round"></path>
  <line x1="717.43" y1="302.24" x2="717.68" y2="306.52" fill="none" stroke="#002346" stroke-linecap="round" stroke-linejoin="round"></line>
  <path d="m710.64,309.03s1.17,2.44.58,5.47" fill="none" stroke="#002346" stroke-linecap="round" stroke-linejoin="round"></path>
  <path d="m680.08,322.95s12.21,7.99,14.59,18.42" fill="none" stroke="#002346" stroke-linecap="round" stroke-linejoin="round"></path>
  <path d="m684.83,331.1s1.98-.87,4.56.42" fill="none" stroke="#002346" stroke-linecap="round" stroke-linejoin="round"></path>
  <path d="m687.55,326.01s-.65,1.23-.16,3.16" fill="none" stroke="#002346" stroke-linecap="round" stroke-linejoin="round"></path>
  <path d="m681.78,327.03s1.36-.68,3.52.26" fill="none" stroke="#002346" stroke-linecap="round" stroke-linejoin="round"></path>
  <path d="m711.65,328.39s-6.11,5.09-7.81,12.9" fill="none" stroke="#002346" stroke-linecap="round" stroke-linejoin="round"></path>
</svg>
