<svg width="217" height="32" viewBox="0 0 217 32" fill="none" xmlns="http://www.w3.org/2000/svg">
<path fill-rule="evenodd" clip-rule="evenodd" d="M17.8871 4.5L17.8961 4.50017C19.7263 4.5337 21.3466 4.86436 22.7553 5.43437C26.9761 7.14227 29.1435 10.9251 29.4592 14.8362C29.5699 16.2073 29.4547 17.6001 29.1208 18.9361C28.2347 22.4818 25.7905 25.6735 21.8945 26.9341C20.6782 27.3277 19.3323 27.5283 17.8655 27.4968C16.3936 27.4651 15.0578 27.2309 13.8603 26.8266C10.042 25.5372 7.73955 22.56 6.88409 19.2153C6.51862 17.7864 6.41583 16.2884 6.56775 14.819C6.83702 12.2143 7.91038 9.67136 9.78031 7.75561C10.5865 6.9297 11.5388 6.22263 12.6334 5.6804C14.1343 4.93697 15.8884 4.51036 17.8781 4.50005L17.8871 4.5ZM13.745 10.1856V16.6976C14.2257 17.0309 14.6847 17.3984 15.1158 17.8036C15.8892 18.5303 16.5646 19.3706 17.1122 20.3381V11.7763C15.7242 11.6264 14.579 11.0402 13.745 10.1856ZM18.6519 11.7643V20.0182C19.4211 18.6211 20.4544 17.4798 21.6966 16.5816V10.3339C20.9229 11.1113 19.8901 11.6114 18.6519 11.7643ZM23.2364 7.36686V15.644C24.6315 14.934 26.1909 14.4745 27.8408 14.2303C27.4234 11.4298 25.9103 8.85326 23.2364 7.36686ZM27.96 15.7695C26.0384 16.0664 24.3147 16.6757 22.894 17.6242C20.4846 19.2328 18.8445 21.8864 18.6677 25.9497C19.4633 25.9161 20.206 25.8029 20.8962 25.6223C20.9657 23.326 21.4643 21.4423 22.6231 20.1052C23.7933 18.7549 25.5184 18.0937 27.7535 17.9932C27.8961 17.2612 27.9654 16.5144 27.96 15.7695ZM27.3252 19.5649C25.6359 19.7205 24.5194 20.2681 23.7867 21.1136C23.0397 21.9756 22.5935 23.2568 22.4657 25.0593C24.8457 23.9524 26.4895 21.9236 27.3252 19.5649ZM17.0894 25.9163C16.2898 25.8517 15.5487 25.7179 14.8644 25.5257C14.7654 23.2263 14.0614 21.4341 12.8331 20.1924C11.6411 18.9874 10.0378 18.3843 8.24868 18.2735C8.09153 17.4824 8.02322 16.67 8.04311 15.8579C10.3021 16.4441 12.4372 17.3993 14.0614 18.9256C15.7313 20.4949 16.9134 22.716 17.0894 25.9163ZM8.18919 14.3065C9.55841 14.646 10.9281 15.1184 12.2053 15.7762V7.71405C11.7229 8.04695 11.2818 8.42172 10.8822 8.83112C9.43836 10.3103 8.52796 12.2515 8.18919 14.3065ZM13.779 6.84707C14.9548 6.34402 16.3195 6.049 17.877 6.03982C19.3126 6.06699 20.5775 6.29502 21.6805 6.67559C21.6045 7.67174 21.2698 8.5044 20.7369 9.10735C20.1239 9.80114 19.1866 10.2621 17.875 10.2741C15.5153 10.2957 14.0206 8.7626 13.779 6.84707ZM8.69699 19.8629C9.49145 22.0032 11.0083 23.8491 13.2774 24.9322C13.0989 23.2631 12.5304 22.0759 11.7385 21.2753C10.9788 20.5074 9.95011 20.0311 8.69699 19.8629Z" fill="black" stroke="black"/>
<path d="M42.9 25.35C41.4667 25.35 40.2333 25.0917 39.2 24.575C38.1833 24.0417 37.4 23.2917 36.85 22.325C36.3167 21.3417 36.05 20.1833 36.05 18.85V7.5H39.35V18.95C39.35 20.0167 39.65 20.8583 40.25 21.475C40.8667 22.0917 41.75 22.4 42.9 22.4C44.05 22.4 44.925 22.0917 45.525 21.475C46.1417 20.8583 46.45 20.0167 46.45 18.95V7.5H49.75V18.85C49.75 20.1833 49.475 21.3417 48.925 22.325C48.3917 23.2917 47.6083 24.0417 46.575 24.575C45.5583 25.0917 44.3333 25.35 42.9 25.35ZM53.0469 25V7.5H56.1969V25H53.0469ZM59.6875 25V12.6H62.7875V14.225H63.2375C63.4375 13.7917 63.8125 13.3833 64.3625 13C64.9125 12.6 65.7458 12.4 66.8625 12.4C67.8292 12.4 68.6708 12.625 69.3875 13.075C70.1208 13.5083 70.6875 14.1167 71.0875 14.9C71.4875 15.6667 71.6875 16.5667 71.6875 17.6V25H68.5375V17.85C68.5375 16.9167 68.3042 16.2167 67.8375 15.75C67.3875 15.2833 66.7375 15.05 65.8875 15.05C64.9208 15.05 64.1708 15.375 63.6375 16.025C63.1042 16.6583 62.8375 17.55 62.8375 18.7V25H59.6875ZM80.9178 25.35C79.7178 25.35 78.6261 25.1 77.6428 24.6C76.6761 24.1 75.9094 23.375 75.3428 22.425C74.7761 21.475 74.4928 20.325 74.4928 18.975V18.625C74.4928 17.275 74.7761 16.125 75.3428 15.175C75.9094 14.225 76.6761 13.5 77.6428 13C78.6261 12.5 79.7178 12.25 80.9178 12.25C82.1011 12.25 83.1178 12.4583 83.9678 12.875C84.8178 13.2917 85.5011 13.8667 86.0178 14.6C86.5511 15.3167 86.9011 16.1333 87.0678 17.05L84.0178 17.7C83.9511 17.2 83.8011 16.75 83.5678 16.35C83.3344 15.95 83.0011 15.6333 82.5678 15.4C82.1511 15.1667 81.6261 15.05 80.9928 15.05C80.3594 15.05 79.7844 15.1917 79.2678 15.475C78.7678 15.7417 78.3678 16.15 78.0678 16.7C77.7844 17.2333 77.6428 17.8917 77.6428 18.675V18.925C77.6428 19.7083 77.7844 20.375 78.0678 20.925C78.3678 21.4583 78.7678 21.8667 79.2678 22.15C79.7844 22.4167 80.3594 22.55 80.9928 22.55C81.9428 22.55 82.6594 22.3083 83.1428 21.825C83.6428 21.325 83.9594 20.675 84.0928 19.875L87.1428 20.6C86.9261 21.4833 86.5511 22.2917 86.0178 23.025C85.5011 23.7417 84.8178 24.3083 83.9678 24.725C83.1178 25.1417 82.1011 25.35 80.9178 25.35ZM95.6412 25.35C94.4079 25.35 93.2995 25.1 92.3162 24.6C91.3329 24.1 90.5579 23.375 89.9912 22.425C89.4245 21.475 89.1412 20.3333 89.1412 19V18.6C89.1412 17.2667 89.4245 16.125 89.9912 15.175C90.5579 14.225 91.3329 13.5 92.3162 13C93.2995 12.5 94.4079 12.25 95.6412 12.25C96.8745 12.25 97.9829 12.5 98.9662 13C99.9495 13.5 100.725 14.225 101.291 15.175C101.858 16.125 102.141 17.2667 102.141 18.6V19C102.141 20.3333 101.858 21.475 101.291 22.425C100.725 23.375 99.9495 24.1 98.9662 24.6C97.9829 25.1 96.8745 25.35 95.6412 25.35ZM95.6412 22.55C96.6079 22.55 97.4079 22.2417 98.0412 21.625C98.6745 20.9917 98.9912 20.0917 98.9912 18.925V18.675C98.9912 17.5083 98.6745 16.6167 98.0412 16C97.4245 15.3667 96.6245 15.05 95.6412 15.05C94.6745 15.05 93.8745 15.3667 93.2412 16C92.6079 16.6167 92.2912 17.5083 92.2912 18.675V18.925C92.2912 20.0917 92.6079 20.9917 93.2412 21.625C93.8745 22.2417 94.6745 22.55 95.6412 22.55ZM105.049 25V12.6H108.149V13.95H108.599C108.815 13.5333 109.174 13.175 109.674 12.875C110.174 12.5583 110.832 12.4 111.649 12.4C112.532 12.4 113.24 12.575 113.774 12.925C114.307 13.2583 114.715 13.7 114.999 14.25H115.449C115.732 13.7167 116.132 13.275 116.649 12.925C117.165 12.575 117.899 12.4 118.849 12.4C119.615 12.4 120.307 12.5667 120.924 12.9C121.557 13.2167 122.057 13.7083 122.424 14.375C122.807 15.025 122.999 15.85 122.999 16.85V25H119.849V17.075C119.849 16.3917 119.674 15.8833 119.324 15.55C118.974 15.2 118.482 15.025 117.849 15.025C117.132 15.025 116.574 15.2583 116.174 15.725C115.79 16.175 115.599 16.825 115.599 17.675V25H112.449V17.075C112.449 16.3917 112.274 15.8833 111.924 15.55C111.574 15.2 111.082 15.025 110.449 15.025C109.732 15.025 109.174 15.2583 108.774 15.725C108.39 16.175 108.199 16.825 108.199 17.675V25H105.049ZM126.387 25V12.6H129.487V13.95H129.937C130.153 13.5333 130.512 13.175 131.012 12.875C131.512 12.5583 132.17 12.4 132.987 12.4C133.87 12.4 134.578 12.575 135.112 12.925C135.645 13.2583 136.053 13.7 136.337 14.25H136.787C137.07 13.7167 137.47 13.275 137.987 12.925C138.503 12.575 139.237 12.4 140.187 12.4C140.953 12.4 141.645 12.5667 142.262 12.9C142.895 13.2167 143.395 13.7083 143.762 14.375C144.145 15.025 144.337 15.85 144.337 16.85V25H141.187V17.075C141.187 16.3917 141.012 15.8833 140.662 15.55C140.312 15.2 139.82 15.025 139.187 15.025C138.47 15.025 137.912 15.2583 137.512 15.725C137.128 16.175 136.937 16.825 136.937 17.675V25H133.787V17.075C133.787 16.3917 133.612 15.8833 133.262 15.55C132.912 15.2 132.42 15.025 131.787 15.025C131.07 15.025 130.512 15.2583 130.112 15.725C129.728 16.175 129.537 16.825 129.537 17.675V25H126.387ZM152.254 25.2C151.288 25.2 150.438 24.9833 149.704 24.55C148.988 24.1 148.429 23.4833 148.029 22.7C147.629 21.9167 147.429 21.0167 147.429 20V12.6H150.579V19.75C150.579 20.6833 150.804 21.3833 151.254 21.85C151.721 22.3167 152.379 22.55 153.229 22.55C154.196 22.55 154.946 22.2333 155.479 21.6C156.013 20.95 156.279 20.05 156.279 18.9V12.6H159.429V25H156.329V23.375H155.879C155.679 23.7917 155.304 24.2 154.754 24.6C154.204 25 153.371 25.2 152.254 25.2ZM162.935 25V12.6H166.035V14.225H166.485C166.685 13.7917 167.06 13.3833 167.61 13C168.16 12.6 168.993 12.4 170.11 12.4C171.076 12.4 171.918 12.625 172.635 13.075C173.368 13.5083 173.935 14.1167 174.335 14.9C174.735 15.6667 174.935 16.5667 174.935 17.6V25H171.785V17.85C171.785 16.9167 171.551 16.2167 171.085 15.75C170.635 15.2833 169.985 15.05 169.135 15.05C168.168 15.05 167.418 15.375 166.885 16.025C166.351 16.6583 166.085 17.55 166.085 18.7V25H162.935ZM178.34 25V12.6H181.49V25H178.34ZM179.915 11.15C179.348 11.15 178.865 10.9667 178.465 10.6C178.082 10.2333 177.89 9.75 177.89 9.15C177.89 8.55 178.082 8.06667 178.465 7.7C178.865 7.33333 179.348 7.15 179.915 7.15C180.498 7.15 180.982 7.33333 181.365 7.7C181.748 8.06667 181.94 8.55 181.94 9.15C181.94 9.75 181.748 10.2333 181.365 10.6C180.982 10.9667 180.498 11.15 179.915 11.15ZM189.73 25C188.914 25 188.247 24.75 187.73 24.25C187.23 23.7333 186.98 23.05 186.98 22.2V15.2H183.88V12.6H186.98V8.75H190.13V12.6H193.53V15.2H190.13V21.65C190.13 22.15 190.364 22.4 190.83 22.4H193.23V25H189.73ZM197.732 30V27.25H204.482C204.949 27.25 205.182 27 205.182 26.5V23.375H204.732C204.599 23.6583 204.39 23.9417 204.107 24.225C203.824 24.5083 203.44 24.7417 202.957 24.925C202.474 25.1083 201.857 25.2 201.107 25.2C200.14 25.2 199.29 24.9833 198.557 24.55C197.84 24.1 197.282 23.4833 196.882 22.7C196.482 21.9167 196.282 21.0167 196.282 20V12.6H199.432V19.75C199.432 20.6833 199.657 21.3833 200.107 21.85C200.574 22.3167 201.232 22.55 202.082 22.55C203.049 22.55 203.799 22.2333 204.332 21.6C204.865 20.95 205.132 20.05 205.132 18.9V12.6H208.282V27.2C208.282 28.05 208.032 28.725 207.532 29.225C207.032 29.7417 206.365 30 205.532 30H197.732Z" fill="black"/>
</svg>
