<svg width="1053" height="296" viewBox="0 0 1053 296" fill="none" xmlns="http://www.w3.org/2000/svg">
<path d="M144.774 259.468V96.5M144.774 259.468C144.62 179.704 90.2045 148.479 35.1616 136.55M144.774 259.468C159.174 259.778 172.265 257.807 184.006 254.008M144.774 259.468C130.228 259.156 117.158 256.845 105.543 252.922M144.774 259.468C144.679 210.365 163.288 177.669 192.413 158.224M144.774 96.5C113.549 96.7859 94.1742 74.2752 93.7854 47.9343M144.774 96.5C176 96.2141 192.765 74.2068 192.413 45.6248M35.1616 136.55C37.7962 111.066 48.2826 86.3884 66.3116 67.9176C74.0781 59.9608 83.2443 53.1558 93.7854 47.9343M35.1616 136.55C33.6771 150.909 34.6854 165.524 38.2417 179.428M184.006 254.008C221.434 241.898 245.142 211.206 253.798 176.57M184.006 254.008C184.006 202.297 203.622 176.57 253.798 176.57M105.543 252.922C68.7453 240.497 46.5463 211.898 38.2417 179.428M105.543 252.922C105.543 202.297 77.5206 179.428 38.2417 179.428M192.413 158.224V45.6248M192.413 158.224C210.555 146.112 232.778 139.142 257.102 136.55M93.7854 47.9343C108.223 40.7824 125.241 36.6012 144.774 36.5C162.908 36.8323 178.767 40.1032 192.413 45.6248M93.7854 47.9343V158.224M192.413 45.6248C233.009 62.0517 254.022 98.3986 257.102 136.55M257.102 136.55C258.182 149.928 257.057 163.529 253.798 176.57" stroke="url(#paint0_linear_109_8284)" stroke-width="16"/>
<path d="M381.789 186.057C381.789 187.26 381.574 188.377 381.145 189.408C380.715 190.439 380.113 191.342 379.34 192.115C378.566 192.846 377.664 193.426 376.633 193.855C375.602 194.285 374.506 194.5 373.346 194.5H335.576C332.01 194.5 328.4 194.113 324.748 193.34C321.096 192.566 317.551 191.385 314.113 189.795C310.719 188.162 307.518 186.1 304.51 183.607C301.502 181.115 298.859 178.172 296.582 174.777C294.348 171.34 292.586 167.43 291.297 163.047C290.008 158.621 289.363 153.701 289.363 148.287V102.074H306.121V148.287C306.121 153.014 306.766 157.01 308.055 160.275C309.387 163.541 311.062 166.27 313.082 168.461C315.102 170.652 317.314 172.371 319.721 173.617C322.127 174.863 324.404 175.787 326.553 176.389C328.744 176.99 330.656 177.377 332.289 177.549C333.965 177.678 335.061 177.742 335.576 177.742H365.031V102.074H381.789V186.057ZM486.203 194.5H409.762C408.559 194.5 407.441 194.285 406.41 193.855C405.379 193.426 404.477 192.846 403.703 192.115C402.973 191.342 402.393 190.439 401.963 189.408C401.533 188.377 401.318 187.26 401.318 186.057V102.074H418.076V177.742H486.203V194.5ZM590.875 187.346C590.875 188.549 590.639 189.666 590.166 190.697C589.736 191.729 589.135 192.631 588.361 193.404C587.631 194.135 586.75 194.715 585.719 195.145C584.688 195.574 583.592 195.789 582.432 195.789C581.4 195.789 580.348 195.596 579.273 195.209C578.242 194.822 577.318 194.199 576.502 193.34L515.271 129.402V194.5H498.514V109.229C498.514 107.51 498.986 105.963 499.932 104.588C500.92 103.17 502.166 102.117 503.67 101.43C505.26 100.785 506.893 100.635 508.568 100.979C510.244 101.279 511.684 102.053 512.887 103.299L574.117 167.172V102.074H590.875V187.346ZM695.289 194.5H618.848C617.645 194.5 616.527 194.285 615.496 193.855C614.465 193.426 613.562 192.846 612.789 192.115C612.059 191.342 611.479 190.439 611.049 189.408C610.619 188.377 610.404 187.26 610.404 186.057V102.074H627.162V177.742H695.289V194.5ZM798.285 194.5H781.527V171.812H722.617V194.5H705.859V148.287C705.859 141.541 707.02 135.332 709.34 129.66C711.66 123.988 714.883 119.111 719.008 115.029C723.133 110.947 728.01 107.768 733.639 105.49C739.268 103.213 745.412 102.074 752.072 102.074H789.842C791.002 102.074 792.098 102.289 793.129 102.719C794.16 103.148 795.062 103.75 795.836 104.523C796.609 105.297 797.211 106.199 797.641 107.23C798.07 108.262 798.285 109.357 798.285 110.518V194.5ZM722.617 155.055H781.527V118.832H752.072C751.557 118.832 750.461 118.918 748.785 119.09C747.152 119.219 745.24 119.584 743.049 120.186C740.9 120.787 738.623 121.711 736.217 122.957C733.811 124.203 731.598 125.922 729.578 128.113C727.559 130.305 725.883 133.055 724.551 136.363C723.262 139.629 722.617 143.604 722.617 148.287V155.055ZM910.047 174.197C910.047 176.26 909.682 178.473 908.951 180.836C908.264 183.199 907.104 185.391 905.471 187.41C903.881 189.43 901.797 191.127 899.219 192.502C896.641 193.834 893.482 194.5 889.744 194.5H826.129C824.926 194.5 823.809 194.285 822.777 193.855C821.746 193.426 820.844 192.846 820.07 192.115C819.34 191.342 818.76 190.439 818.33 189.408C817.9 188.377 817.686 187.26 817.686 186.057V110.518C817.686 109.357 817.9 108.262 818.33 107.23C818.76 106.199 819.34 105.297 820.07 104.523C820.844 103.75 821.746 103.148 822.777 102.719C823.809 102.289 824.926 102.074 826.129 102.074H882.203C884.266 102.074 886.479 102.439 888.842 103.17C891.205 103.9 893.396 105.082 895.416 106.715C897.479 108.305 899.176 110.389 900.508 112.967C901.883 115.545 902.57 118.703 902.57 122.441V125.6C902.57 128.564 902.076 131.766 901.088 135.203C900.1 138.598 898.51 141.82 896.318 144.871C898.209 146.031 899.971 147.428 901.604 149.061C903.279 150.693 904.74 152.584 905.986 154.732C907.232 156.881 908.221 159.309 908.951 162.016C909.682 164.723 910.047 167.709 910.047 170.975V174.197ZM893.289 170.975C893.289 168.783 892.945 166.828 892.258 165.109C891.57 163.348 890.604 161.844 889.357 160.598C888.111 159.352 886.607 158.406 884.846 157.762C883.084 157.074 881.107 156.73 878.916 156.73H841.146V139.844H871.375C873.566 139.844 875.543 139.521 877.305 138.877C879.066 138.189 880.57 137.223 881.816 135.977C883.062 134.73 884.008 133.248 884.652 131.529C885.34 129.768 885.684 127.791 885.684 125.6V122.441C885.684 120.035 884.523 118.832 882.203 118.832H834.443V177.742H889.744C890.045 177.742 890.41 177.721 890.84 177.678C891.27 177.635 891.656 177.506 892 177.291C892.344 177.076 892.645 176.711 892.902 176.195C893.16 175.68 893.289 174.971 893.289 174.068V170.975ZM1013.49 167.301C1013.49 170.609 1013.06 173.596 1012.21 176.26C1011.39 178.881 1010.29 181.201 1008.92 183.221C1007.54 185.24 1005.93 186.959 1004.08 188.377C1002.24 189.795 1000.32 190.955 998.348 191.857C996.371 192.76 994.352 193.426 992.289 193.855C990.27 194.285 988.357 194.5 986.553 194.5H921.906V177.742H986.553C989.775 177.742 992.268 176.797 994.029 174.906C995.834 173.016 996.736 170.48 996.736 167.301C996.736 165.754 996.5 164.336 996.027 163.047C995.555 161.758 994.867 160.641 993.965 159.695C993.105 158.75 992.031 158.02 990.742 157.504C989.496 156.988 988.1 156.73 986.553 156.73H948.01C945.303 156.73 942.381 156.258 939.244 155.312C936.107 154.324 933.186 152.756 930.479 150.607C927.814 148.459 925.58 145.645 923.775 142.164C922.014 138.684 921.133 134.43 921.133 129.402C921.133 124.375 922.014 120.143 923.775 116.705C925.58 113.225 927.814 110.41 930.479 108.262C933.186 106.07 936.107 104.502 939.244 103.557C942.381 102.568 945.303 102.074 948.01 102.074H1005.05V118.832H948.01C944.83 118.832 942.338 119.799 940.533 121.732C938.771 123.666 937.891 126.223 937.891 129.402C937.891 132.625 938.771 135.182 940.533 137.072C942.338 138.92 944.83 139.844 948.01 139.844H986.553H986.682C988.486 139.887 990.398 140.145 992.418 140.617C994.438 141.047 996.436 141.734 998.412 142.68C1000.43 143.625 1002.34 144.828 1004.15 146.289C1005.95 147.707 1007.54 149.426 1008.92 151.445C1010.34 153.465 1011.45 155.785 1012.27 158.406C1013.09 161.027 1013.49 163.992 1013.49 167.301Z" fill="url(#paint1_linear_109_8284)"/>
<defs>
<linearGradient id="paint0_linear_109_8284" x1="146" y1="26" x2="146" y2="259" gradientUnits="userSpaceOnUse">
<stop/>
<stop offset="1" stop-color="#B9B9B9"/>
</linearGradient>
<linearGradient id="paint1_linear_109_8284" x1="651" y1="-10.0005" x2="651" y2="290.5" gradientUnits="userSpaceOnUse">
<stop/>
<stop offset="1" stop-color="#F1F1F1"/>
</linearGradient>
</defs>
</svg>
