<svg width="25" height="25" viewBox="0 0 25 25" fill="none" xmlns="http://www.w3.org/2000/svg">
<path fill-rule="evenodd" clip-rule="evenodd" d="M12.3773 0L12.3871 0.00018016C14.3764 0.0366296 16.1376 0.396042 17.6688 1.01562C22.2566 2.87203 24.6125 6.9838 24.9557 11.235C25.076 12.7254 24.9507 14.2393 24.5878 15.6914C23.6247 19.5454 20.9679 23.0146 16.7331 24.3849C15.4111 24.8127 13.9482 25.0308 12.3538 24.9965C10.7539 24.9621 9.302 24.7075 8.00038 24.268C3.84999 22.8665 1.34734 19.6305 0.417487 15.9949C0.0202433 14.4417 -0.0914897 12.8135 0.0736362 11.2163C0.366331 8.3851 1.53302 5.62104 3.56555 3.5387C4.44181 2.64098 5.47695 1.87243 6.66678 1.28305C8.2981 0.47497 10.2048 0.0112585 12.3674 5.09257e-05L12.3773 0ZM7.87504 6.18003V13.2582C8.39748 13.6206 8.8964 14.02 9.36501 14.4604C10.2056 15.2503 10.9398 16.1637 11.535 17.2153V7.909C10.0263 7.74608 8.78155 7.10896 7.87504 6.18003ZM13.2086 7.89598V16.8676C14.0447 15.3491 15.1678 14.1085 16.5181 13.1322V6.34123C15.6771 7.18619 14.5545 7.72975 13.2086 7.89598ZM18.1917 3.11615V12.113C19.7081 11.3413 21.4031 10.8418 23.1965 10.5764C22.7428 7.53236 21.0982 4.73181 18.1917 3.11615ZM23.326 12.2495C21.2374 12.5721 19.3638 13.2345 17.8195 14.2655C15.2006 16.0139 13.418 18.8983 13.2258 23.3149C14.0905 23.2783 14.8979 23.1553 15.648 22.9591C15.7236 20.4631 16.2655 18.4156 17.5251 16.9621C18.7971 15.4945 20.6722 14.7758 23.1016 14.6665C23.2566 13.8709 23.3319 13.0592 23.326 12.2495ZM22.6361 16.3749C20.7999 16.544 19.5863 17.1393 18.7899 18.0582C17.9779 18.9952 17.4929 20.3878 17.354 22.347C19.941 21.1439 21.7277 18.9387 22.6361 16.3749ZM11.5102 23.2786C10.6411 23.2083 9.83551 23.063 9.09176 22.854C8.98415 20.3546 8.21891 18.4066 6.88383 17.057C5.58816 15.7472 3.84542 15.0916 1.90074 14.9712C1.72992 14.1113 1.65567 13.2283 1.67729 12.3456C4.1327 12.9828 6.45349 14.021 8.21889 15.68C10.034 17.3858 11.3189 19.8 11.5102 23.2786ZM1.83608 10.6592C3.32436 11.0282 4.8132 11.5418 6.2014 12.2567V3.49354C5.67704 3.85538 5.19759 4.26274 4.76323 4.70773C3.19387 6.31555 2.2043 8.42553 1.83608 10.6592ZM7.91199 2.55117C9.18997 2.00437 10.6734 1.6837 12.3663 1.67372C13.9267 1.70325 15.3016 1.95111 16.5006 2.36477C16.4179 3.44754 16.0541 4.35261 15.4749 5.00799C14.8086 5.7621 13.7897 6.26316 12.3641 6.27622C9.79926 6.2997 8.17452 4.63327 7.91199 2.55117ZM2.38803 16.6988C3.25157 19.0252 4.90034 21.0316 7.3667 22.2089C7.17269 20.3947 6.55481 19.1042 5.69399 18.234C4.86828 17.3993 3.75012 16.8816 2.38803 16.6988Z" fill="white"/>
</svg>
