<svg width="1053" height="296" viewBox="0 0 1053 296" fill="none" xmlns="http://www.w3.org/2000/svg">
<path d="M144.774 259.468V96.5M144.774 259.468C144.62 179.704 90.2045 148.479 35.1616 136.55M144.774 259.468C159.174 259.778 172.265 257.807 184.006 254.008M144.774 259.468C130.228 259.156 117.158 256.845 105.543 252.922M144.774 259.468C144.679 210.365 163.288 177.669 192.413 158.224M93.7854 47.9343C108.223 40.7824 125.241 36.6012 144.774 36.5C162.908 36.8323 178.767 40.1032 192.413 45.6248M93.7854 47.9343C94.1742 74.2752 113.549 96.7859 144.774 96.5M93.7854 47.9343V158.224M93.7854 47.9343C83.2443 53.1558 74.0781 59.9608 66.3116 67.9176C48.2826 86.3884 37.7962 111.066 35.1616 136.55M192.413 45.6248C192.765 74.2068 176 96.2141 144.774 96.5M192.413 45.6248C233.009 62.0517 254.022 98.3986 257.102 136.55M192.413 45.6248V158.224M257.102 136.55C258.182 149.928 257.057 163.529 253.798 176.57M257.102 136.55C232.778 139.142 210.555 146.112 192.413 158.224M35.1616 136.55C33.6771 150.909 34.6854 165.524 38.2417 179.428M184.006 254.008C221.434 241.898 245.142 211.206 253.798 176.57M184.006 254.008C184.006 202.297 203.622 176.57 253.798 176.57M105.543 252.922C68.7453 240.497 46.5463 211.898 38.2417 179.428M105.543 252.922C105.543 202.297 77.5206 179.428 38.2417 179.428" stroke="url(#paint0_linear_16_10637)" stroke-width="16"/>
<path d="M381.789 169.057C381.789 170.26 381.574 171.377 381.145 172.408C380.715 173.439 380.113 174.342 379.34 175.115C378.566 175.846 377.664 176.426 376.633 176.855C375.602 177.285 374.506 177.5 373.346 177.5H335.576C332.01 177.5 328.4 177.113 324.748 176.34C321.096 175.566 317.551 174.385 314.113 172.795C310.719 171.162 307.518 169.1 304.51 166.607C301.502 164.115 298.859 161.172 296.582 157.777C294.348 154.34 292.586 150.43 291.297 146.047C290.008 141.621 289.363 136.701 289.363 131.287V85.0742H306.121V131.287C306.121 136.014 306.766 140.01 308.055 143.275C309.387 146.541 311.062 149.27 313.082 151.461C315.102 153.652 317.314 155.371 319.721 156.617C322.127 157.863 324.404 158.787 326.553 159.389C328.744 159.99 330.656 160.377 332.289 160.549C333.965 160.678 335.061 160.742 335.576 160.742H365.031V85.0742H381.789V169.057ZM486.203 177.5H409.762C408.559 177.5 407.441 177.285 406.41 176.855C405.379 176.426 404.477 175.846 403.703 175.115C402.973 174.342 402.393 173.439 401.963 172.408C401.533 171.377 401.318 170.26 401.318 169.057V85.0742H418.076V160.742H486.203V177.5ZM590.875 170.346C590.875 171.549 590.639 172.666 590.166 173.697C589.736 174.729 589.135 175.631 588.361 176.404C587.631 177.135 586.75 177.715 585.719 178.145C584.688 178.574 583.592 178.789 582.432 178.789C581.4 178.789 580.348 178.596 579.273 178.209C578.242 177.822 577.318 177.199 576.502 176.34L515.271 112.402V177.5H498.514V92.2285C498.514 90.5098 498.986 88.9629 499.932 87.5879C500.92 86.1699 502.166 85.1172 503.67 84.4297C505.26 83.7852 506.893 83.6348 508.568 83.9785C510.244 84.2793 511.684 85.0527 512.887 86.2988L574.117 150.172V85.0742H590.875V170.346ZM695.289 177.5H618.848C617.645 177.5 616.527 177.285 615.496 176.855C614.465 176.426 613.562 175.846 612.789 175.115C612.059 174.342 611.479 173.439 611.049 172.408C610.619 171.377 610.404 170.26 610.404 169.057V85.0742H627.162V160.742H695.289V177.5ZM798.285 177.5H781.527V154.812H722.617V177.5H705.859V131.287C705.859 124.541 707.02 118.332 709.34 112.66C711.66 106.988 714.883 102.111 719.008 98.0293C723.133 93.9473 728.01 90.7676 733.639 88.4902C739.268 86.2129 745.412 85.0742 752.072 85.0742H789.842C791.002 85.0742 792.098 85.2891 793.129 85.7188C794.16 86.1484 795.062 86.75 795.836 87.5234C796.609 88.2969 797.211 89.1992 797.641 90.2305C798.07 91.2617 798.285 92.3574 798.285 93.5176V177.5ZM722.617 138.055H781.527V101.832H752.072C751.557 101.832 750.461 101.918 748.785 102.09C747.152 102.219 745.24 102.584 743.049 103.186C740.9 103.787 738.623 104.711 736.217 105.957C733.811 107.203 731.598 108.922 729.578 111.113C727.559 113.305 725.883 116.055 724.551 119.363C723.262 122.629 722.617 126.604 722.617 131.287V138.055ZM910.047 157.197C910.047 159.26 909.682 161.473 908.951 163.836C908.264 166.199 907.104 168.391 905.471 170.41C903.881 172.43 901.797 174.127 899.219 175.502C896.641 176.834 893.482 177.5 889.744 177.5H826.129C824.926 177.5 823.809 177.285 822.777 176.855C821.746 176.426 820.844 175.846 820.07 175.115C819.34 174.342 818.76 173.439 818.33 172.408C817.9 171.377 817.686 170.26 817.686 169.057V93.5176C817.686 92.3574 817.9 91.2617 818.33 90.2305C818.76 89.1992 819.34 88.2969 820.07 87.5234C820.844 86.75 821.746 86.1484 822.777 85.7188C823.809 85.2891 824.926 85.0742 826.129 85.0742H882.203C884.266 85.0742 886.479 85.4395 888.842 86.1699C891.205 86.9004 893.396 88.082 895.416 89.7148C897.479 91.3047 899.176 93.3887 900.508 95.9668C901.883 98.5449 902.57 101.703 902.57 105.441V108.6C902.57 111.564 902.076 114.766 901.088 118.203C900.1 121.598 898.51 124.82 896.318 127.871C898.209 129.031 899.971 130.428 901.604 132.061C903.279 133.693 904.74 135.584 905.986 137.732C907.232 139.881 908.221 142.309 908.951 145.016C909.682 147.723 910.047 150.709 910.047 153.975V157.197ZM893.289 153.975C893.289 151.783 892.945 149.828 892.258 148.109C891.57 146.348 890.604 144.844 889.357 143.598C888.111 142.352 886.607 141.406 884.846 140.762C883.084 140.074 881.107 139.73 878.916 139.73H841.146V122.844H871.375C873.566 122.844 875.543 122.521 877.305 121.877C879.066 121.189 880.57 120.223 881.816 118.977C883.062 117.73 884.008 116.248 884.652 114.529C885.34 112.768 885.684 110.791 885.684 108.6V105.441C885.684 103.035 884.523 101.832 882.203 101.832H834.443V160.742H889.744C890.045 160.742 890.41 160.721 890.84 160.678C891.27 160.635 891.656 160.506 892 160.291C892.344 160.076 892.645 159.711 892.902 159.195C893.16 158.68 893.289 157.971 893.289 157.068V153.975ZM1013.49 150.301C1013.49 153.609 1013.06 156.596 1012.21 159.26C1011.39 161.881 1010.29 164.201 1008.92 166.221C1007.54 168.24 1005.93 169.959 1004.08 171.377C1002.24 172.795 1000.32 173.955 998.348 174.857C996.371 175.76 994.352 176.426 992.289 176.855C990.27 177.285 988.357 177.5 986.553 177.5H921.906V160.742H986.553C989.775 160.742 992.268 159.797 994.029 157.906C995.834 156.016 996.736 153.48 996.736 150.301C996.736 148.754 996.5 147.336 996.027 146.047C995.555 144.758 994.867 143.641 993.965 142.695C993.105 141.75 992.031 141.02 990.742 140.504C989.496 139.988 988.1 139.73 986.553 139.73H948.01C945.303 139.73 942.381 139.258 939.244 138.312C936.107 137.324 933.186 135.756 930.479 133.607C927.814 131.459 925.58 128.645 923.775 125.164C922.014 121.684 921.133 117.43 921.133 112.402C921.133 107.375 922.014 103.143 923.775 99.7051C925.58 96.2246 927.814 93.4102 930.479 91.2617C933.186 89.0703 936.107 87.502 939.244 86.5566C942.381 85.5684 945.303 85.0742 948.01 85.0742H1005.05V101.832H948.01C944.83 101.832 942.338 102.799 940.533 104.732C938.771 106.666 937.891 109.223 937.891 112.402C937.891 115.625 938.771 118.182 940.533 120.072C942.338 121.92 944.83 122.844 948.01 122.844H986.553H986.682C988.486 122.887 990.398 123.145 992.418 123.617C994.438 124.047 996.436 124.734 998.412 125.68C1000.43 126.625 1002.34 127.828 1004.15 129.289C1005.95 130.707 1007.54 132.426 1008.92 134.445C1010.34 136.465 1011.45 138.785 1012.27 141.406C1013.09 144.027 1013.49 146.992 1013.49 150.301Z" fill="url(#paint1_linear_16_10637)"/>
<path d="M308.765 201.136V221.5H306.299V201.136H308.765ZM333.938 212.312V221.5H331.591V206.227H333.859V208.614H334.057C334.415 207.838 334.959 207.215 335.688 206.744C336.417 206.267 337.359 206.028 338.512 206.028C339.546 206.028 340.451 206.241 341.226 206.665C342.002 207.082 342.605 207.719 343.036 208.574C343.467 209.422 343.682 210.496 343.682 211.795V221.5H341.336V211.955C341.336 210.755 341.024 209.82 340.401 209.151C339.778 208.474 338.923 208.136 337.836 208.136C337.087 208.136 336.417 208.299 335.827 208.624C335.244 208.948 334.783 209.422 334.445 210.045C334.107 210.669 333.938 211.424 333.938 212.312ZM368.517 212.312V221.5H366.17V206.227H368.437V208.614H368.636C368.994 207.838 369.538 207.215 370.267 206.744C370.996 206.267 371.937 206.028 373.091 206.028C374.125 206.028 375.03 206.241 375.805 206.665C376.581 207.082 377.184 207.719 377.615 208.574C378.046 209.422 378.261 210.496 378.261 211.795V221.5H375.915V211.955C375.915 210.755 375.603 209.82 374.98 209.151C374.357 208.474 373.502 208.136 372.415 208.136C371.666 208.136 370.996 208.299 370.406 208.624C369.823 208.948 369.362 209.422 369.024 210.045C368.686 210.669 368.517 211.424 368.517 212.312ZM406.954 221.818C405.575 221.818 404.365 221.49 403.325 220.834C402.29 220.178 401.482 219.259 400.898 218.08C400.322 216.9 400.033 215.521 400.033 213.943C400.033 212.352 400.322 210.964 400.898 209.777C401.482 208.59 402.29 207.669 403.325 207.013C404.365 206.357 405.575 206.028 406.954 206.028C408.333 206.028 409.539 206.357 410.573 207.013C411.614 207.669 412.423 208.59 412.999 209.777C413.583 210.964 413.874 212.352 413.874 213.943C413.874 215.521 413.583 216.9 412.999 218.08C412.423 219.259 411.614 220.178 410.573 220.834C409.539 221.49 408.333 221.818 406.954 221.818ZM406.954 219.71C408.001 219.71 408.863 219.442 409.539 218.905C410.215 218.368 410.716 217.662 411.04 216.787C411.365 215.912 411.528 214.964 411.528 213.943C411.528 212.922 411.365 211.971 411.04 211.089C410.716 210.208 410.215 209.495 409.539 208.952C408.863 208.408 408.001 208.136 406.954 208.136C405.906 208.136 405.045 208.408 404.369 208.952C403.692 209.495 403.192 210.208 402.867 211.089C402.542 211.971 402.38 212.922 402.38 213.943C402.38 214.964 402.542 215.912 402.867 216.787C403.192 217.662 403.692 218.368 404.369 218.905C405.045 219.442 405.906 219.71 406.954 219.71ZM447.598 206.227L441.95 221.5H439.564L433.916 206.227H436.462L440.678 218.398H440.837L445.053 206.227H447.598ZM472.925 221.858C471.957 221.858 471.079 221.676 470.29 221.311C469.501 220.94 468.875 220.406 468.411 219.71C467.947 219.008 467.715 218.159 467.715 217.165C467.715 216.29 467.887 215.58 468.232 215.037C468.576 214.487 469.037 214.056 469.614 213.744C470.19 213.433 470.827 213.201 471.523 213.048C472.226 212.889 472.931 212.763 473.641 212.67C474.569 212.551 475.321 212.462 475.898 212.402C476.481 212.336 476.905 212.226 477.171 212.074C477.442 211.921 477.578 211.656 477.578 211.278V211.199C477.578 210.218 477.31 209.455 476.773 208.912C476.243 208.368 475.437 208.097 474.357 208.097C473.236 208.097 472.358 208.342 471.722 208.832C471.085 209.323 470.638 209.847 470.379 210.403L468.152 209.608C468.55 208.68 469.08 207.957 469.743 207.44C470.413 206.917 471.142 206.552 471.931 206.347C472.726 206.134 473.508 206.028 474.277 206.028C474.768 206.028 475.331 206.088 475.967 206.207C476.61 206.32 477.23 206.555 477.827 206.913C478.43 207.271 478.931 207.812 479.328 208.534C479.726 209.257 479.925 210.224 479.925 211.438V221.5H477.578V219.432H477.459C477.3 219.763 477.035 220.118 476.663 220.496C476.292 220.874 475.798 221.195 475.182 221.46C474.565 221.725 473.813 221.858 472.925 221.858ZM473.283 219.75C474.211 219.75 474.993 219.568 475.629 219.203C476.272 218.839 476.756 218.368 477.081 217.791C477.413 217.214 477.578 216.608 477.578 215.972V213.824C477.479 213.943 477.26 214.053 476.922 214.152C476.591 214.245 476.206 214.328 475.769 214.401C475.338 214.467 474.917 214.527 474.506 214.58C474.101 214.626 473.773 214.666 473.521 214.699C472.912 214.778 472.342 214.908 471.811 215.087C471.288 215.259 470.863 215.521 470.538 215.872C470.22 216.217 470.061 216.687 470.061 217.284C470.061 218.099 470.363 218.716 470.966 219.134C471.576 219.545 472.348 219.75 473.283 219.75ZM509.05 206.227V208.216H501.135V206.227H509.05ZM503.442 202.568H505.789V217.125C505.789 217.788 505.885 218.285 506.077 218.616C506.276 218.941 506.528 219.16 506.833 219.273C507.144 219.379 507.472 219.432 507.817 219.432C508.076 219.432 508.288 219.419 508.453 219.392C508.619 219.359 508.752 219.332 508.851 219.312L509.328 221.42C509.169 221.48 508.947 221.54 508.662 221.599C508.377 221.666 508.016 221.699 507.578 221.699C506.915 221.699 506.266 221.556 505.629 221.271C505 220.986 504.476 220.552 504.058 219.969C503.647 219.385 503.442 218.65 503.442 217.761V202.568ZM537.019 221.818C535.548 221.818 534.278 221.493 533.211 220.844C532.15 220.188 531.332 219.273 530.755 218.099C530.185 216.92 529.9 215.547 529.9 213.983C529.9 212.419 530.185 211.04 530.755 209.847C531.332 208.647 532.134 207.712 533.161 207.043C534.195 206.366 535.402 206.028 536.78 206.028C537.576 206.028 538.361 206.161 539.137 206.426C539.913 206.691 540.619 207.122 541.255 207.719C541.891 208.309 542.398 209.091 542.776 210.065C543.154 211.04 543.343 212.24 543.343 213.665V214.659H531.57V212.631H540.957C540.957 211.769 540.784 211 540.44 210.324C540.101 209.648 539.618 209.114 538.988 208.723C538.365 208.332 537.629 208.136 536.78 208.136C535.846 208.136 535.037 208.368 534.354 208.832C533.678 209.29 533.158 209.886 532.793 210.622C532.429 211.358 532.246 212.147 532.246 212.989V214.341C532.246 215.494 532.445 216.472 532.843 217.274C533.247 218.07 533.807 218.676 534.523 219.094C535.239 219.505 536.071 219.71 537.019 219.71C537.636 219.71 538.192 219.624 538.69 219.452C539.193 219.273 539.628 219.008 539.992 218.656C540.357 218.298 540.638 217.854 540.837 217.324L543.104 217.96C542.866 218.729 542.465 219.405 541.901 219.989C541.338 220.565 540.642 221.016 539.813 221.341C538.985 221.659 538.053 221.818 537.019 221.818ZM595.205 221.5L589.636 201.136H592.142L596.398 217.722H596.597L600.932 201.136H603.716L608.051 217.722H608.25L612.506 201.136H615.011L609.443 221.5H606.898L602.403 205.273H602.244L597.75 221.5H595.205ZM640.947 221.818C639.476 221.818 638.206 221.493 637.139 220.844C636.078 220.188 635.26 219.273 634.683 218.099C634.113 216.92 633.828 215.547 633.828 213.983C633.828 212.419 634.113 211.04 634.683 209.847C635.26 208.647 636.062 207.712 637.089 207.043C638.123 206.366 639.33 206.028 640.709 206.028C641.504 206.028 642.29 206.161 643.065 206.426C643.841 206.691 644.547 207.122 645.183 207.719C645.819 208.309 646.326 209.091 646.704 210.065C647.082 211.04 647.271 212.24 647.271 213.665V214.659H635.498V212.631H644.885C644.885 211.769 644.712 211 644.368 210.324C644.03 209.648 643.546 209.114 642.916 208.723C642.293 208.332 641.557 208.136 640.709 208.136C639.774 208.136 638.965 208.368 638.282 208.832C637.606 209.29 637.086 209.886 636.721 210.622C636.357 211.358 636.174 212.147 636.174 212.989V214.341C636.174 215.494 636.373 216.472 636.771 217.274C637.175 218.07 637.736 218.676 638.451 219.094C639.167 219.505 639.999 219.71 640.947 219.71C641.564 219.71 642.121 219.624 642.618 219.452C643.121 219.273 643.556 219.008 643.92 218.656C644.285 218.298 644.567 217.854 644.765 217.324L647.032 217.96C646.794 218.729 646.393 219.405 645.829 219.989C645.266 220.565 644.57 221.016 643.741 221.341C642.913 221.659 641.981 221.818 640.947 221.818ZM669.359 221.5V201.136H671.705V208.653H671.904C672.077 208.388 672.315 208.05 672.62 207.639C672.932 207.222 673.376 206.85 673.953 206.526C674.536 206.194 675.325 206.028 676.319 206.028C677.605 206.028 678.739 206.35 679.72 206.993C680.701 207.636 681.466 208.547 682.017 209.727C682.567 210.907 682.842 212.299 682.842 213.903C682.842 215.521 682.567 216.923 682.017 218.109C681.466 219.289 680.704 220.204 679.73 220.854C678.755 221.497 677.632 221.818 676.359 221.818C675.378 221.818 674.592 221.656 674.002 221.331C673.412 221 672.958 220.625 672.64 220.207C672.322 219.783 672.077 219.432 671.904 219.153H671.626V221.5H669.359ZM671.666 213.864C671.666 215.017 671.835 216.035 672.173 216.916C672.511 217.791 673.005 218.477 673.654 218.974C674.304 219.465 675.099 219.71 676.041 219.71C677.022 219.71 677.84 219.452 678.497 218.935C679.16 218.411 679.657 217.708 679.988 216.827C680.326 215.938 680.495 214.951 680.495 213.864C680.495 212.79 680.33 211.822 679.998 210.96C679.673 210.092 679.179 209.406 678.517 208.902C677.86 208.392 677.035 208.136 676.041 208.136C675.086 208.136 674.284 208.378 673.634 208.862C672.985 209.339 672.494 210.009 672.163 210.871C671.831 211.726 671.666 212.723 671.666 213.864ZM742.161 206.227C742.042 205.22 741.558 204.438 740.709 203.881C739.861 203.324 738.82 203.045 737.587 203.045C736.685 203.045 735.897 203.191 735.221 203.483C734.551 203.775 734.027 204.176 733.65 204.686C733.278 205.196 733.093 205.777 733.093 206.426C733.093 206.97 733.222 207.437 733.48 207.828C733.746 208.213 734.084 208.534 734.495 208.793C734.906 209.045 735.337 209.253 735.787 209.419C736.238 209.578 736.652 209.707 737.03 209.807L739.098 210.364C739.629 210.503 740.219 210.695 740.868 210.94C741.525 211.186 742.151 211.52 742.748 211.945C743.351 212.362 743.848 212.899 744.239 213.555C744.63 214.212 744.826 215.017 744.826 215.972C744.826 217.072 744.537 218.066 743.961 218.955C743.391 219.843 742.555 220.549 741.455 221.072C740.361 221.596 739.032 221.858 737.468 221.858C736.009 221.858 734.747 221.623 733.679 221.152C732.619 220.681 731.783 220.025 731.174 219.183C730.57 218.341 730.229 217.364 730.15 216.25H732.695C732.761 217.019 733.02 217.655 733.471 218.159C733.928 218.656 734.505 219.027 735.201 219.273C735.903 219.511 736.659 219.631 737.468 219.631C738.409 219.631 739.254 219.478 740.003 219.173C740.752 218.862 741.346 218.431 741.783 217.881C742.221 217.324 742.439 216.674 742.439 215.932C742.439 215.256 742.25 214.705 741.873 214.281C741.495 213.857 740.998 213.512 740.381 213.247C739.765 212.982 739.098 212.75 738.382 212.551L735.877 211.835C734.286 211.378 733.026 210.725 732.098 209.876C731.17 209.028 730.706 207.918 730.706 206.545C730.706 205.405 731.015 204.411 731.631 203.562C732.254 202.707 733.089 202.045 734.137 201.574C735.191 201.097 736.367 200.858 737.667 200.858C738.979 200.858 740.146 201.093 741.167 201.564C742.187 202.028 742.996 202.664 743.593 203.473C744.196 204.282 744.514 205.2 744.547 206.227H742.161ZM772.966 221.818C771.588 221.818 770.378 221.49 769.337 220.834C768.303 220.178 767.494 219.259 766.911 218.08C766.334 216.9 766.046 215.521 766.046 213.943C766.046 212.352 766.334 210.964 766.911 209.777C767.494 208.59 768.303 207.669 769.337 207.013C770.378 206.357 771.588 206.028 772.966 206.028C774.345 206.028 775.552 206.357 776.586 207.013C777.626 207.669 778.435 208.59 779.012 209.777C779.595 210.964 779.887 212.352 779.887 213.943C779.887 215.521 779.595 216.9 779.012 218.08C778.435 219.259 777.626 220.178 776.586 220.834C775.552 221.49 774.345 221.818 772.966 221.818ZM772.966 219.71C774.014 219.71 774.875 219.442 775.552 218.905C776.228 218.368 776.728 217.662 777.053 216.787C777.378 215.912 777.54 214.964 777.54 213.943C777.54 212.922 777.378 211.971 777.053 211.089C776.728 210.208 776.228 209.495 775.552 208.952C774.875 208.408 774.014 208.136 772.966 208.136C771.919 208.136 771.057 208.408 770.381 208.952C769.705 209.495 769.205 210.208 768.88 211.089C768.555 211.971 768.392 212.922 768.392 213.943C768.392 214.964 768.555 215.912 768.88 216.787C769.205 217.662 769.705 218.368 770.381 218.905C771.057 219.442 771.919 219.71 772.966 219.71ZM804.015 201.136V221.5H801.669V201.136H804.015ZM836.138 215.256V206.227H838.485V221.5H836.138V218.915H835.979C835.621 219.69 835.064 220.35 834.309 220.893C833.553 221.43 832.599 221.699 831.445 221.699C830.491 221.699 829.642 221.49 828.9 221.072C828.157 220.648 827.574 220.012 827.15 219.163C826.725 218.308 826.513 217.231 826.513 215.932V206.227H828.86V215.773C828.86 216.886 829.171 217.775 829.795 218.438C830.424 219.1 831.226 219.432 832.201 219.432C832.784 219.432 833.377 219.283 833.981 218.984C834.591 218.686 835.101 218.229 835.512 217.612C835.93 216.996 836.138 216.21 836.138 215.256ZM867.625 206.227V208.216H859.71V206.227H867.625ZM862.017 202.568H864.364V217.125C864.364 217.788 864.46 218.285 864.652 218.616C864.851 218.941 865.103 219.16 865.408 219.273C865.719 219.379 866.047 219.432 866.392 219.432C866.651 219.432 866.863 219.419 867.028 219.392C867.194 219.359 867.327 219.332 867.426 219.312L867.903 221.42C867.744 221.48 867.522 221.54 867.237 221.599C866.952 221.666 866.591 221.699 866.153 221.699C865.491 221.699 864.841 221.556 864.205 221.271C863.575 220.986 863.051 220.552 862.634 219.969C862.223 219.385 862.017 218.65 862.017 217.761V202.568ZM889.355 221.5V206.227H891.701V221.5H889.355ZM890.548 203.682C890.091 203.682 889.696 203.526 889.365 203.214C889.04 202.903 888.877 202.528 888.877 202.091C888.877 201.653 889.04 201.279 889.365 200.967C889.696 200.656 890.091 200.5 890.548 200.5C891.005 200.5 891.396 200.656 891.721 200.967C892.053 201.279 892.218 201.653 892.218 202.091C892.218 202.528 892.053 202.903 891.721 203.214C891.396 203.526 891.005 203.682 890.548 203.682ZM920.404 221.818C919.025 221.818 917.815 221.49 916.775 220.834C915.74 220.178 914.932 219.259 914.348 218.08C913.772 216.9 913.483 215.521 913.483 213.943C913.483 212.352 913.772 210.964 914.348 209.777C914.932 208.59 915.74 207.669 916.775 207.013C917.815 206.357 919.025 206.028 920.404 206.028C921.783 206.028 922.989 206.357 924.023 207.013C925.064 207.669 925.873 208.59 926.449 209.777C927.033 210.964 927.324 212.352 927.324 213.943C927.324 215.521 927.033 216.9 926.449 218.08C925.873 219.259 925.064 220.178 924.023 220.834C922.989 221.49 921.783 221.818 920.404 221.818ZM920.404 219.71C921.451 219.71 922.313 219.442 922.989 218.905C923.665 218.368 924.166 217.662 924.49 216.787C924.815 215.912 924.978 214.964 924.978 213.943C924.978 212.922 924.815 211.971 924.49 211.089C924.166 210.208 923.665 209.495 922.989 208.952C922.313 208.408 921.451 208.136 920.404 208.136C919.356 208.136 918.495 208.408 917.819 208.952C917.142 209.495 916.642 210.208 916.317 211.089C915.992 211.971 915.83 212.922 915.83 213.943C915.83 214.964 915.992 215.912 916.317 216.787C916.642 217.662 917.142 218.368 917.819 218.905C918.495 219.442 919.356 219.71 920.404 219.71ZM951.453 212.312V221.5H949.106V206.227H951.373V208.614H951.572C951.93 207.838 952.474 207.215 953.203 206.744C953.932 206.267 954.873 206.028 956.027 206.028C957.061 206.028 957.966 206.241 958.741 206.665C959.517 207.082 960.12 207.719 960.551 208.574C960.982 209.422 961.197 210.496 961.197 211.795V221.5H958.851V211.955C958.851 210.755 958.539 209.82 957.916 209.151C957.293 208.474 956.438 208.136 955.351 208.136C954.602 208.136 953.932 208.299 953.342 208.624C952.759 208.948 952.298 209.422 951.96 210.045C951.622 210.669 951.453 211.424 951.453 212.312ZM994.503 209.648L992.395 210.244C992.263 209.893 992.067 209.552 991.809 209.22C991.557 208.882 991.212 208.604 990.775 208.385C990.337 208.166 989.777 208.057 989.094 208.057C988.16 208.057 987.381 208.272 986.758 208.703C986.141 209.127 985.833 209.668 985.833 210.324C985.833 210.907 986.045 211.368 986.469 211.706C986.894 212.044 987.556 212.326 988.458 212.551L990.725 213.108C992.091 213.439 993.108 213.946 993.778 214.629C994.447 215.305 994.782 216.177 994.782 217.244C994.782 218.119 994.53 218.902 994.026 219.591C993.529 220.28 992.833 220.824 991.938 221.222C991.043 221.619 990.002 221.818 988.816 221.818C987.258 221.818 985.969 221.48 984.948 220.804C983.927 220.128 983.281 219.14 983.009 217.841L985.236 217.284C985.448 218.106 985.85 218.723 986.439 219.134C987.036 219.545 987.815 219.75 988.776 219.75C989.87 219.75 990.738 219.518 991.381 219.054C992.031 218.583 992.356 218.02 992.356 217.364C992.356 216.833 992.17 216.389 991.799 216.031C991.428 215.667 990.858 215.395 990.089 215.216L987.543 214.619C986.144 214.288 985.117 213.774 984.461 213.078C983.811 212.375 983.486 211.497 983.486 210.443C983.486 209.581 983.728 208.819 984.212 208.156C984.703 207.493 985.369 206.973 986.211 206.595C987.059 206.217 988.02 206.028 989.094 206.028C990.606 206.028 991.792 206.36 992.654 207.023C993.522 207.686 994.139 208.561 994.503 209.648Z" fill="#353535"/>
<defs>
<linearGradient id="paint0_linear_16_10637" x1="34.5" y1="148" x2="257.5" y2="148" gradientUnits="userSpaceOnUse">
<stop stop-color="#FF0303"/>
<stop offset="1" stop-color="#FF3D00"/>
</linearGradient>
<linearGradient id="paint1_linear_16_10637" x1="281.5" y1="131" x2="1018.5" y2="131" gradientUnits="userSpaceOnUse">
<stop stop-color="#FF0303"/>
<stop offset="1" stop-color="#FF3D00"/>
</linearGradient>
</defs>
</svg>
